<?xml version="1.0" encoding="UTF-8"?>
<!DOCTYPE svg PUBLIC "-//W3C//DTD SVG 1.1//EN" "http://www.w3.org/Graphics/SVG/1.1/DTD/svg11.dtd">
<!-- Creator: CorelDRAW 2019 (64-Bit) -->
<svg xmlns="http://www.w3.org/2000/svg" xml:space="preserve" width="221px" height="209px" version="1.1" style="shape-rendering:geometricPrecision; text-rendering:geometricPrecision; image-rendering:optimizeQuality; fill-rule:evenodd; clip-rule:evenodd"
viewBox="0 0 3 2.84"
 xmlns:xlink="http://www.w3.org/1999/xlink">
 <defs>
  <style type="text/css">
   <![CDATA[
    .fil2 {fill:none}
    .fil1 {fill:#662F85}
    .fil0 {fill:#7400B8}
   ]]>
  </style>
    <clipPath id="id0">
     <path d="M2.51 0.33c-0.03,0.02 -0.06,0.04 -0.1,0.06l-0.21 0.12c-0.03,0.03 -0.07,0.04 -0.1,0.07 -0.01,-0.02 -0.05,-0.04 -0.07,-0.05 -0.1,-0.06 -0.26,-0.02 -0.33,0.1l-0.19 -0.09c-0.06,-0.03 -0.12,-0.06 -0.18,-0.09 0.01,-0.03 0,-0.08 -0.01,-0.11 -0.01,-0.03 -0.02,-0.06 -0.04,-0.08 -0.09,-0.09 -0.2,-0.12 -0.31,-0.07 -0.09,0.04 -0.14,0.14 -0.14,0.24 0,0.04 0.01,0.05 0.02,0.08l-0.45 0.34c-0.04,0.03 -0.03,0.01 -0.08,-0.01 -0.14,-0.04 -0.32,0.07 -0.32,0.22 0,0.1 0.02,0.16 0.09,0.22 0.12,0.09 0.29,0.07 0.37,-0.06 0.05,-0.08 0.04,-0.14 0.03,-0.22l0.47 -0.36c0.03,0 0.15,0.09 0.29,-0.04 0.12,0.06 0.3,0.14 0.41,0.2 0.03,0.02 0.01,0.04 0.07,0.12 0.08,0.1 0.29,0.13 0.4,-0.03 0.03,-0.05 0.04,-0.09 0.04,-0.16 0.02,-0.01 0.05,-0.03 0.07,-0.04l0.33 -0.2c0.04,-0.02 0.04,-0.03 0.07,-0.01 0.1,0.05 0.22,0.02 0.29,-0.05 0.04,-0.05 0.07,-0.1 0.07,-0.15l0 -0.05c-0.01,-0.13 -0.13,-0.26 -0.3,-0.22 -0.16,0.03 -0.24,0.21 -0.19,0.32z"/>
    </clipPath>
    <clipPath id="id1">
     <path d="M2.5 1.1l0 1.62c0,0.09 0.03,0.12 0.12,0.12l0.26 0c0.07,0 0.12,-0.02 0.12,-0.09l0 -1.67c0,-0.05 -0.04,-0.08 -0.09,-0.08l-0.33 0c-0.03,0 -0.05,0.02 -0.06,0.03 -0.02,0.02 -0.02,0.05 -0.02,0.07z"/>
    </clipPath>
    <clipPath id="id2">
     <path d="M0.83 1.25l0 1.51c0,0.02 0.02,0.05 0.04,0.06 0.04,0.03 0.27,0.02 0.34,0.02 0.03,0 0.07,0 0.09,-0.02 0.02,-0.02 0.04,-0.04 0.04,-0.07l0 -1.49c0,-0.08 -0.07,-0.1 -0.13,-0.1 -0.07,0 -0.3,-0.01 -0.34,0.02 -0.02,0.01 -0.04,0.04 -0.04,0.07z"/>
    </clipPath>
    <clipPath id="id3">
     <path d="M1.66 1.59l0 1.16c0,0.08 0.07,0.09 0.13,0.09 0.08,0 0.3,0.01 0.34,-0.02 0.02,-0.01 0.04,-0.04 0.04,-0.06l0 -1.17c0,-0.06 -0.05,-0.09 -0.11,-0.09l-0.29 0c-0.06,0 -0.11,0.03 -0.11,0.09z"/>
    </clipPath>
    <clipPath id="id4">
     <path d="M0 1.91l0 0.85c0,0.03 0.02,0.05 0.03,0.06 0.05,0.03 0.28,0.02 0.35,0.02 0.09,0 0.12,-0.03 0.12,-0.12l0 -0.78c0,-0.06 -0.03,-0.11 -0.09,-0.11l-0.31 0c-0.03,0 -0.05,0.01 -0.07,0.02 -0.01,0.01 -0.03,0.03 -0.03,0.06z"/>
    </clipPath>
 </defs>
 <g id="Layer_x0020_1">
  <metadata id="CorelCorpID_0Corel-Layer"/>
  <g id="_2081740104224">
   <path class="fil0" d="M2.51 0.33c-0.03,0.02 -0.06,0.04 -0.1,0.06l-0.21 0.12c-0.03,0.03 -0.07,0.04 -0.1,0.07 -0.01,-0.02 -0.05,-0.04 -0.07,-0.05 -0.1,-0.06 -0.26,-0.02 -0.33,0.1l-0.19 -0.09c-0.06,-0.03 -0.12,-0.06 -0.18,-0.09 0.01,-0.03 0,-0.08 -0.01,-0.11 -0.01,-0.03 -0.02,-0.06 -0.04,-0.08 -0.09,-0.09 -0.2,-0.12 -0.31,-0.07 -0.09,0.04 -0.14,0.14 -0.14,0.24 0,0.04 0.01,0.05 0.02,0.08l-0.45 0.34c-0.04,0.03 -0.03,0.01 -0.08,-0.01 -0.14,-0.04 -0.32,0.07 -0.32,0.22 0,0.1 0.02,0.16 0.09,0.22 0.12,0.09 0.29,0.07 0.37,-0.06 0.05,-0.08 0.04,-0.14 0.03,-0.22l0.47 -0.36c0.03,0 0.15,0.09 0.29,-0.04 0.12,0.06 0.3,0.14 0.41,0.2 0.03,0.02 0.01,0.04 0.07,0.12 0.08,0.1 0.29,0.13 0.4,-0.03 0.03,-0.05 0.04,-0.09 0.04,-0.16 0.02,-0.01 0.05,-0.03 0.07,-0.04l0.33 -0.2c0.04,-0.02 0.04,-0.03 0.07,-0.01 0.1,0.05 0.22,0.02 0.29,-0.05 0.04,-0.05 0.07,-0.1 0.07,-0.15l0 -0.05c-0.01,-0.13 -0.13,-0.26 -0.3,-0.22 -0.16,0.03 -0.24,0.21 -0.19,0.32z"/>
   <g style="clip-path:url(#id0)">
    <g>
     <path id="1" class="fil1" d="M0.94 30.29c0,-0.01 0.02,-0.12 0.02,-0.14 0.02,-0.12 0.08,-0.21 0.15,-0.29 0.03,-0.04 0.14,-0.11 0.18,-0.13 0.12,-0.05 0.13,-0.04 0.24,-0.06 0.07,-0.01 0.19,0.03 0.25,0.05 0.08,0.03 0.13,0.07 0.19,0.12 0.02,0.02 0.02,0.02 0.03,0.04 0.08,0.08 0.1,0.14 0.13,0.25 0.02,0.04 0.02,0.09 0.02,0.13 0.01,0.07 -0.02,0.18 -0.05,0.25 -0.03,0.09 -0.09,0.16 -0.15,0.22 -0.09,0.07 -0.14,0.1 -0.25,0.13 -0.08,0.02 -0.19,0.02 -0.27,0.01 -0.12,-0.03 -0.21,-0.09 -0.3,-0.16l-0.07 -0.08c-0.06,-0.08 -0.11,-0.2 -0.11,-0.3 0,-0.03 0,-0.02 -0.01,-0.04zm0.57 -0.84l0.08 0c0.33,0.01 0.64,0.23 0.75,0.56 0.06,0.19 0.05,0.39 -0.02,0.57 -0.03,0.07 -0.08,0.16 -0.12,0.21 -0.03,0.04 -0.05,0.06 -0.08,0.09l-0.09 0.08c0.01,0.01 0.03,0.01 0.05,0.02 0.02,0.01 0.03,0.01 0.05,0.02 0.04,0.02 0.06,0.03 0.1,0.05 0.01,0.01 0.03,0.01 0.04,0.02 0.02,0.01 0.03,0.02 0.05,0.03 0.39,0.26 0.66,0.68 0.66,1.21l0 0 -0.22 0c0,-0.23 -0.08,-0.51 -0.22,-0.68 -0.03,-0.04 -0.07,-0.1 -0.1,-0.13l-0.12 -0.11c-0.06,-0.06 -0.19,-0.14 -0.27,-0.18 -0.07,-0.03 -0.15,-0.05 -0.23,-0.07 -0.06,-0.02 -0.21,-0.04 -0.27,-0.04l-0.14 0.01c-0.05,0.01 -0.09,0.02 -0.13,0.03 -0.17,0.04 -0.38,0.13 -0.5,0.25 -0.13,0.12 -0.11,0.08 -0.22,0.24 -0.14,0.17 -0.22,0.45 -0.22,0.68l-0.22 0 0 0c0,-0.52 0.27,-0.96 0.66,-1.21l0.1 -0.05c0.09,-0.05 0.14,-0.06 0.19,-0.09 -0.01,-0.01 -0.03,-0.03 -0.05,-0.04 -0.05,-0.05 -0.07,-0.07 -0.12,-0.13 -0.05,-0.05 -0.09,-0.14 -0.12,-0.21 -0.08,-0.19 -0.08,-0.39 -0.02,-0.57 0.06,-0.16 0.17,-0.3 0.29,-0.39 0.14,-0.11 0.31,-0.17 0.46,-0.17z"/>
    </g>
   </g>
   <path class="fil2" d="M2.51 0.33c-0.03,0.02 -0.06,0.04 -0.1,0.06l-0.21 0.12c-0.03,0.03 -0.07,0.04 -0.1,0.07 -0.01,-0.02 -0.05,-0.04 -0.07,-0.05 -0.1,-0.06 -0.26,-0.02 -0.33,0.1l-0.19 -0.09c-0.06,-0.03 -0.12,-0.06 -0.18,-0.09 0.01,-0.03 0,-0.08 -0.01,-0.11 -0.01,-0.03 -0.02,-0.06 -0.04,-0.08 -0.09,-0.09 -0.2,-0.12 -0.31,-0.07 -0.09,0.04 -0.14,0.14 -0.14,0.24 0,0.04 0.01,0.05 0.02,0.08l-0.45 0.34c-0.04,0.03 -0.03,0.01 -0.08,-0.01 -0.14,-0.04 -0.32,0.07 -0.32,0.22 0,0.1 0.02,0.16 0.09,0.22 0.12,0.09 0.29,0.07 0.37,-0.06 0.05,-0.08 0.04,-0.14 0.03,-0.22l0.47 -0.36c0.03,0 0.15,0.09 0.29,-0.04 0.12,0.06 0.3,0.14 0.41,0.2 0.03,0.02 0.01,0.04 0.07,0.12 0.08,0.1 0.29,0.13 0.4,-0.03 0.03,-0.05 0.04,-0.09 0.04,-0.16 0.02,-0.01 0.05,-0.03 0.07,-0.04l0.33 -0.2c0.04,-0.02 0.04,-0.03 0.07,-0.01 0.1,0.05 0.22,0.02 0.29,-0.05 0.04,-0.05 0.07,-0.1 0.07,-0.15l0 -0.05c-0.01,-0.13 -0.13,-0.26 -0.3,-0.22 -0.16,0.03 -0.24,0.21 -0.19,0.32z"/>
   <path class="fil0" d="M2.5 1.1l0 1.62c0,0.09 0.03,0.12 0.12,0.12l0.26 0c0.07,0 0.12,-0.02 0.12,-0.09l0 -1.67c0,-0.05 -0.04,-0.08 -0.09,-0.08l-0.33 0c-0.03,0 -0.05,0.02 -0.06,0.03 -0.02,0.02 -0.02,0.05 -0.02,0.07z"/>
   <g style="clip-path:url(#id1)">
    <g>
     <path id="1" class="fil1" d="M0.94 30.29c0,-0.01 0.02,-0.12 0.02,-0.14 0.02,-0.12 0.08,-0.21 0.15,-0.29 0.03,-0.04 0.14,-0.11 0.18,-0.13 0.12,-0.05 0.13,-0.04 0.24,-0.06 0.07,-0.01 0.19,0.03 0.25,0.05 0.08,0.03 0.13,0.07 0.19,0.12 0.02,0.02 0.02,0.02 0.03,0.04 0.08,0.08 0.1,0.14 0.13,0.25 0.02,0.04 0.02,0.09 0.02,0.13 0.01,0.07 -0.02,0.18 -0.05,0.25 -0.03,0.09 -0.09,0.16 -0.15,0.22 -0.09,0.07 -0.14,0.1 -0.25,0.13 -0.08,0.02 -0.19,0.02 -0.27,0.01 -0.12,-0.03 -0.21,-0.09 -0.3,-0.16l-0.07 -0.08c-0.06,-0.08 -0.11,-0.2 -0.11,-0.3 0,-0.03 0,-0.02 -0.01,-0.04zm0.57 -0.84l0.08 0c0.33,0.01 0.64,0.23 0.75,0.56 0.06,0.19 0.05,0.39 -0.02,0.57 -0.03,0.07 -0.08,0.16 -0.12,0.21 -0.03,0.04 -0.05,0.06 -0.08,0.09l-0.09 0.08c0.01,0.01 0.03,0.01 0.05,0.02 0.02,0.01 0.03,0.01 0.05,0.02 0.04,0.02 0.06,0.03 0.1,0.05 0.01,0.01 0.03,0.01 0.04,0.02 0.02,0.01 0.03,0.02 0.05,0.03 0.39,0.26 0.66,0.68 0.66,1.21l0 0 -0.22 0c0,-0.23 -0.08,-0.51 -0.22,-0.68 -0.03,-0.04 -0.07,-0.1 -0.1,-0.13l-0.12 -0.11c-0.06,-0.06 -0.19,-0.14 -0.27,-0.18 -0.07,-0.03 -0.15,-0.05 -0.23,-0.07 -0.06,-0.02 -0.21,-0.04 -0.27,-0.04l-0.14 0.01c-0.05,0.01 -0.09,0.02 -0.13,0.03 -0.17,0.04 -0.38,0.13 -0.5,0.25 -0.13,0.12 -0.11,0.08 -0.22,0.24 -0.14,0.17 -0.22,0.45 -0.22,0.68l-0.22 0 0 0c0,-0.52 0.27,-0.96 0.66,-1.21l0.1 -0.05c0.09,-0.05 0.14,-0.06 0.19,-0.09 -0.01,-0.01 -0.03,-0.03 -0.05,-0.04 -0.05,-0.05 -0.07,-0.07 -0.12,-0.13 -0.05,-0.05 -0.09,-0.14 -0.12,-0.21 -0.08,-0.19 -0.08,-0.39 -0.02,-0.57 0.06,-0.16 0.17,-0.3 0.29,-0.39 0.14,-0.11 0.31,-0.17 0.46,-0.17z"/>
    </g>
   </g>
   <path class="fil2" d="M2.5 1.1l0 1.62c0,0.09 0.03,0.12 0.12,0.12l0.26 0c0.07,0 0.12,-0.02 0.12,-0.09l0 -1.67c0,-0.05 -0.04,-0.08 -0.09,-0.08l-0.33 0c-0.03,0 -0.05,0.02 -0.06,0.03 -0.02,0.02 -0.02,0.05 -0.02,0.07z"/>
   <path class="fil0" d="M0.83 1.25l0 1.51c0,0.02 0.02,0.05 0.04,0.06 0.04,0.03 0.27,0.02 0.34,0.02 0.03,0 0.07,0 0.09,-0.02 0.02,-0.02 0.04,-0.04 0.04,-0.07l0 -1.49c0,-0.08 -0.07,-0.1 -0.13,-0.1 -0.07,0 -0.3,-0.01 -0.34,0.02 -0.02,0.01 -0.04,0.04 -0.04,0.07z"/>
   <g style="clip-path:url(#id2)">
    <g>
     <path id="1" class="fil1" d="M0.94 30.29c0,-0.01 0.02,-0.12 0.02,-0.14 0.02,-0.12 0.08,-0.21 0.15,-0.29 0.03,-0.04 0.14,-0.11 0.18,-0.13 0.12,-0.05 0.13,-0.04 0.24,-0.06 0.07,-0.01 0.19,0.03 0.25,0.05 0.08,0.03 0.13,0.07 0.19,0.12 0.02,0.02 0.02,0.02 0.03,0.04 0.08,0.08 0.1,0.14 0.13,0.25 0.02,0.04 0.02,0.09 0.02,0.13 0.01,0.07 -0.02,0.18 -0.05,0.25 -0.03,0.09 -0.09,0.16 -0.15,0.22 -0.09,0.07 -0.14,0.1 -0.25,0.13 -0.08,0.02 -0.19,0.02 -0.27,0.01 -0.12,-0.03 -0.21,-0.09 -0.3,-0.16l-0.07 -0.08c-0.06,-0.08 -0.11,-0.2 -0.11,-0.3 0,-0.03 0,-0.02 -0.01,-0.04zm0.57 -0.84l0.08 0c0.33,0.01 0.64,0.23 0.75,0.56 0.06,0.19 0.05,0.39 -0.02,0.57 -0.03,0.07 -0.08,0.16 -0.12,0.21 -0.03,0.04 -0.05,0.06 -0.08,0.09l-0.09 0.08c0.01,0.01 0.03,0.01 0.05,0.02 0.02,0.01 0.03,0.01 0.05,0.02 0.04,0.02 0.06,0.03 0.1,0.05 0.01,0.01 0.03,0.01 0.04,0.02 0.02,0.01 0.03,0.02 0.05,0.03 0.39,0.26 0.66,0.68 0.66,1.21l0 0 -0.22 0c0,-0.23 -0.08,-0.51 -0.22,-0.68 -0.03,-0.04 -0.07,-0.1 -0.1,-0.13l-0.12 -0.11c-0.06,-0.06 -0.19,-0.14 -0.27,-0.18 -0.07,-0.03 -0.15,-0.05 -0.23,-0.07 -0.06,-0.02 -0.21,-0.04 -0.27,-0.04l-0.14 0.01c-0.05,0.01 -0.09,0.02 -0.13,0.03 -0.17,0.04 -0.38,0.13 -0.5,0.25 -0.13,0.12 -0.11,0.08 -0.22,0.24 -0.14,0.17 -0.22,0.45 -0.22,0.68l-0.22 0 0 0c0,-0.52 0.27,-0.96 0.66,-1.21l0.1 -0.05c0.09,-0.05 0.14,-0.06 0.19,-0.09 -0.01,-0.01 -0.03,-0.03 -0.05,-0.04 -0.05,-0.05 -0.07,-0.07 -0.12,-0.13 -0.05,-0.05 -0.09,-0.14 -0.12,-0.21 -0.08,-0.19 -0.08,-0.39 -0.02,-0.57 0.06,-0.16 0.17,-0.3 0.29,-0.39 0.14,-0.11 0.31,-0.17 0.46,-0.17z"/>
    </g>
   </g>
   <path class="fil2" d="M0.83 1.25l0 1.51c0,0.02 0.02,0.05 0.04,0.06 0.04,0.03 0.27,0.02 0.34,0.02 0.03,0 0.07,0 0.09,-0.02 0.02,-0.02 0.04,-0.04 0.04,-0.07l0 -1.49c0,-0.08 -0.07,-0.1 -0.13,-0.1 -0.07,0 -0.3,-0.01 -0.34,0.02 -0.02,0.01 -0.04,0.04 -0.04,0.07z"/>
   <path class="fil0" d="M1.66 1.59l0 1.16c0,0.08 0.07,0.09 0.13,0.09 0.08,0 0.3,0.01 0.34,-0.02 0.02,-0.01 0.04,-0.04 0.04,-0.06l0 -1.17c0,-0.06 -0.05,-0.09 -0.11,-0.09l-0.29 0c-0.06,0 -0.11,0.03 -0.11,0.09z"/>
   <g style="clip-path:url(#id3)">
    <g>
     <path id="1" class="fil1" d="M0.94 30.29c0,-0.01 0.02,-0.12 0.02,-0.14 0.02,-0.12 0.08,-0.21 0.15,-0.29 0.03,-0.04 0.14,-0.11 0.18,-0.13 0.12,-0.05 0.13,-0.04 0.24,-0.06 0.07,-0.01 0.19,0.03 0.25,0.05 0.08,0.03 0.13,0.07 0.19,0.12 0.02,0.02 0.02,0.02 0.03,0.04 0.08,0.08 0.1,0.14 0.13,0.25 0.02,0.04 0.02,0.09 0.02,0.13 0.01,0.07 -0.02,0.18 -0.05,0.25 -0.03,0.09 -0.09,0.16 -0.15,0.22 -0.09,0.07 -0.14,0.1 -0.25,0.13 -0.08,0.02 -0.19,0.02 -0.27,0.01 -0.12,-0.03 -0.21,-0.09 -0.3,-0.16l-0.07 -0.08c-0.06,-0.08 -0.11,-0.2 -0.11,-0.3 0,-0.03 0,-0.02 -0.01,-0.04zm0.57 -0.84l0.08 0c0.33,0.01 0.64,0.23 0.75,0.56 0.06,0.19 0.05,0.39 -0.02,0.57 -0.03,0.07 -0.08,0.16 -0.12,0.21 -0.03,0.04 -0.05,0.06 -0.08,0.09l-0.09 0.08c0.01,0.01 0.03,0.01 0.05,0.02 0.02,0.01 0.03,0.01 0.05,0.02 0.04,0.02 0.06,0.03 0.1,0.05 0.01,0.01 0.03,0.01 0.04,0.02 0.02,0.01 0.03,0.02 0.05,0.03 0.39,0.26 0.66,0.68 0.66,1.21l0 0 -0.22 0c0,-0.23 -0.08,-0.51 -0.22,-0.68 -0.03,-0.04 -0.07,-0.1 -0.1,-0.13l-0.12 -0.11c-0.06,-0.06 -0.19,-0.14 -0.27,-0.18 -0.07,-0.03 -0.15,-0.05 -0.23,-0.07 -0.06,-0.02 -0.21,-0.04 -0.27,-0.04l-0.14 0.01c-0.05,0.01 -0.09,0.02 -0.13,0.03 -0.17,0.04 -0.38,0.13 -0.5,0.25 -0.13,0.12 -0.11,0.08 -0.22,0.24 -0.14,0.17 -0.22,0.45 -0.22,0.68l-0.22 0 0 0c0,-0.52 0.27,-0.96 0.66,-1.21l0.1 -0.05c0.09,-0.05 0.14,-0.06 0.19,-0.09 -0.01,-0.01 -0.03,-0.03 -0.05,-0.04 -0.05,-0.05 -0.07,-0.07 -0.12,-0.13 -0.05,-0.05 -0.09,-0.14 -0.12,-0.21 -0.08,-0.19 -0.08,-0.39 -0.02,-0.57 0.06,-0.16 0.17,-0.3 0.29,-0.39 0.14,-0.11 0.31,-0.17 0.46,-0.17z"/>
    </g>
   </g>
   <path class="fil2" d="M1.66 1.59l0 1.16c0,0.08 0.07,0.09 0.13,0.09 0.08,0 0.3,0.01 0.34,-0.02 0.02,-0.01 0.04,-0.04 0.04,-0.06l0 -1.17c0,-0.06 -0.05,-0.09 -0.11,-0.09l-0.29 0c-0.06,0 -0.11,0.03 -0.11,0.09z"/>
   <path class="fil0" d="M0 1.91l0 0.85c0,0.03 0.02,0.05 0.03,0.06 0.05,0.03 0.28,0.02 0.35,0.02 0.09,0 0.12,-0.03 0.12,-0.12l0 -0.78c0,-0.06 -0.03,-0.11 -0.09,-0.11l-0.31 0c-0.03,0 -0.05,0.01 -0.07,0.02 -0.01,0.01 -0.03,0.03 -0.03,0.06z"/>
   <g style="clip-path:url(#id4)">
    <g>
     <path id="1" class="fil1" d="M0.94 30.29c0,-0.01 0.02,-0.12 0.02,-0.14 0.02,-0.12 0.08,-0.21 0.15,-0.29 0.03,-0.04 0.14,-0.11 0.18,-0.13 0.12,-0.05 0.13,-0.04 0.24,-0.06 0.07,-0.01 0.19,0.03 0.25,0.05 0.08,0.03 0.13,0.07 0.19,0.12 0.02,0.02 0.02,0.02 0.03,0.04 0.08,0.08 0.1,0.14 0.13,0.25 0.02,0.04 0.02,0.09 0.02,0.13 0.01,0.07 -0.02,0.18 -0.05,0.25 -0.03,0.09 -0.09,0.16 -0.15,0.22 -0.09,0.07 -0.14,0.1 -0.25,0.13 -0.08,0.02 -0.19,0.02 -0.27,0.01 -0.12,-0.03 -0.21,-0.09 -0.3,-0.16l-0.07 -0.08c-0.06,-0.08 -0.11,-0.2 -0.11,-0.3 0,-0.03 0,-0.02 -0.01,-0.04zm0.57 -0.84l0.08 0c0.33,0.01 0.64,0.23 0.75,0.56 0.06,0.19 0.05,0.39 -0.02,0.57 -0.03,0.07 -0.08,0.16 -0.12,0.21 -0.03,0.04 -0.05,0.06 -0.08,0.09l-0.09 0.08c0.01,0.01 0.03,0.01 0.05,0.02 0.02,0.01 0.03,0.01 0.05,0.02 0.04,0.02 0.06,0.03 0.1,0.05 0.01,0.01 0.03,0.01 0.04,0.02 0.02,0.01 0.03,0.02 0.05,0.03 0.39,0.26 0.66,0.68 0.66,1.21l0 0 -0.22 0c0,-0.23 -0.08,-0.51 -0.22,-0.68 -0.03,-0.04 -0.07,-0.1 -0.1,-0.13l-0.12 -0.11c-0.06,-0.06 -0.19,-0.14 -0.27,-0.18 -0.07,-0.03 -0.15,-0.05 -0.23,-0.07 -0.06,-0.02 -0.21,-0.04 -0.27,-0.04l-0.14 0.01c-0.05,0.01 -0.09,0.02 -0.13,0.03 -0.17,0.04 -0.38,0.13 -0.5,0.25 -0.13,0.12 -0.11,0.08 -0.22,0.24 -0.14,0.17 -0.22,0.45 -0.22,0.68l-0.22 0 0 0c0,-0.52 0.27,-0.96 0.66,-1.21l0.1 -0.05c0.09,-0.05 0.14,-0.06 0.19,-0.09 -0.01,-0.01 -0.03,-0.03 -0.05,-0.04 -0.05,-0.05 -0.07,-0.07 -0.12,-0.13 -0.05,-0.05 -0.09,-0.14 -0.12,-0.21 -0.08,-0.19 -0.08,-0.39 -0.02,-0.57 0.06,-0.16 0.17,-0.3 0.29,-0.39 0.14,-0.11 0.31,-0.17 0.46,-0.17z"/>
    </g>
   </g>
   <path class="fil2" d="M0 1.91l0 0.85c0,0.03 0.02,0.05 0.03,0.06 0.05,0.03 0.28,0.02 0.35,0.02 0.09,0 0.12,-0.03 0.12,-0.12l0 -0.78c0,-0.06 -0.03,-0.11 -0.09,-0.11l-0.31 0c-0.03,0 -0.05,0.01 -0.07,0.02 -0.01,0.01 -0.03,0.03 -0.03,0.06z"/>
  </g>
 </g>
</svg>
