<?xml version="1.0" encoding="UTF-8"?>
<!DOCTYPE svg PUBLIC "-//W3C//DTD SVG 1.1//EN" "http://www.w3.org/Graphics/SVG/1.1/DTD/svg11.dtd">
<!-- Creator: CorelDRAW 2019 (64-Bit) -->
<svg xmlns="http://www.w3.org/2000/svg" xml:space="preserve" width="67px" height="81px" version="1.1" style="shape-rendering:geometricPrecision; text-rendering:geometricPrecision; image-rendering:optimizeQuality; fill-rule:evenodd; clip-rule:evenodd"
viewBox="0 0 0.87 1.07"
 xmlns:xlink="http://www.w3.org/1999/xlink">
 <defs>
  <style type="text/css">
   <![CDATA[
    .str0 {stroke:#5B5B5B;stroke-width:0.03;stroke-miterlimit:2.61313}
    .fil1 {fill:none}
    .fil0 {fill:#5B5B5B}
   ]]>
  </style>
 </defs>
 <g id="PowerClip_x0020_Contents">
  <metadata id="CorelCorpID_0Corel-Layer"/>
  <g id="_2211810923536">
   <g>
    <path class="fil0" d="M0.7 0.3l-0.53 0c-0.01,0 -0.02,-0.01 -0.02,-0.02l0 -0.09c0,-0.02 0,-0.03 0.02,-0.03l0.53 0c0.02,0 0.03,0.01 0.03,0.03l0 0.09c0,0.01 -0.01,0.02 -0.03,0.02zm-0.6 -0.11c0,0.05 -0.01,0.11 0.02,0.14 0.01,0.01 0.03,0.02 0.05,0.02l0.53 0c0.05,0 0.08,-0.03 0.08,-0.08 0,-0.05 0,-0.11 -0.02,-0.13 -0.02,-0.02 -0.03,-0.03 -0.05,-0.03l-0.54 0c-0.04,0 -0.07,0.04 -0.07,0.08z"/>
    <path class="fil0" d="M0.15 0.76c0,0.03 0.04,0.05 0.06,0.08 -0.02,0.02 -0.06,0.05 -0.06,0.07 0,0.01 0.01,0.02 0.02,0.02 0.02,0 0.06,-0.05 0.07,-0.06 0.03,0.02 0.05,0.06 0.08,0.06 0.01,0 0.04,-0.01 0.01,-0.05 -0.02,-0.01 -0.04,-0.03 -0.05,-0.04 0.02,-0.03 0.06,-0.05 0.06,-0.08 0,-0.01 -0.02,-0.03 -0.04,-0.01 -0.01,0.01 -0.01,0.01 -0.02,0.02 -0.01,0.01 -0.03,0.02 -0.04,0.03 -0.01,-0.01 -0.05,-0.06 -0.07,-0.06 -0.01,0 -0.02,0.01 -0.02,0.02z"/>
    <path class="fil0" d="M0.22 0.47l0 0.05c-0.04,0 -0.07,-0.01 -0.07,0.03 0,0.03 0.04,0.02 0.07,0.02 0,0.04 -0.01,0.07 0.02,0.07 0.04,0 0.03,-0.04 0.03,-0.07 0.03,0 0.07,0.01 0.07,-0.02 0,-0.04 -0.04,-0.03 -0.07,-0.03 0,-0.01 0,-0.05 -0.01,-0.06 -0.01,-0.02 -0.04,-0.01 -0.04,0.01z"/>
    <path class="fil0" d="M0.56 0.57l0.14 0c0.04,0 0.04,-0.05 0,-0.05l-0.14 0c-0.03,0 -0.03,0.05 0,0.05z"/>
    <path class="fil0" d="M0.56 0.79l0.14 0c0.04,0 0.04,-0.05 0,-0.05l-0.14 0c-0.03,0 -0.03,0.05 0,0.05z"/>
    <path class="fil0" d="M0.56 0.93l0.14 0c0.04,0 0.04,-0.05 0,-0.05l-0.14 0c-0.03,0 -0.03,0.05 0,0.05z"/>
   </g>
   <rect class="fil1 str0" x="0.01" y="0.01" width="0.85" height="1.04" rx="0.04" ry="0.04"/>
  </g>
 </g>
</svg>
