<?xml version="1.0" encoding="UTF-8"?>
<!DOCTYPE svg PUBLIC "-//W3C//DTD SVG 1.1//EN" "http://www.w3.org/Graphics/SVG/1.1/DTD/svg11.dtd">
<!-- Creator: CorelDRAW 2019 (64-Bit) -->
<svg xmlns="http://www.w3.org/2000/svg" xml:space="preserve" width="904px" height="955px" version="1.1" style="shape-rendering:geometricPrecision; text-rendering:geometricPrecision; image-rendering:optimizeQuality; fill-rule:evenodd; clip-rule:evenodd"
viewBox="0 0 70.78 74.79"
 xmlns:xlink="http://www.w3.org/1999/xlink">
 <defs>
  <style type="text/css">
   <![CDATA[
    .fil0 {fill:#20222E}
   ]]>
  </style>
 </defs>
 <g id="Layer_x0020_1">
  <metadata id="CorelCorpID_0Corel-Layer"/>
  <g id="_2081735611680">
   <g>
    <path class="fil0" d="M45.8 3.26c0.22,1.84 -0.43,7.43 0.46,8.43 0.93,1.05 6.59,0.39 8.41,0.54 0.17,2.22 0.03,5.03 0.03,7.31 0,3.82 0.1,2.86 -1.48,5.7l-13.32 23.28c-1.67,2.83 -1.08,2.38 -1.15,6.13 -0.97,-0.62 -1.19,-0.53 -2.57,-0.52 -3.24,0.01 -7.19,-0.68 -7.24,1.51 -0.06,2.13 2.71,1.63 4.49,1.63 1.3,0 4.7,0.31 5.3,-0.52l0.03 2.19c-2.23,0 -4.47,0.01 -6.7,0 -1.01,0 -2.13,-0.16 -2.72,0.51 -0.58,0.67 -0.45,1.84 0.19,2.32 0.75,0.58 7.64,0.3 9.57,0.31 1.54,0.01 1.61,0.05 2.74,-0.62 1.46,-0.85 2.71,-1.58 4.13,-2.4 1.1,-0.64 3.37,-1.79 3.95,-2.58 1.22,-1.71 3.23,-5.91 4.78,-8.19l-0.03 23.29 -51.49 0 0.05 -68.32 42.57 0zm-3.28 47.05c0.67,-1.48 1.82,-3.29 2.67,-4.74 0.93,-1.59 1.77,-3.13 2.69,-4.7l10.75 -18.81c0.92,-1.63 1.77,-3.1 2.69,-4.71 1.22,-2.14 2.11,-2.67 4.49,-1.31 2.32,1.32 2.28,2.49 0.96,4.71 -0.92,1.55 -1.76,3.12 -2.68,4.7l-10.77 18.8c-1.75,3.15 -3.76,6.26 -5.3,9.29 -0.76,-0.28 -4.91,-2.75 -5.5,-3.23zm-42.43 -48.71c-0.2,4.42 -0.01,9.34 0,13.82l0 56.03c-0.01,3.56 0.36,3.26 3.78,3.26l48.98 0c2.49,0 4.94,0.7 4.95,-2.05l-0.01 -28.02c0,-1.62 -0.16,-1.7 0.57,-2.91 3.9,-6.41 7.64,-13.62 11.51,-20.12 0.99,-1.67 1.28,-3.54 0.36,-5.53 -1.46,-3.17 -7.97,-6.18 -11.01,-1.34 -0.22,0.35 -0.44,0.77 -0.62,1.1l-0.8 1.18c-0.02,-1.39 -0.01,-2.79 -0.01,-4.18 0.01,-4.56 -0.15,-2.62 -4.93,-7.92 -5.47,-6.08 -4.55,-4.8 -12.21,-4.8 -11.3,0 -22.93,-0.27 -34.19,0 -1.26,0.03 -2.54,0.02 -3.79,0.01 -1.67,-0.01 -2.22,0.01 -2.58,1.47z"/>
    <g>
     <path class="fil0" d="M9.65 9.19c-0.99,0.41 -1.45,1.64 -0.62,2.53 0.68,0.74 2.52,0.48 3.7,0.48 3.58,0 23.42,0.14 24.14,-0.13 0.93,-0.36 1.38,-1.78 0.53,-2.6 -0.7,-0.67 -2.63,-0.41 -3.71,-0.41 -3.54,0 -23.37,-0.15 -24.04,0.13z"/>
     <path class="fil0" d="M29.57 22.94l14.61 0c2.13,0 2.48,-3.14 -0.18,-3.14l-14.41 0c-2.63,0 -2.64,3.14 -0.02,3.14z"/>
     <path class="fil0" d="M29.02 36.99c-1.6,0.28 -1.79,2.17 -0.68,2.86 0.8,0.49 13.67,0.32 14.29,0.19 1.35,-0.28 1.6,-2.23 0.43,-2.88 -0.83,-0.46 -13.35,-0.29 -14.04,-0.17z"/>
     <path class="fil0" d="M13.92 40.85c-0.38,1.02 -2.22,2.09 -1.13,3.55 1.34,1.8 3.15,-0.82 3.2,-0.86 0.35,0.25 1.78,2.58 3.21,0.86 0.95,-1.15 -0.3,-2.48 -1.12,-3.37 0.42,-0.95 2.14,-2.08 1.19,-3.45 -0.3,-0.44 -1.02,-0.85 -1.81,-0.59 -0.38,0.12 -0.55,0.36 -0.77,0.6l-0.7 0.75c-0.54,-0.47 -1.75,-2.48 -3.12,-0.95 -1.12,1.26 0.27,2.5 1.05,3.46z"/>
     <path class="fil0" d="M28.5 24.81c-1,0.53 -1.21,1.9 -0.27,2.61 0.86,0.66 10.98,0.39 11.46,0.19 0.92,-0.4 1.26,-1.77 0.37,-2.57 -0.81,-0.73 -2.51,-0.43 -3.62,-0.43 -1.34,0 -7.19,-0.2 -7.94,0.2z"/>
     <path class="fil0" d="M28.46 41.97c-0.89,0.49 -1.1,1.97 -0.22,2.62 0.91,0.67 10.94,0.42 11.44,0.19 0.93,-0.42 1.2,-1.83 0.4,-2.57 -0.77,-0.73 -2.55,-0.41 -3.64,-0.41 -1.28,0 -7.31,-0.19 -7.98,0.17z"/>
     <path class="fil0" d="M15.48 23.13c-0.6,-0.28 -0.53,-0.49 -1.02,-0.86 -1.44,-1.07 -3.46,0.78 -1.93,2.45 3.36,3.68 3.32,3.03 6.33,-0.76 0.5,-0.63 1.56,-1.52 0.97,-2.74 -0.55,-1.12 -1.89,-0.9 -2.56,-0.22 -0.69,0.69 -1.06,1.48 -1.79,2.13z"/>
     <path class="fil0" d="M15.52 57.5c-0.65,-0.4 -1.32,-1.62 -2.66,-1.05 -1.04,0.44 -1.13,1.83 -0.3,2.62 3.42,3.27 2.74,3.61 6.29,-0.75 0.5,-0.61 1.57,-1.56 0.98,-2.73 -0.51,-1.02 -1.91,-0.98 -2.59,-0.25 -0.62,0.67 -1.17,1.55 -1.72,2.16z"/>
    </g>
   </g>
  </g>
 </g>
</svg>
