<?xml version="1.0" encoding="UTF-8"?>
<!DOCTYPE svg PUBLIC "-//W3C//DTD SVG 1.1//EN" "http://www.w3.org/Graphics/SVG/1.1/DTD/svg11.dtd">
<!-- Creator: CorelDRAW 2019 (64-Bit) -->
<svg xmlns="http://www.w3.org/2000/svg" xml:space="preserve" width="214px" height="248px" version="1.1" style="shape-rendering:geometricPrecision; text-rendering:geometricPrecision; image-rendering:optimizeQuality; fill-rule:evenodd; clip-rule:evenodd"
viewBox="0 0 2.82 3.26"
 xmlns:xlink="http://www.w3.org/1999/xlink">
 <defs>
  <style type="text/css">
   <![CDATA[
    .fil2 {fill:none}
    .fil1 {fill:#662F85}
    .fil0 {fill:#7400B8}
   ]]>
  </style>
    <clipPath id="id0">
     <path d="M2.51 2.9c-0.21,0.02 -0.36,0.02 -0.56,0.06 -0.12,0.03 -0.37,0.09 -0.48,0.14l0 -1.49c0.21,-0.1 0.87,-0.23 1.04,-0.19 0,0.01 0.01,0.01 0.01,0.03 0,0.16 0.01,1.41 -0.01,1.45zm-2.21 -0.03l0 -1.42c0,-0.02 0,-0.02 0.01,-0.03 0.09,-0.03 0.46,0.03 0.55,0.05 0.09,0.02 0.17,0.04 0.26,0.06 0.06,0.02 0.18,0.05 0.23,0.08l0 1.48 -0.24 -0.07c-0.18,-0.04 -0.5,-0.11 -0.68,-0.11 -0.05,0 -0.13,0.01 -0.13,-0.04zm-0.12 -1.34c-0.09,0 -0.18,0.11 -0.18,0.21l0 1.3c0,0.11 0.12,0.22 0.26,0.22l2.3 0c0.14,0 0.26,-0.11 0.26,-0.23l0 -1.29c0,-0.06 -0.03,-0.11 -0.06,-0.14 -0.02,-0.03 -0.07,-0.07 -0.12,-0.07 0,-0.08 0,-0.12 -0.03,-0.17 -0.04,-0.07 -0.09,-0.07 -0.15,-0.07 -0.11,0 -0.2,0.01 -0.3,0.02 -0.18,0.02 -0.46,0.08 -0.63,0.15 -0.14,0.06 -0.1,0.05 -0.23,0 -0.27,-0.1 -0.69,-0.17 -0.98,-0.17 -0.14,0 -0.14,0.15 -0.14,0.24z"/>
    </clipPath>
    <clipPath id="id1">
     <path d="M0.35 0.94c0,-0.1 0.12,-0.1 0.12,0l0 0.06 -0.12 0 0 -0.06zm0.54 -0.24c-0.05,0 -0.14,-0.07 0.03,-0.15 0.3,-0.14 0.75,-0.13 1.04,0.04 0.05,0.03 0.04,0.11 -0.02,0.11 -0.03,0 -0.35,-0.23 -0.83,-0.1 -0.04,0.01 -0.08,0.03 -0.11,0.04 -0.03,0.01 -0.1,0.06 -0.11,0.06zm-0.66 -0.19c0,0.06 0.03,0.09 0.12,0.1l0 0.15c-0.06,0 -0.12,0.08 -0.12,0.14 0,0.25 -0.04,0.21 0.3,0.21 0.08,0 0.06,-0.1 0.06,-0.21 0,-0.06 -0.06,-0.14 -0.12,-0.14l0 -0.11 0.27 0.09c-0.02,0.04 -0.09,0.27 -0.09,0.31 0,0.05 0.11,0.06 0.16,0.06l0.6 0.1 0.59 -0.09c0.07,-0.02 0.17,-0.01 0.17,-0.08 0,-0.03 -0.08,-0.27 -0.09,-0.3 0.04,-0.01 0.09,-0.03 0.13,-0.04l0.27 -0.09c0.04,-0.02 0.1,-0.03 0.1,-0.08 0,-0.06 -0.06,-0.07 -0.12,-0.09 -0.05,-0.03 -0.1,-0.05 -0.15,-0.07l-0.45 -0.19c-0.07,-0.02 -0.41,-0.18 -0.46,-0.18 -0.02,0 -0.12,0.05 -0.15,0.06 -0.31,0.12 -0.65,0.28 -0.96,0.4 -0.02,0.01 -0.06,0.03 -0.06,0.05z"/>
    </clipPath>
    <clipPath id="id2">
     <path d="M0.4 2.57c0,0.07 0.11,0.06 0.17,0.07 0.08,0.01 0.16,0.01 0.22,0.03l0.3 0.07c0.04,0 0.06,0.02 0.11,0.02 0.02,0 0.05,-0.05 0.04,-0.08 -0.02,-0.06 -0.21,-0.09 -0.3,-0.11 -0.06,-0.01 -0.16,-0.03 -0.23,-0.04 -0.08,-0.01 -0.17,-0.02 -0.26,-0.02 -0.02,0 -0.05,0.03 -0.05,0.06z"/>
    </clipPath>
    <clipPath id="id3">
     <path d="M1.62 2.53l0.4 -0.09c0.07,-0.01 0.14,-0.02 0.21,-0.03 0.07,-0.01 0.18,0.01 0.18,-0.07 0,-0.04 -0.02,-0.06 -0.06,-0.06 -0.17,0 -0.53,0.07 -0.69,0.12 -0.04,0.01 -0.07,0.01 -0.08,0.05 -0.02,0.03 0.01,0.08 0.04,0.08z"/>
    </clipPath>
    <clipPath id="id4">
     <path d="M1.62 2.31c0.05,0 0.15,-0.04 0.21,-0.05 0.16,-0.04 0.25,-0.05 0.41,-0.07 0.07,-0.01 0.17,0.01 0.17,-0.07 0,-0.1 -0.15,-0.05 -0.29,-0.04 -0.14,0.02 -0.32,0.06 -0.45,0.1 -0.04,0.01 -0.08,0.01 -0.09,0.05 -0.02,0.03 0.01,0.08 0.04,0.08z"/>
    </clipPath>
    <clipPath id="id5">
     <path d="M1.62 2.76c0.04,0 0.15,-0.04 0.2,-0.05 0.07,-0.02 0.13,-0.03 0.2,-0.04 0.07,-0.02 0.14,-0.02 0.22,-0.03 0.07,-0.01 0.17,0 0.17,-0.07 0,-0.1 -0.15,-0.05 -0.29,-0.04 -0.14,0.01 -0.33,0.06 -0.45,0.1 -0.04,0.01 -0.08,0.01 -0.09,0.05 -0.02,0.03 0.01,0.08 0.04,0.08z"/>
    </clipPath>
    <clipPath id="id6">
     <path d="M0.4 2.12c0,0.08 0.11,0.06 0.17,0.07 0.08,0.01 0.14,0.02 0.22,0.03l0.29 0.06c0.05,0.02 0.06,0.03 0.12,0.03 0.02,0 0.11,-0.09 -0.04,-0.13 -0.08,-0.02 -0.14,-0.04 -0.22,-0.05 -0.07,-0.02 -0.16,-0.03 -0.23,-0.04 -0.08,-0.02 -0.17,-0.03 -0.26,-0.03 -0.02,0 -0.05,0.03 -0.05,0.06z"/>
    </clipPath>
    <clipPath id="id7">
     <path d="M0.4 2.34c0,0.08 0.1,0.06 0.18,0.07 0.2,0.03 0.3,0.04 0.5,0.09 0.03,0.01 0.08,0.03 0.1,0.03 0.06,0 0.12,-0.09 -0.01,-0.13 -0.2,-0.05 -0.5,-0.12 -0.71,-0.12 -0.03,0 -0.06,0.02 -0.06,0.06z"/>
    </clipPath>
    <clipPath id="id8">
     <path d="M0.4 1.8c0,0.08 0.12,0.07 0.21,0.08 0.08,0 0.19,0.04 0.23,0.01 0.03,-0.03 0.02,-0.07 -0.01,-0.1 -0.04,-0.02 -0.32,-0.04 -0.37,-0.04 -0.03,0 -0.06,0.02 -0.06,0.05z"/>
    </clipPath>
    <clipPath id="id9">
     <path d="M0.4 1.62c0,0.06 0.05,0.06 0.1,0.06 0.09,0.02 0.2,0.04 0.2,-0.04 0,-0.08 -0.15,-0.08 -0.23,-0.08 -0.03,0 -0.07,0.01 -0.07,0.06z"/>
    </clipPath>
 </defs>
 <g id="Layer_x0020_1">
  <metadata id="CorelCorpID_0Corel-Layer"/>
  <g id="_2083038710672">
   <path class="fil0" d="M2.51 2.9c-0.21,0.02 -0.36,0.02 -0.56,0.06 -0.12,0.03 -0.37,0.09 -0.48,0.14l0 -1.49c0.21,-0.1 0.87,-0.23 1.04,-0.19 0,0.01 0.01,0.01 0.01,0.03 0,0.16 0.01,1.41 -0.01,1.45zm-2.21 -0.03l0 -1.42c0,-0.02 0,-0.02 0.01,-0.03 0.09,-0.03 0.46,0.03 0.55,0.05 0.09,0.02 0.17,0.04 0.26,0.06 0.06,0.02 0.18,0.05 0.23,0.08l0 1.48 -0.24 -0.07c-0.18,-0.04 -0.5,-0.11 -0.68,-0.11 -0.05,0 -0.13,0.01 -0.13,-0.04zm-0.12 -1.34c-0.09,0 -0.18,0.11 -0.18,0.21l0 1.3c0,0.11 0.12,0.22 0.26,0.22l2.3 0c0.14,0 0.26,-0.11 0.26,-0.23l0 -1.29c0,-0.06 -0.03,-0.11 -0.06,-0.14 -0.02,-0.03 -0.07,-0.07 -0.12,-0.07 0,-0.08 0,-0.12 -0.03,-0.17 -0.04,-0.07 -0.09,-0.07 -0.15,-0.07 -0.11,0 -0.2,0.01 -0.3,0.02 -0.18,0.02 -0.46,0.08 -0.63,0.15 -0.14,0.06 -0.1,0.05 -0.23,0 -0.27,-0.1 -0.69,-0.17 -0.98,-0.17 -0.14,0 -0.14,0.15 -0.14,0.24z"/>
   <g style="clip-path:url(#id0)">
    <g>
     <path id="1" class="fil1" d="M0.87 43.5c0,-0.01 0.01,-0.11 0.01,-0.13 0.02,-0.12 0.09,-0.2 0.15,-0.29 0.03,-0.03 0.13,-0.1 0.17,-0.12 0.12,-0.05 0.13,-0.04 0.24,-0.06 0.07,-0.01 0.18,0.03 0.24,0.05 0.08,0.03 0.12,0.07 0.18,0.12 0.02,0.01 0.02,0.02 0.03,0.03 0.08,0.08 0.1,0.14 0.13,0.25 0.01,0.03 0.02,0.08 0.02,0.12 0.01,0.07 -0.02,0.18 -0.05,0.25 -0.03,0.09 -0.08,0.15 -0.15,0.21 -0.08,0.07 -0.14,0.09 -0.24,0.12 -0.08,0.03 -0.18,0.03 -0.26,0.01 -0.12,-0.02 -0.21,-0.08 -0.29,-0.15l-0.07 -0.08c-0.06,-0.08 -0.1,-0.19 -0.1,-0.29 -0.01,-0.03 -0.01,-0.02 -0.01,-0.04zm0.55 -0.81l0.07 0c0.32,0.01 0.62,0.22 0.73,0.54 0.06,0.19 0.05,0.38 -0.02,0.56 -0.02,0.06 -0.07,0.15 -0.12,0.2 -0.02,0.03 -0.04,0.06 -0.07,0.09l-0.09 0.07c0.01,0.01 0.03,0.01 0.05,0.02 0.02,0.01 0.03,0.01 0.05,0.02 0.03,0.02 0.06,0.03 0.09,0.05 0.02,0.01 0.03,0.01 0.05,0.02 0.01,0.01 0.03,0.02 0.04,0.03 0.38,0.25 0.64,0.66 0.64,1.17l0 0 -0.21 0c0,-0.22 -0.08,-0.49 -0.21,-0.66 -0.03,-0.04 -0.07,-0.1 -0.1,-0.13l-0.11 -0.1c-0.07,-0.06 -0.19,-0.14 -0.27,-0.17 -0.07,-0.04 -0.14,-0.06 -0.22,-0.08 -0.06,-0.01 -0.2,-0.03 -0.26,-0.03l-0.14 0.01c-0.05,0.01 -0.09,0.01 -0.13,0.02 -0.16,0.04 -0.37,0.13 -0.48,0.25 -0.12,0.11 -0.1,0.08 -0.21,0.23 -0.13,0.17 -0.22,0.44 -0.22,0.66l-0.21 0 0 0c0,-0.51 0.26,-0.93 0.64,-1.17l0.09 -0.05c0.09,-0.05 0.14,-0.06 0.19,-0.09 0,-0.01 -0.03,-0.03 -0.04,-0.04 -0.05,-0.05 -0.07,-0.06 -0.12,-0.12 -0.05,-0.06 -0.09,-0.14 -0.12,-0.21 -0.07,-0.18 -0.07,-0.37 -0.01,-0.55 0.05,-0.16 0.15,-0.29 0.27,-0.38 0.14,-0.11 0.3,-0.16 0.45,-0.16z"/>
    </g>
   </g>
   <path class="fil2" d="M2.51 2.9c-0.21,0.02 -0.36,0.02 -0.56,0.06 -0.12,0.03 -0.37,0.09 -0.48,0.14l0 -1.49c0.21,-0.1 0.87,-0.23 1.04,-0.19 0,0.01 0.01,0.01 0.01,0.03 0,0.16 0.01,1.41 -0.01,1.45zm-2.21 -0.03l0 -1.42c0,-0.02 0,-0.02 0.01,-0.03 0.09,-0.03 0.46,0.03 0.55,0.05 0.09,0.02 0.17,0.04 0.26,0.06 0.06,0.02 0.18,0.05 0.23,0.08l0 1.48 -0.24 -0.07c-0.18,-0.04 -0.5,-0.11 -0.68,-0.11 -0.05,0 -0.13,0.01 -0.13,-0.04zm-0.12 -1.34c-0.09,0 -0.18,0.11 -0.18,0.21l0 1.3c0,0.11 0.12,0.22 0.26,0.22l2.3 0c0.14,0 0.26,-0.11 0.26,-0.23l0 -1.29c0,-0.06 -0.03,-0.11 -0.06,-0.14 -0.02,-0.03 -0.07,-0.07 -0.12,-0.07 0,-0.08 0,-0.12 -0.03,-0.17 -0.04,-0.07 -0.09,-0.07 -0.15,-0.07 -0.11,0 -0.2,0.01 -0.3,0.02 -0.18,0.02 -0.46,0.08 -0.63,0.15 -0.14,0.06 -0.1,0.05 -0.23,0 -0.27,-0.1 -0.69,-0.17 -0.98,-0.17 -0.14,0 -0.14,0.15 -0.14,0.24z"/>
   <path class="fil0" d="M0.35 0.94c0,-0.1 0.12,-0.1 0.12,0l0 0.06 -0.12 0 0 -0.06zm0.54 -0.24c-0.05,0 -0.14,-0.07 0.03,-0.15 0.3,-0.14 0.75,-0.13 1.04,0.04 0.05,0.03 0.04,0.11 -0.02,0.11 -0.03,0 -0.35,-0.23 -0.83,-0.1 -0.04,0.01 -0.08,0.03 -0.11,0.04 -0.03,0.01 -0.1,0.06 -0.11,0.06zm-0.66 -0.19c0,0.06 0.03,0.09 0.12,0.1l0 0.15c-0.06,0 -0.12,0.08 -0.12,0.14 0,0.25 -0.04,0.21 0.3,0.21 0.08,0 0.06,-0.1 0.06,-0.21 0,-0.06 -0.06,-0.14 -0.12,-0.14l0 -0.11 0.27 0.09c-0.02,0.04 -0.09,0.27 -0.09,0.31 0,0.05 0.11,0.06 0.16,0.06l0.6 0.1 0.59 -0.09c0.07,-0.02 0.17,-0.01 0.17,-0.08 0,-0.03 -0.08,-0.27 -0.09,-0.3 0.04,-0.01 0.09,-0.03 0.13,-0.04l0.27 -0.09c0.04,-0.02 0.1,-0.03 0.1,-0.08 0,-0.06 -0.06,-0.07 -0.12,-0.09 -0.05,-0.03 -0.1,-0.05 -0.15,-0.07l-0.45 -0.19c-0.07,-0.02 -0.41,-0.18 -0.46,-0.18 -0.02,0 -0.12,0.05 -0.15,0.06 -0.31,0.12 -0.65,0.28 -0.96,0.4 -0.02,0.01 -0.06,0.03 -0.06,0.05z"/>
   <g style="clip-path:url(#id1)">
    <g>
     <path id="1" class="fil1" d="M0.87 43.5c0,-0.01 0.01,-0.11 0.01,-0.13 0.02,-0.12 0.09,-0.2 0.15,-0.29 0.03,-0.03 0.13,-0.1 0.17,-0.12 0.12,-0.05 0.13,-0.04 0.24,-0.06 0.07,-0.01 0.18,0.03 0.24,0.05 0.08,0.03 0.12,0.07 0.18,0.12 0.02,0.01 0.02,0.02 0.03,0.03 0.08,0.08 0.1,0.14 0.13,0.25 0.01,0.03 0.02,0.08 0.02,0.12 0.01,0.07 -0.02,0.18 -0.05,0.25 -0.03,0.09 -0.08,0.15 -0.15,0.21 -0.08,0.07 -0.14,0.09 -0.24,0.12 -0.08,0.03 -0.18,0.03 -0.26,0.01 -0.12,-0.02 -0.21,-0.08 -0.29,-0.15l-0.07 -0.08c-0.06,-0.08 -0.1,-0.19 -0.1,-0.29 -0.01,-0.03 -0.01,-0.02 -0.01,-0.04zm0.55 -0.81l0.07 0c0.32,0.01 0.62,0.22 0.73,0.54 0.06,0.19 0.05,0.38 -0.02,0.56 -0.02,0.06 -0.07,0.15 -0.12,0.2 -0.02,0.03 -0.04,0.06 -0.07,0.09l-0.09 0.07c0.01,0.01 0.03,0.01 0.05,0.02 0.02,0.01 0.03,0.01 0.05,0.02 0.03,0.02 0.06,0.03 0.09,0.05 0.02,0.01 0.03,0.01 0.05,0.02 0.01,0.01 0.03,0.02 0.04,0.03 0.38,0.25 0.64,0.66 0.64,1.17l0 0 -0.21 0c0,-0.22 -0.08,-0.49 -0.21,-0.66 -0.03,-0.04 -0.07,-0.1 -0.1,-0.13l-0.11 -0.1c-0.07,-0.06 -0.19,-0.14 -0.27,-0.17 -0.07,-0.04 -0.14,-0.06 -0.22,-0.08 -0.06,-0.01 -0.2,-0.03 -0.26,-0.03l-0.14 0.01c-0.05,0.01 -0.09,0.01 -0.13,0.02 -0.16,0.04 -0.37,0.13 -0.48,0.25 -0.12,0.11 -0.1,0.08 -0.21,0.23 -0.13,0.17 -0.22,0.44 -0.22,0.66l-0.21 0 0 0c0,-0.51 0.26,-0.93 0.64,-1.17l0.09 -0.05c0.09,-0.05 0.14,-0.06 0.19,-0.09 0,-0.01 -0.03,-0.03 -0.04,-0.04 -0.05,-0.05 -0.07,-0.06 -0.12,-0.12 -0.05,-0.06 -0.09,-0.14 -0.12,-0.21 -0.07,-0.18 -0.07,-0.37 -0.01,-0.55 0.05,-0.16 0.15,-0.29 0.27,-0.38 0.14,-0.11 0.3,-0.16 0.45,-0.16z"/>
    </g>
   </g>
   <path class="fil2" d="M0.35 0.94c0,-0.1 0.12,-0.1 0.12,0l0 0.06 -0.12 0 0 -0.06zm0.54 -0.24c-0.05,0 -0.14,-0.07 0.03,-0.15 0.3,-0.14 0.75,-0.13 1.04,0.04 0.05,0.03 0.04,0.11 -0.02,0.11 -0.03,0 -0.35,-0.23 -0.83,-0.1 -0.04,0.01 -0.08,0.03 -0.11,0.04 -0.03,0.01 -0.1,0.06 -0.11,0.06zm-0.66 -0.19c0,0.06 0.03,0.09 0.12,0.1l0 0.15c-0.06,0 -0.12,0.08 -0.12,0.14 0,0.25 -0.04,0.21 0.3,0.21 0.08,0 0.06,-0.1 0.06,-0.21 0,-0.06 -0.06,-0.14 -0.12,-0.14l0 -0.11 0.27 0.09c-0.02,0.04 -0.09,0.27 -0.09,0.31 0,0.05 0.11,0.06 0.16,0.06l0.6 0.1 0.59 -0.09c0.07,-0.02 0.17,-0.01 0.17,-0.08 0,-0.03 -0.08,-0.27 -0.09,-0.3 0.04,-0.01 0.09,-0.03 0.13,-0.04l0.27 -0.09c0.04,-0.02 0.1,-0.03 0.1,-0.08 0,-0.06 -0.06,-0.07 -0.12,-0.09 -0.05,-0.03 -0.1,-0.05 -0.15,-0.07l-0.45 -0.19c-0.07,-0.02 -0.41,-0.18 -0.46,-0.18 -0.02,0 -0.12,0.05 -0.15,0.06 -0.31,0.12 -0.65,0.28 -0.96,0.4 -0.02,0.01 -0.06,0.03 -0.06,0.05z"/>
   <path class="fil0" d="M0.4 2.57c0,0.07 0.11,0.06 0.17,0.07 0.08,0.01 0.16,0.01 0.22,0.03l0.3 0.07c0.04,0 0.06,0.02 0.11,0.02 0.02,0 0.05,-0.05 0.04,-0.08 -0.02,-0.06 -0.21,-0.09 -0.3,-0.11 -0.06,-0.01 -0.16,-0.03 -0.23,-0.04 -0.08,-0.01 -0.17,-0.02 -0.26,-0.02 -0.02,0 -0.05,0.03 -0.05,0.06z"/>
   <g style="clip-path:url(#id2)">
    <g>
     <path id="1" class="fil1" d="M0.87 43.5c0,-0.01 0.01,-0.11 0.01,-0.13 0.02,-0.12 0.09,-0.2 0.15,-0.29 0.03,-0.03 0.13,-0.1 0.17,-0.12 0.12,-0.05 0.13,-0.04 0.24,-0.06 0.07,-0.01 0.18,0.03 0.24,0.05 0.08,0.03 0.12,0.07 0.18,0.12 0.02,0.01 0.02,0.02 0.03,0.03 0.08,0.08 0.1,0.14 0.13,0.25 0.01,0.03 0.02,0.08 0.02,0.12 0.01,0.07 -0.02,0.18 -0.05,0.25 -0.03,0.09 -0.08,0.15 -0.15,0.21 -0.08,0.07 -0.14,0.09 -0.24,0.12 -0.08,0.03 -0.18,0.03 -0.26,0.01 -0.12,-0.02 -0.21,-0.08 -0.29,-0.15l-0.07 -0.08c-0.06,-0.08 -0.1,-0.19 -0.1,-0.29 -0.01,-0.03 -0.01,-0.02 -0.01,-0.04zm0.55 -0.81l0.07 0c0.32,0.01 0.62,0.22 0.73,0.54 0.06,0.19 0.05,0.38 -0.02,0.56 -0.02,0.06 -0.07,0.15 -0.12,0.2 -0.02,0.03 -0.04,0.06 -0.07,0.09l-0.09 0.07c0.01,0.01 0.03,0.01 0.05,0.02 0.02,0.01 0.03,0.01 0.05,0.02 0.03,0.02 0.06,0.03 0.09,0.05 0.02,0.01 0.03,0.01 0.05,0.02 0.01,0.01 0.03,0.02 0.04,0.03 0.38,0.25 0.64,0.66 0.64,1.17l0 0 -0.21 0c0,-0.22 -0.08,-0.49 -0.21,-0.66 -0.03,-0.04 -0.07,-0.1 -0.1,-0.13l-0.11 -0.1c-0.07,-0.06 -0.19,-0.14 -0.27,-0.17 -0.07,-0.04 -0.14,-0.06 -0.22,-0.08 -0.06,-0.01 -0.2,-0.03 -0.26,-0.03l-0.14 0.01c-0.05,0.01 -0.09,0.01 -0.13,0.02 -0.16,0.04 -0.37,0.13 -0.48,0.25 -0.12,0.11 -0.1,0.08 -0.21,0.23 -0.13,0.17 -0.22,0.44 -0.22,0.66l-0.21 0 0 0c0,-0.51 0.26,-0.93 0.64,-1.17l0.09 -0.05c0.09,-0.05 0.14,-0.06 0.19,-0.09 0,-0.01 -0.03,-0.03 -0.04,-0.04 -0.05,-0.05 -0.07,-0.06 -0.12,-0.12 -0.05,-0.06 -0.09,-0.14 -0.12,-0.21 -0.07,-0.18 -0.07,-0.37 -0.01,-0.55 0.05,-0.16 0.15,-0.29 0.27,-0.38 0.14,-0.11 0.3,-0.16 0.45,-0.16z"/>
    </g>
   </g>
   <path class="fil2" d="M0.4 2.57c0,0.07 0.11,0.06 0.17,0.07 0.08,0.01 0.16,0.01 0.22,0.03l0.3 0.07c0.04,0 0.06,0.02 0.11,0.02 0.02,0 0.05,-0.05 0.04,-0.08 -0.02,-0.06 -0.21,-0.09 -0.3,-0.11 -0.06,-0.01 -0.16,-0.03 -0.23,-0.04 -0.08,-0.01 -0.17,-0.02 -0.26,-0.02 -0.02,0 -0.05,0.03 -0.05,0.06z"/>
   <path class="fil0" d="M1.62 2.53l0.4 -0.09c0.07,-0.01 0.14,-0.02 0.21,-0.03 0.07,-0.01 0.18,0.01 0.18,-0.07 0,-0.04 -0.02,-0.06 -0.06,-0.06 -0.17,0 -0.53,0.07 -0.69,0.12 -0.04,0.01 -0.07,0.01 -0.08,0.05 -0.02,0.03 0.01,0.08 0.04,0.08z"/>
   <g style="clip-path:url(#id3)">
    <g>
     <path id="1" class="fil1" d="M0.87 43.5c0,-0.01 0.01,-0.11 0.01,-0.13 0.02,-0.12 0.09,-0.2 0.15,-0.29 0.03,-0.03 0.13,-0.1 0.17,-0.12 0.12,-0.05 0.13,-0.04 0.24,-0.06 0.07,-0.01 0.18,0.03 0.24,0.05 0.08,0.03 0.12,0.07 0.18,0.12 0.02,0.01 0.02,0.02 0.03,0.03 0.08,0.08 0.1,0.14 0.13,0.25 0.01,0.03 0.02,0.08 0.02,0.12 0.01,0.07 -0.02,0.18 -0.05,0.25 -0.03,0.09 -0.08,0.15 -0.15,0.21 -0.08,0.07 -0.14,0.09 -0.24,0.12 -0.08,0.03 -0.18,0.03 -0.26,0.01 -0.12,-0.02 -0.21,-0.08 -0.29,-0.15l-0.07 -0.08c-0.06,-0.08 -0.1,-0.19 -0.1,-0.29 -0.01,-0.03 -0.01,-0.02 -0.01,-0.04zm0.55 -0.81l0.07 0c0.32,0.01 0.62,0.22 0.73,0.54 0.06,0.19 0.05,0.38 -0.02,0.56 -0.02,0.06 -0.07,0.15 -0.12,0.2 -0.02,0.03 -0.04,0.06 -0.07,0.09l-0.09 0.07c0.01,0.01 0.03,0.01 0.05,0.02 0.02,0.01 0.03,0.01 0.05,0.02 0.03,0.02 0.06,0.03 0.09,0.05 0.02,0.01 0.03,0.01 0.05,0.02 0.01,0.01 0.03,0.02 0.04,0.03 0.38,0.25 0.64,0.66 0.64,1.17l0 0 -0.21 0c0,-0.22 -0.08,-0.49 -0.21,-0.66 -0.03,-0.04 -0.07,-0.1 -0.1,-0.13l-0.11 -0.1c-0.07,-0.06 -0.19,-0.14 -0.27,-0.17 -0.07,-0.04 -0.14,-0.06 -0.22,-0.08 -0.06,-0.01 -0.2,-0.03 -0.26,-0.03l-0.14 0.01c-0.05,0.01 -0.09,0.01 -0.13,0.02 -0.16,0.04 -0.37,0.13 -0.48,0.25 -0.12,0.11 -0.1,0.08 -0.21,0.23 -0.13,0.17 -0.22,0.44 -0.22,0.66l-0.21 0 0 0c0,-0.51 0.26,-0.93 0.64,-1.17l0.09 -0.05c0.09,-0.05 0.14,-0.06 0.19,-0.09 0,-0.01 -0.03,-0.03 -0.04,-0.04 -0.05,-0.05 -0.07,-0.06 -0.12,-0.12 -0.05,-0.06 -0.09,-0.14 -0.12,-0.21 -0.07,-0.18 -0.07,-0.37 -0.01,-0.55 0.05,-0.16 0.15,-0.29 0.27,-0.38 0.14,-0.11 0.3,-0.16 0.45,-0.16z"/>
    </g>
   </g>
   <path class="fil2" d="M1.62 2.53l0.4 -0.09c0.07,-0.01 0.14,-0.02 0.21,-0.03 0.07,-0.01 0.18,0.01 0.18,-0.07 0,-0.04 -0.02,-0.06 -0.06,-0.06 -0.17,0 -0.53,0.07 -0.69,0.12 -0.04,0.01 -0.07,0.01 -0.08,0.05 -0.02,0.03 0.01,0.08 0.04,0.08z"/>
   <path class="fil0" d="M1.62 2.31c0.05,0 0.15,-0.04 0.21,-0.05 0.16,-0.04 0.25,-0.05 0.41,-0.07 0.07,-0.01 0.17,0.01 0.17,-0.07 0,-0.1 -0.15,-0.05 -0.29,-0.04 -0.14,0.02 -0.32,0.06 -0.45,0.1 -0.04,0.01 -0.08,0.01 -0.09,0.05 -0.02,0.03 0.01,0.08 0.04,0.08z"/>
   <g style="clip-path:url(#id4)">
    <g>
     <path id="1" class="fil1" d="M0.87 43.5c0,-0.01 0.01,-0.11 0.01,-0.13 0.02,-0.12 0.09,-0.2 0.15,-0.29 0.03,-0.03 0.13,-0.1 0.17,-0.12 0.12,-0.05 0.13,-0.04 0.24,-0.06 0.07,-0.01 0.18,0.03 0.24,0.05 0.08,0.03 0.12,0.07 0.18,0.12 0.02,0.01 0.02,0.02 0.03,0.03 0.08,0.08 0.1,0.14 0.13,0.25 0.01,0.03 0.02,0.08 0.02,0.12 0.01,0.07 -0.02,0.18 -0.05,0.25 -0.03,0.09 -0.08,0.15 -0.15,0.21 -0.08,0.07 -0.14,0.09 -0.24,0.12 -0.08,0.03 -0.18,0.03 -0.26,0.01 -0.12,-0.02 -0.21,-0.08 -0.29,-0.15l-0.07 -0.08c-0.06,-0.08 -0.1,-0.19 -0.1,-0.29 -0.01,-0.03 -0.01,-0.02 -0.01,-0.04zm0.55 -0.81l0.07 0c0.32,0.01 0.62,0.22 0.73,0.54 0.06,0.19 0.05,0.38 -0.02,0.56 -0.02,0.06 -0.07,0.15 -0.12,0.2 -0.02,0.03 -0.04,0.06 -0.07,0.09l-0.09 0.07c0.01,0.01 0.03,0.01 0.05,0.02 0.02,0.01 0.03,0.01 0.05,0.02 0.03,0.02 0.06,0.03 0.09,0.05 0.02,0.01 0.03,0.01 0.05,0.02 0.01,0.01 0.03,0.02 0.04,0.03 0.38,0.25 0.64,0.66 0.64,1.17l0 0 -0.21 0c0,-0.22 -0.08,-0.49 -0.21,-0.66 -0.03,-0.04 -0.07,-0.1 -0.1,-0.13l-0.11 -0.1c-0.07,-0.06 -0.19,-0.14 -0.27,-0.17 -0.07,-0.04 -0.14,-0.06 -0.22,-0.08 -0.06,-0.01 -0.2,-0.03 -0.26,-0.03l-0.14 0.01c-0.05,0.01 -0.09,0.01 -0.13,0.02 -0.16,0.04 -0.37,0.13 -0.48,0.25 -0.12,0.11 -0.1,0.08 -0.21,0.23 -0.13,0.17 -0.22,0.44 -0.22,0.66l-0.21 0 0 0c0,-0.51 0.26,-0.93 0.64,-1.17l0.09 -0.05c0.09,-0.05 0.14,-0.06 0.19,-0.09 0,-0.01 -0.03,-0.03 -0.04,-0.04 -0.05,-0.05 -0.07,-0.06 -0.12,-0.12 -0.05,-0.06 -0.09,-0.14 -0.12,-0.21 -0.07,-0.18 -0.07,-0.37 -0.01,-0.55 0.05,-0.16 0.15,-0.29 0.27,-0.38 0.14,-0.11 0.3,-0.16 0.45,-0.16z"/>
    </g>
   </g>
   <path class="fil2" d="M1.62 2.31c0.05,0 0.15,-0.04 0.21,-0.05 0.16,-0.04 0.25,-0.05 0.41,-0.07 0.07,-0.01 0.17,0.01 0.17,-0.07 0,-0.1 -0.15,-0.05 -0.29,-0.04 -0.14,0.02 -0.32,0.06 -0.45,0.1 -0.04,0.01 -0.08,0.01 -0.09,0.05 -0.02,0.03 0.01,0.08 0.04,0.08z"/>
   <path class="fil0" d="M1.62 2.76c0.04,0 0.15,-0.04 0.2,-0.05 0.07,-0.02 0.13,-0.03 0.2,-0.04 0.07,-0.02 0.14,-0.02 0.22,-0.03 0.07,-0.01 0.17,0 0.17,-0.07 0,-0.1 -0.15,-0.05 -0.29,-0.04 -0.14,0.01 -0.33,0.06 -0.45,0.1 -0.04,0.01 -0.08,0.01 -0.09,0.05 -0.02,0.03 0.01,0.08 0.04,0.08z"/>
   <g style="clip-path:url(#id5)">
    <g>
     <path id="1" class="fil1" d="M0.87 43.5c0,-0.01 0.01,-0.11 0.01,-0.13 0.02,-0.12 0.09,-0.2 0.15,-0.29 0.03,-0.03 0.13,-0.1 0.17,-0.12 0.12,-0.05 0.13,-0.04 0.24,-0.06 0.07,-0.01 0.18,0.03 0.24,0.05 0.08,0.03 0.12,0.07 0.18,0.12 0.02,0.01 0.02,0.02 0.03,0.03 0.08,0.08 0.1,0.14 0.13,0.25 0.01,0.03 0.02,0.08 0.02,0.12 0.01,0.07 -0.02,0.18 -0.05,0.25 -0.03,0.09 -0.08,0.15 -0.15,0.21 -0.08,0.07 -0.14,0.09 -0.24,0.12 -0.08,0.03 -0.18,0.03 -0.26,0.01 -0.12,-0.02 -0.21,-0.08 -0.29,-0.15l-0.07 -0.08c-0.06,-0.08 -0.1,-0.19 -0.1,-0.29 -0.01,-0.03 -0.01,-0.02 -0.01,-0.04zm0.55 -0.81l0.07 0c0.32,0.01 0.62,0.22 0.73,0.54 0.06,0.19 0.05,0.38 -0.02,0.56 -0.02,0.06 -0.07,0.15 -0.12,0.2 -0.02,0.03 -0.04,0.06 -0.07,0.09l-0.09 0.07c0.01,0.01 0.03,0.01 0.05,0.02 0.02,0.01 0.03,0.01 0.05,0.02 0.03,0.02 0.06,0.03 0.09,0.05 0.02,0.01 0.03,0.01 0.05,0.02 0.01,0.01 0.03,0.02 0.04,0.03 0.38,0.25 0.64,0.66 0.64,1.17l0 0 -0.21 0c0,-0.22 -0.08,-0.49 -0.21,-0.66 -0.03,-0.04 -0.07,-0.1 -0.1,-0.13l-0.11 -0.1c-0.07,-0.06 -0.19,-0.14 -0.27,-0.17 -0.07,-0.04 -0.14,-0.06 -0.22,-0.08 -0.06,-0.01 -0.2,-0.03 -0.26,-0.03l-0.14 0.01c-0.05,0.01 -0.09,0.01 -0.13,0.02 -0.16,0.04 -0.37,0.13 -0.48,0.25 -0.12,0.11 -0.1,0.08 -0.21,0.23 -0.13,0.17 -0.22,0.44 -0.22,0.66l-0.21 0 0 0c0,-0.51 0.26,-0.93 0.64,-1.17l0.09 -0.05c0.09,-0.05 0.14,-0.06 0.19,-0.09 0,-0.01 -0.03,-0.03 -0.04,-0.04 -0.05,-0.05 -0.07,-0.06 -0.12,-0.12 -0.05,-0.06 -0.09,-0.14 -0.12,-0.21 -0.07,-0.18 -0.07,-0.37 -0.01,-0.55 0.05,-0.16 0.15,-0.29 0.27,-0.38 0.14,-0.11 0.3,-0.16 0.45,-0.16z"/>
    </g>
   </g>
   <path class="fil2" d="M1.62 2.76c0.04,0 0.15,-0.04 0.2,-0.05 0.07,-0.02 0.13,-0.03 0.2,-0.04 0.07,-0.02 0.14,-0.02 0.22,-0.03 0.07,-0.01 0.17,0 0.17,-0.07 0,-0.1 -0.15,-0.05 -0.29,-0.04 -0.14,0.01 -0.33,0.06 -0.45,0.1 -0.04,0.01 -0.08,0.01 -0.09,0.05 -0.02,0.03 0.01,0.08 0.04,0.08z"/>
   <path class="fil0" d="M0.4 2.12c0,0.08 0.11,0.06 0.17,0.07 0.08,0.01 0.14,0.02 0.22,0.03l0.29 0.06c0.05,0.02 0.06,0.03 0.12,0.03 0.02,0 0.11,-0.09 -0.04,-0.13 -0.08,-0.02 -0.14,-0.04 -0.22,-0.05 -0.07,-0.02 -0.16,-0.03 -0.23,-0.04 -0.08,-0.02 -0.17,-0.03 -0.26,-0.03 -0.02,0 -0.05,0.03 -0.05,0.06z"/>
   <g style="clip-path:url(#id6)">
    <g>
     <path id="1" class="fil1" d="M0.87 43.5c0,-0.01 0.01,-0.11 0.01,-0.13 0.02,-0.12 0.09,-0.2 0.15,-0.29 0.03,-0.03 0.13,-0.1 0.17,-0.12 0.12,-0.05 0.13,-0.04 0.24,-0.06 0.07,-0.01 0.18,0.03 0.24,0.05 0.08,0.03 0.12,0.07 0.18,0.12 0.02,0.01 0.02,0.02 0.03,0.03 0.08,0.08 0.1,0.14 0.13,0.25 0.01,0.03 0.02,0.08 0.02,0.12 0.01,0.07 -0.02,0.18 -0.05,0.25 -0.03,0.09 -0.08,0.15 -0.15,0.21 -0.08,0.07 -0.14,0.09 -0.24,0.12 -0.08,0.03 -0.18,0.03 -0.26,0.01 -0.12,-0.02 -0.21,-0.08 -0.29,-0.15l-0.07 -0.08c-0.06,-0.08 -0.1,-0.19 -0.1,-0.29 -0.01,-0.03 -0.01,-0.02 -0.01,-0.04zm0.55 -0.81l0.07 0c0.32,0.01 0.62,0.22 0.73,0.54 0.06,0.19 0.05,0.38 -0.02,0.56 -0.02,0.06 -0.07,0.15 -0.12,0.2 -0.02,0.03 -0.04,0.06 -0.07,0.09l-0.09 0.07c0.01,0.01 0.03,0.01 0.05,0.02 0.02,0.01 0.03,0.01 0.05,0.02 0.03,0.02 0.06,0.03 0.09,0.05 0.02,0.01 0.03,0.01 0.05,0.02 0.01,0.01 0.03,0.02 0.04,0.03 0.38,0.25 0.64,0.66 0.64,1.17l0 0 -0.21 0c0,-0.22 -0.08,-0.49 -0.21,-0.66 -0.03,-0.04 -0.07,-0.1 -0.1,-0.13l-0.11 -0.1c-0.07,-0.06 -0.19,-0.14 -0.27,-0.17 -0.07,-0.04 -0.14,-0.06 -0.22,-0.08 -0.06,-0.01 -0.2,-0.03 -0.26,-0.03l-0.14 0.01c-0.05,0.01 -0.09,0.01 -0.13,0.02 -0.16,0.04 -0.37,0.13 -0.48,0.25 -0.12,0.11 -0.1,0.08 -0.21,0.23 -0.13,0.17 -0.22,0.44 -0.22,0.66l-0.21 0 0 0c0,-0.51 0.26,-0.93 0.64,-1.17l0.09 -0.05c0.09,-0.05 0.14,-0.06 0.19,-0.09 0,-0.01 -0.03,-0.03 -0.04,-0.04 -0.05,-0.05 -0.07,-0.06 -0.12,-0.12 -0.05,-0.06 -0.09,-0.14 -0.12,-0.21 -0.07,-0.18 -0.07,-0.37 -0.01,-0.55 0.05,-0.16 0.15,-0.29 0.27,-0.38 0.14,-0.11 0.3,-0.16 0.45,-0.16z"/>
    </g>
   </g>
   <path class="fil2" d="M0.4 2.12c0,0.08 0.11,0.06 0.17,0.07 0.08,0.01 0.14,0.02 0.22,0.03l0.29 0.06c0.05,0.02 0.06,0.03 0.12,0.03 0.02,0 0.11,-0.09 -0.04,-0.13 -0.08,-0.02 -0.14,-0.04 -0.22,-0.05 -0.07,-0.02 -0.16,-0.03 -0.23,-0.04 -0.08,-0.02 -0.17,-0.03 -0.26,-0.03 -0.02,0 -0.05,0.03 -0.05,0.06z"/>
   <path class="fil0" d="M0.4 2.34c0,0.08 0.1,0.06 0.18,0.07 0.2,0.03 0.3,0.04 0.5,0.09 0.03,0.01 0.08,0.03 0.1,0.03 0.06,0 0.12,-0.09 -0.01,-0.13 -0.2,-0.05 -0.5,-0.12 -0.71,-0.12 -0.03,0 -0.06,0.02 -0.06,0.06z"/>
   <g style="clip-path:url(#id7)">
    <g>
     <path id="1" class="fil1" d="M0.87 43.5c0,-0.01 0.01,-0.11 0.01,-0.13 0.02,-0.12 0.09,-0.2 0.15,-0.29 0.03,-0.03 0.13,-0.1 0.17,-0.12 0.12,-0.05 0.13,-0.04 0.24,-0.06 0.07,-0.01 0.18,0.03 0.24,0.05 0.08,0.03 0.12,0.07 0.18,0.12 0.02,0.01 0.02,0.02 0.03,0.03 0.08,0.08 0.1,0.14 0.13,0.25 0.01,0.03 0.02,0.08 0.02,0.12 0.01,0.07 -0.02,0.18 -0.05,0.25 -0.03,0.09 -0.08,0.15 -0.15,0.21 -0.08,0.07 -0.14,0.09 -0.24,0.12 -0.08,0.03 -0.18,0.03 -0.26,0.01 -0.12,-0.02 -0.21,-0.08 -0.29,-0.15l-0.07 -0.08c-0.06,-0.08 -0.1,-0.19 -0.1,-0.29 -0.01,-0.03 -0.01,-0.02 -0.01,-0.04zm0.55 -0.81l0.07 0c0.32,0.01 0.62,0.22 0.73,0.54 0.06,0.19 0.05,0.38 -0.02,0.56 -0.02,0.06 -0.07,0.15 -0.12,0.2 -0.02,0.03 -0.04,0.06 -0.07,0.09l-0.09 0.07c0.01,0.01 0.03,0.01 0.05,0.02 0.02,0.01 0.03,0.01 0.05,0.02 0.03,0.02 0.06,0.03 0.09,0.05 0.02,0.01 0.03,0.01 0.05,0.02 0.01,0.01 0.03,0.02 0.04,0.03 0.38,0.25 0.64,0.66 0.64,1.17l0 0 -0.21 0c0,-0.22 -0.08,-0.49 -0.21,-0.66 -0.03,-0.04 -0.07,-0.1 -0.1,-0.13l-0.11 -0.1c-0.07,-0.06 -0.19,-0.14 -0.27,-0.17 -0.07,-0.04 -0.14,-0.06 -0.22,-0.08 -0.06,-0.01 -0.2,-0.03 -0.26,-0.03l-0.14 0.01c-0.05,0.01 -0.09,0.01 -0.13,0.02 -0.16,0.04 -0.37,0.13 -0.48,0.25 -0.12,0.11 -0.1,0.08 -0.21,0.23 -0.13,0.17 -0.22,0.44 -0.22,0.66l-0.21 0 0 0c0,-0.51 0.26,-0.93 0.64,-1.17l0.09 -0.05c0.09,-0.05 0.14,-0.06 0.19,-0.09 0,-0.01 -0.03,-0.03 -0.04,-0.04 -0.05,-0.05 -0.07,-0.06 -0.12,-0.12 -0.05,-0.06 -0.09,-0.14 -0.12,-0.21 -0.07,-0.18 -0.07,-0.37 -0.01,-0.55 0.05,-0.16 0.15,-0.29 0.27,-0.38 0.14,-0.11 0.3,-0.16 0.45,-0.16z"/>
    </g>
   </g>
   <path class="fil2" d="M0.4 2.34c0,0.08 0.1,0.06 0.18,0.07 0.2,0.03 0.3,0.04 0.5,0.09 0.03,0.01 0.08,0.03 0.1,0.03 0.06,0 0.12,-0.09 -0.01,-0.13 -0.2,-0.05 -0.5,-0.12 -0.71,-0.12 -0.03,0 -0.06,0.02 -0.06,0.06z"/>
   <path class="fil0" d="M0.4 1.8c0,0.08 0.12,0.07 0.21,0.08 0.08,0 0.19,0.04 0.23,0.01 0.03,-0.03 0.02,-0.07 -0.01,-0.1 -0.04,-0.02 -0.32,-0.04 -0.37,-0.04 -0.03,0 -0.06,0.02 -0.06,0.05z"/>
   <g style="clip-path:url(#id8)">
    <g>
     <path id="1" class="fil1" d="M0.87 43.5c0,-0.01 0.01,-0.11 0.01,-0.13 0.02,-0.12 0.09,-0.2 0.15,-0.29 0.03,-0.03 0.13,-0.1 0.17,-0.12 0.12,-0.05 0.13,-0.04 0.24,-0.06 0.07,-0.01 0.18,0.03 0.24,0.05 0.08,0.03 0.12,0.07 0.18,0.12 0.02,0.01 0.02,0.02 0.03,0.03 0.08,0.08 0.1,0.14 0.13,0.25 0.01,0.03 0.02,0.08 0.02,0.12 0.01,0.07 -0.02,0.18 -0.05,0.25 -0.03,0.09 -0.08,0.15 -0.15,0.21 -0.08,0.07 -0.14,0.09 -0.24,0.12 -0.08,0.03 -0.18,0.03 -0.26,0.01 -0.12,-0.02 -0.21,-0.08 -0.29,-0.15l-0.07 -0.08c-0.06,-0.08 -0.1,-0.19 -0.1,-0.29 -0.01,-0.03 -0.01,-0.02 -0.01,-0.04zm0.55 -0.81l0.07 0c0.32,0.01 0.62,0.22 0.73,0.54 0.06,0.19 0.05,0.38 -0.02,0.56 -0.02,0.06 -0.07,0.15 -0.12,0.2 -0.02,0.03 -0.04,0.06 -0.07,0.09l-0.09 0.07c0.01,0.01 0.03,0.01 0.05,0.02 0.02,0.01 0.03,0.01 0.05,0.02 0.03,0.02 0.06,0.03 0.09,0.05 0.02,0.01 0.03,0.01 0.05,0.02 0.01,0.01 0.03,0.02 0.04,0.03 0.38,0.25 0.64,0.66 0.64,1.17l0 0 -0.21 0c0,-0.22 -0.08,-0.49 -0.21,-0.66 -0.03,-0.04 -0.07,-0.1 -0.1,-0.13l-0.11 -0.1c-0.07,-0.06 -0.19,-0.14 -0.27,-0.17 -0.07,-0.04 -0.14,-0.06 -0.22,-0.08 -0.06,-0.01 -0.2,-0.03 -0.26,-0.03l-0.14 0.01c-0.05,0.01 -0.09,0.01 -0.13,0.02 -0.16,0.04 -0.37,0.13 -0.48,0.25 -0.12,0.11 -0.1,0.08 -0.21,0.23 -0.13,0.17 -0.22,0.44 -0.22,0.66l-0.21 0 0 0c0,-0.51 0.26,-0.93 0.64,-1.17l0.09 -0.05c0.09,-0.05 0.14,-0.06 0.19,-0.09 0,-0.01 -0.03,-0.03 -0.04,-0.04 -0.05,-0.05 -0.07,-0.06 -0.12,-0.12 -0.05,-0.06 -0.09,-0.14 -0.12,-0.21 -0.07,-0.18 -0.07,-0.37 -0.01,-0.55 0.05,-0.16 0.15,-0.29 0.27,-0.38 0.14,-0.11 0.3,-0.16 0.45,-0.16z"/>
    </g>
   </g>
   <path class="fil2" d="M0.4 1.8c0,0.08 0.12,0.07 0.21,0.08 0.08,0 0.19,0.04 0.23,0.01 0.03,-0.03 0.02,-0.07 -0.01,-0.1 -0.04,-0.02 -0.32,-0.04 -0.37,-0.04 -0.03,0 -0.06,0.02 -0.06,0.05z"/>
   <path class="fil0" d="M0.4 1.62c0,0.06 0.05,0.06 0.1,0.06 0.09,0.02 0.2,0.04 0.2,-0.04 0,-0.08 -0.15,-0.08 -0.23,-0.08 -0.03,0 -0.07,0.01 -0.07,0.06z"/>
   <g style="clip-path:url(#id9)">
    <g>
     <path id="1" class="fil1" d="M0.87 43.5c0,-0.01 0.01,-0.11 0.01,-0.13 0.02,-0.12 0.09,-0.2 0.15,-0.29 0.03,-0.03 0.13,-0.1 0.17,-0.12 0.12,-0.05 0.13,-0.04 0.24,-0.06 0.07,-0.01 0.18,0.03 0.24,0.05 0.08,0.03 0.12,0.07 0.18,0.12 0.02,0.01 0.02,0.02 0.03,0.03 0.08,0.08 0.1,0.14 0.13,0.25 0.01,0.03 0.02,0.08 0.02,0.12 0.01,0.07 -0.02,0.18 -0.05,0.25 -0.03,0.09 -0.08,0.15 -0.15,0.21 -0.08,0.07 -0.14,0.09 -0.24,0.12 -0.08,0.03 -0.18,0.03 -0.26,0.01 -0.12,-0.02 -0.21,-0.08 -0.29,-0.15l-0.07 -0.08c-0.06,-0.08 -0.1,-0.19 -0.1,-0.29 -0.01,-0.03 -0.01,-0.02 -0.01,-0.04zm0.55 -0.81l0.07 0c0.32,0.01 0.62,0.22 0.73,0.54 0.06,0.19 0.05,0.38 -0.02,0.56 -0.02,0.06 -0.07,0.15 -0.12,0.2 -0.02,0.03 -0.04,0.06 -0.07,0.09l-0.09 0.07c0.01,0.01 0.03,0.01 0.05,0.02 0.02,0.01 0.03,0.01 0.05,0.02 0.03,0.02 0.06,0.03 0.09,0.05 0.02,0.01 0.03,0.01 0.05,0.02 0.01,0.01 0.03,0.02 0.04,0.03 0.38,0.25 0.64,0.66 0.64,1.17l0 0 -0.21 0c0,-0.22 -0.08,-0.49 -0.21,-0.66 -0.03,-0.04 -0.07,-0.1 -0.1,-0.13l-0.11 -0.1c-0.07,-0.06 -0.19,-0.14 -0.27,-0.17 -0.07,-0.04 -0.14,-0.06 -0.22,-0.08 -0.06,-0.01 -0.2,-0.03 -0.26,-0.03l-0.14 0.01c-0.05,0.01 -0.09,0.01 -0.13,0.02 -0.16,0.04 -0.37,0.13 -0.48,0.25 -0.12,0.11 -0.1,0.08 -0.21,0.23 -0.13,0.17 -0.22,0.44 -0.22,0.66l-0.21 0 0 0c0,-0.51 0.26,-0.93 0.64,-1.17l0.09 -0.05c0.09,-0.05 0.14,-0.06 0.19,-0.09 0,-0.01 -0.03,-0.03 -0.04,-0.04 -0.05,-0.05 -0.07,-0.06 -0.12,-0.12 -0.05,-0.06 -0.09,-0.14 -0.12,-0.21 -0.07,-0.18 -0.07,-0.37 -0.01,-0.55 0.05,-0.16 0.15,-0.29 0.27,-0.38 0.14,-0.11 0.3,-0.16 0.45,-0.16z"/>
    </g>
   </g>
   <path class="fil2" d="M0.4 1.62c0,0.06 0.05,0.06 0.1,0.06 0.09,0.02 0.2,0.04 0.2,-0.04 0,-0.08 -0.15,-0.08 -0.23,-0.08 -0.03,0 -0.07,0.01 -0.07,0.06z"/>
  </g>
 </g>
</svg>
