<?xml version="1.0" encoding="UTF-8"?>
<!DOCTYPE svg PUBLIC "-//W3C//DTD SVG 1.1//EN" "http://www.w3.org/Graphics/SVG/1.1/DTD/svg11.dtd">
<!-- Creator: CorelDRAW 2019 (64-Bit) -->
<svg xmlns="http://www.w3.org/2000/svg" xml:space="preserve" width="180px" height="45px" version="1.1" style="shape-rendering:geometricPrecision; text-rendering:geometricPrecision; image-rendering:optimizeQuality; fill-rule:evenodd; clip-rule:evenodd"
viewBox="0 0 7792.12 1181.15"
 xmlns:xlink="http://www.w3.org/1999/xlink">
 <defs>
  <style type="text/css">
   <![CDATA[
    .fil2 {fill:#7400B8}
    .fil0 {fill:url(#id0)}
    .fil1 {fill:url(#id1)}
   ]]>
  </style>
  <linearGradient id="id0" gradientUnits="userSpaceOnUse" x1="0" y1="654.31" x2="7792.12" y2="654.31">
   <stop offset="0" style="stop-opacity:1; stop-color:#7400B8"/>
   <stop offset="0.701961" style="stop-opacity:1; stop-color:#7400B8"/>
   <stop offset="1" style="stop-opacity:1; stop-color:#7400B8"/>
  </linearGradient>
  <linearGradient id="id1" gradientUnits="userSpaceOnUse" xlink:href="#id0" x1="6859.62" y1="654.93" x2="7792.12" y2="654.93">
  </linearGradient>
 </defs>
 <g id="Layer_x0020_1">
  <metadata id="CorelCorpID_0Corel-Layer"/>
  <g id="_2591966244208">
   <path class="fil0" d="M7266.72 1166.61l0 -846.54 -407.1 0.43 121.88 -177.03 810.62 0 0 176.11 -326 0.29 0 846.74 -199.4 0zm-2049.78 -174.65l513.73 0 0 174.65 -513.73 0 -52.39 0 -145.54 0 0 -1023.14 145.54 0 52.39 0 506.46 0 0 174.64 -506.46 0 0 241.62 462.81 0 0 168.8 -462.81 0 0 263.43zm-322.81 106.47l2.41 -954.96 -196.47 0 -2.44 684.46 196.5 270.5zm-202.92 68.18l-456.16 -647.49 0 647.49 -197.95 0 0 -1023.14 138.27 0 721.17 1024.26 -205.33 -1.12zm-1152.27 14.54c-82.48,0 -153.06,-14.07 -211.76,-42.2 -58.71,-28.13 -111.82,-70.35 -159.37,-126.62l130.99 -130.98c30.08,39.79 65.02,70.58 104.79,92.42 39.77,21.83 88.3,32.74 145.53,32.74 51.42,0 92.42,-10.19 122.98,-30.57 30.57,-20.37 45.85,-48.51 45.85,-84.41 0,-31.05 -8.73,-56.27 -26.2,-75.68 -17.46,-19.4 -40.51,-35.89 -69.15,-49.48 -28.59,-13.58 -60.14,-25.95 -94.58,-37.12 -34.45,-11.14 -68.89,-24 -103.31,-38.55 -34.46,-14.56 -66,-32.75 -94.61,-54.58 -28.63,-21.84 -51.68,-49.96 -69.13,-84.41 -17.49,-34.45 -26.21,-77.86 -26.21,-130.26 0,-62.09 15.06,-114.97 45.11,-158.64 30.08,-43.66 71.33,-77.13 123.72,-100.43 52.39,-23.28 111.58,-34.91 177.54,-34.91 69.87,0 132.93,13.1 189.22,39.28 56.26,26.21 102.34,60.17 138.25,101.89l-130.97 130.98c-30.1,-33 -60.89,-57.24 -92.44,-72.78 -31.51,-15.51 -67.18,-23.28 -106.97,-23.28 -45.59,0 -81.5,8.74 -107.68,26.21 -26.2,17.45 -39.32,42.68 -39.32,75.68 0,28.12 8.76,50.93 26.22,68.4 17.45,17.47 40.51,32.49 69.13,45.12 28.61,12.59 60.16,24.75 94.59,36.38 34.45,11.66 68.91,24.74 103.34,39.29 34.44,14.56 65.98,33.49 94.59,56.76 28.64,23.29 51.67,53.11 69.14,89.5 17.47,36.39 26.2,81.27 26.2,134.61 0,95.1 -33.46,169.81 -100.42,224.14 -66.95,54.33 -158.66,81.5 -275.07,81.5zm-482.01 -960.44l0 945.9 -196.48 0 0 -622.16 196.48 -323.74zm-1071.67 945.9l0 -1023.14 197.37 0 357.11 663.64 -37.11 -68.97 370.41 -594.67 183.89 0 -490.98 813.56 -65.96 0 -67.94 0 -248.86 -474.45 0 0 0 684.03 -197.93 0zm-635.86 -174.65l513.75 0 0 174.65 -513.75 0 -52.39 0 -145.53 0 0 -1023.14 145.53 0 52.39 0 506.47 0 0 174.64 -506.47 0 0 241.62 462.82 0 0 168.8 -462.82 0 0 263.43zm-825.45 189.19c-72.78,0 -141.08,-13.48 -204.49,-40.02 -63.39,-26.55 -119.35,-64.28 -167.36,-112.8 -48.04,-48.51 -85.39,-104.54 -112.07,-168.09 -26.69,-63.55 -40.03,-132.19 -40.03,-205.93 0,-74.72 13.73,-143.99 40.76,-207.39 27.04,-63.39 65.01,-119.34 113.52,-167.37 48.51,-48.04 105.27,-85.39 170.28,-112.06 65,-26.69 135.34,-40.02 211.02,-40.02 84.4,0 162.03,15.77 232.86,47.29 70.83,31.54 129.54,75.94 176.1,133.17l-133.89 133.9c-32.02,-41.73 -71.79,-73.74 -119.34,-96.06 -47.54,-22.32 -99.94,-33.47 -157.19,-33.47 -64.99,0 -122.49,14.31 -172.45,42.92 -49.98,28.62 -89.03,68.4 -117.16,119.34 -28.13,50.94 -42.21,110.38 -42.21,178.3 0,67.92 13.82,127.82 41.47,179.73 27.66,51.91 65.5,92.42 113.52,121.53 48.04,29.09 103.11,43.65 165.18,43.65 64.05,0 118.87,-11.89 164.46,-35.64 45.62,-23.79 80.54,-58.72 104.78,-104.79 24.28,-46.1 36.39,-102.61 36.39,-169.57 0.32,29.74 -2.93,59.31 -8.01,88.79l-309.24 -4.38 0 -171.71 521.01 0 0 27.66c0,121.95 -21.81,224.36 -65.48,306.34 -43.67,81.99 -103.59,143.58 -179.74,184.83 -76.17,41.24 -163.74,61.85 -262.69,61.85z"/>
   <polygon class="fil1" points="7266.72,1166.49 7266.72,319.96 6859.62,320.39 6981.5,143.36 7792.12,143.36 7792.12,319.47 7466.12,319.76 7466.12,1166.49 "/>
   <g>
    <polygon class="fil2" points="6617.04,150.67 6820.98,150.67 6792.95,190.21 6589.61,190.21 "/>
    <polygon class="fil2" points="6564.79,226 6767.58,226 6739.54,265.55 6537.36,265.55 "/>
    <polygon class="fil2" points="6512.54,301.33 6714.17,301.33 6686.13,340.88 6485.11,340.88 "/>
    <polygon class="fil2" points="6460.29,376.67 6660.76,376.67 6632.73,416.21 6432.86,416.21 "/>
    <path class="fil2" d="M5843.43 452l217.5 0 29.59 39.55 -217.08 0 -30.01 -39.55zm564.61 0l199.32 0 -28.04 39.55 -198.71 0 27.43 -39.55z"/>
    <path class="fil2" d="M5900.59 527.33l216.71 0 29.6 39.55 -216.3 0 -30.01 -39.55zm455.2 0l198.16 0 -28.04 39.55 -197.55 0 27.43 -39.55z"/>
    <path class="fil2" d="M5957.76 602.66l215.92 0 29.59 39.55 -215.51 0 -30 -39.55zm345.78 0l197 0 -28.03 39.55 -196.4 0 27.43 -39.55z"/>
    <polygon class="fil2" points="6014.92,677.99 6230.05,677.99 6241.08,692.73 6251.29,677.99 6447.14,677.99 6419.1,717.54 6044.93,717.54 "/>
    <polygon class="fil2" points="6072.08,753.33 6393.73,753.33 6365.7,792.87 6102.09,792.87 "/>
    <polygon class="fil2" points="6120.22,828.66 6351.28,828.66 6379.77,868.21 6091.73,868.21 "/>
    <polygon class="fil2" points="6065.95,903.99 6405.54,903.99 6434.02,943.54 6037.46,943.54 "/>
    <path class="fil2" d="M6011.68 979.33l197.84 0 -26.44 39.54 -199.89 0 28.49 -39.54zm238.67 0l209.45 0 28.48 39.54 -210.83 0 -27.1 -39.54z"/>
    <path class="fil2" d="M5957.41 1054.66l201.74 0 -26.44 39.55 -203.79 0 28.49 -39.55zm344.55 0l212.09 0 28.49 39.55 -213.49 0 -27.09 -39.55z"/>
    <path class="fil2" d="M5903.14 1129.99l205.65 0 -26.44 39.55 -207.7 0 28.49 -39.55zm450.43 0l214.74 0 28.48 39.55 -216.13 0 -27.09 -39.55z"/>
    <polygon class="fil2" points="6669.29,75.33 6874.39,75.33 6846.35,114.88 6641.86,114.88 "/>
    <polygon class="fil2" points="6721.54,0 6927.79,0 6899.76,39.55 6694.11,39.55 "/>
   </g>
  </g>
 </g>
</svg>
