<?xml version="1.0" encoding="UTF-8"?>
<!DOCTYPE svg PUBLIC "-//W3C//DTD SVG 1.1//EN" "http://www.w3.org/Graphics/SVG/1.1/DTD/svg11.dtd">
<!-- Creator: CorelDRAW 2019 (64-Bit) -->
<svg xmlns="http://www.w3.org/2000/svg" xml:space="preserve" width="10795px" height="885px" version="1.1" style="shape-rendering:geometricPrecision; text-rendering:geometricPrecision; image-rendering:optimizeQuality; fill-rule:evenodd; clip-rule:evenodd"
viewBox="0 0 10793.33 884.93"
 xmlns:xlink="http://www.w3.org/1999/xlink">
 <defs>
  <style type="text/css">
   <![CDATA[
    .fil1 {fill:none;fill-rule:nonzero}
    .fil0 {fill:#7400B8}
    .fil2 {fill:url(#id1)}
   ]]>
  </style>
    <clipPath id="id0" style="clip-rule:nonzero">
     <path d="M4929.44 867.76l-127.88 -195.67 -27.19 -19.97 -189.3 -266.55 156.07 0 117.82 176.7 25.17 18.97 200.39 286.52 -155.08 0zm-354.44 0l198.37 -275.54 75.52 88.86 -124.87 186.68 -149.02 0zm314.16 -216.63l-77.53 -87.86 392.45 -563.27 148.02 0 -462.94 651.13z"/>
    </clipPath>
  <linearGradient id="id1" gradientUnits="userSpaceOnUse" x1="0" y1="486.76" x2="10793.33" y2="486.76">
   <stop offset="0" style="stop-opacity:1; stop-color:#7400B8"/>
   <stop offset="0.701961" style="stop-opacity:1; stop-color:#B900DB"/>
   <stop offset="1" style="stop-opacity:1; stop-color:fuchsia"/>
  </linearGradient>
 </defs>
 <g id="Layer_x0020_1">
  <metadata id="CorelCorpID_0Corel-Layer"/>
  <g id="_2878075892528">
   <g>
   </g>
   <g style="clip-path:url(#id0)">
    <g id="_2878075892176">
     <g>
      <polygon class="fil0" points="4469.24,110.25 5706.01,110.25 5706.01,139.6 4469.24,139.6 "/>
      <polygon class="fil0" points="4469.24,166.17 5706.01,166.17 5706.01,195.52 4469.24,195.52 "/>
      <polygon class="fil0" points="4469.24,222.08 5706.01,222.08 5706.01,251.44 4469.24,251.44 "/>
      <polygon class="fil0" points="4469.24,278 5706.01,278 5706.01,307.35 4469.24,307.35 "/>
      <polygon class="fil0" points="4469.24,333.92 5706.01,333.92 5706.01,363.27 4469.24,363.27 "/>
      <polygon class="fil0" points="4469.24,389.83 5706.01,389.83 5706.01,419.19 4469.24,419.19 "/>
      <polygon class="fil0" points="4469.24,445.75 5706.01,445.75 5706.01,475.1 4469.24,475.1 "/>
      <polygon class="fil0" points="4469.24,501.66 5706.01,501.66 5706.01,531.02 4469.24,531.02 "/>
      <polygon class="fil0" points="4469.24,557.58 5706.01,557.58 5706.01,586.93 4469.24,586.93 "/>
      <polygon class="fil0" points="4469.24,613.5 5706.01,613.5 5706.01,642.85 4469.24,642.85 "/>
      <polygon class="fil0" points="4469.24,669.41 5706.01,669.41 5706.01,698.77 4469.24,698.77 "/>
      <polygon class="fil0" points="4469.24,725.33 5706.01,725.33 5706.01,754.68 4469.24,754.68 "/>
      <polygon class="fil0" points="4469.24,781.25 5706.01,781.25 5706.01,810.6 4469.24,810.6 "/>
      <polygon class="fil0" points="4469.24,837.16 5706.01,837.16 5706.01,866.51 4469.24,866.51 "/>
      <polygon class="fil0" points="4469.24,893.08 5706.01,893.08 5706.01,922.43 4469.24,922.43 "/>
      <polygon class="fil0" points="4469.24,54.34 5706.01,54.34 5706.01,83.69 4469.24,83.69 "/>
      <polygon class="fil0" points="4469.24,-1.58 5706.01,-1.58 5706.01,27.77 4469.24,27.77 "/>
     </g>
    </g>
   </g>
   <path class="fil1" d="M4929.44 867.76l-127.88 -195.67 -27.19 -19.97 -189.3 -266.55 156.07 0 117.82 176.7 25.17 18.97 200.39 286.52 -155.08 0zm-354.44 0l198.37 -275.54 75.52 88.86 -124.87 186.68 -149.02 0zm314.16 -216.63l-77.53 -87.86 392.45 -563.27 148.02 0 -462.94 651.13z"/>
   <path class="fil2" d="M5551.78 874.25l0 -607.39 -292.1 0.31 87.45 -127.02 581.62 0 0 126.36 -233.91 0.21 0 607.53 -143.06 0zm-1453.13 -125.31l368.6 0 0 125.31 -368.6 0 -37.59 0 -104.42 0 0 -734.1 104.42 0 37.59 0 363.38 0 0 125.31 -363.38 0 0 173.35 332.07 0 0 121.12 -332.07 0 0 189.01zm-236.89 76.39l1.73 -685.18 -140.96 0 -1.76 491.1 140.99 194.08zm-145.59 48.92l-327.3 -464.57 0 464.57 -142.02 0 0 -734.1 99.2 0 517.44 734.9 -147.32 -0.8zm-3357.14 10.68c-50.79,0 -97.93,-9.92 -141.59,-29.75 -43.66,-19.83 -81.76,-47.31 -114.29,-82.28 -32.53,-34.96 -57.92,-75.32 -76.01,-121.24 -18.09,-45.92 -27.14,-94.8 -27.14,-146.64 0,-55.66 9.92,-106.45 29.75,-152.38 19.83,-45.92 46.79,-85.75 80.88,-119.32 34.1,-33.58 72.89,-59.49 116.2,-77.76 43.31,-18.26 88.37,-27.31 135.33,-27.31 51.49,0 101.94,12 151.34,36.01 49.4,24 93.58,62.1 132.54,114.28l-128.37 68.89c-22.26,-25.75 -46.96,-44.88 -74.27,-57.41 -27.31,-12.52 -55.15,-18.78 -83.33,-18.78 -28.18,0 -55.14,5.74 -81.06,17.22 -25.92,11.48 -49.05,27.83 -69.23,49.05 -20.18,21.22 -36.18,46.27 -48.01,75.15 -11.83,28.87 -17.74,60.7 -17.74,95.49 0,32.36 5.74,62.63 17.05,90.8 11.3,28.19 26.79,52.89 46.61,74.11 19.83,21.22 42.97,37.74 69.24,49.75 26.26,12 54.27,18.09 84.19,18.09 18.44,0 36.7,-2.79 54.62,-8.18 17.91,-5.39 34.96,-13.22 51.31,-23.65 16.35,-10.44 31.49,-23.49 45.23,-39.14 13.74,-15.66 25.74,-33.75 36.18,-54.27l-113.24 0 0 -125.25 282.84 0c2.09,53.93 -5.74,104.72 -23.48,152.38 -17.75,47.66 -43.14,89.58 -76.19,125.94 -33.05,36.35 -71.67,64.88 -115.85,85.41 -44.19,20.52 -92.02,30.79 -143.51,30.79zm459.74 -13.57l-0.52 -521.85 144.03 0 0.52 38.62c17.4,-16.7 37.93,-29.75 61.41,-39.14 23.48,-9.39 48.18,-14.09 74.27,-14.09 19.14,0 38.27,2.79 57.41,8.35l-56.88 145.6c-12.53,-5.22 -25.23,-7.83 -38.1,-7.83 -18.09,0 -34.61,4.35 -49.57,13.04 -14.96,8.7 -26.79,20.36 -35.49,35.14 -8.7,14.79 -13.05,31.49 -13.05,49.93l0 292.23 -144.03 0zm752.51 -521.85l144.03 0 0 521.85 -144.56 0 -6.78 -54.27c-13.57,20.18 -30.96,36.53 -52.18,49.05 -21.23,12.52 -46.1,18.79 -74.63,18.79 -38.96,0 -75.32,-7.31 -109.06,-21.92 -33.75,-14.61 -63.49,-34.79 -89.24,-60.53 -25.74,-25.75 -45.75,-55.67 -60.19,-89.59 -14.43,-33.92 -21.74,-70.27 -21.74,-109.24 0,-37.22 6.78,-72.01 20.35,-104.37 13.57,-32.35 32.71,-60.88 57.41,-85.58 24.7,-24.7 53.22,-44.01 85.4,-57.92 32.19,-13.92 66.8,-20.88 104.03,-20.88 32,0 60.88,6.79 86.45,20.35 25.57,13.57 47.83,30.79 66.97,51.67l-6.26 -57.41zm-137.77 397.13c23.66,0 45.05,-6.09 64.19,-18.27 19.13,-12.17 34.26,-28.7 45.4,-49.4 11.13,-20.7 16.7,-43.49 16.7,-68.53 0,-25.4 -5.57,-48.36 -16.7,-68.89 -11.14,-20.52 -26.27,-36.87 -45.4,-49.05 -19.14,-12.18 -40.53,-18.27 -64.19,-18.27 -24.01,0 -45.75,6.09 -65.23,18.27 -19.48,12.18 -34.96,28.53 -46.45,49.23 -11.48,20.7 -17.22,43.66 -17.22,68.71 0,25.04 5.92,47.83 17.57,68.53 11.66,20.7 27.14,37.23 46.62,49.4 19.48,12.18 41.05,18.27 64.71,18.27zm870.96 -207.18l0 331.9 -144.03 0 0 -292.23c0,-18.44 -4.35,-35.14 -13.22,-49.93 -8.87,-14.78 -20.7,-26.44 -35.49,-35.14 -14.78,-8.69 -31.31,-13.04 -49.4,-13.04 -18.09,0 -34.61,4.35 -49.57,13.04 -14.96,8.7 -26.79,20.36 -35.49,35.14 -8.7,14.79 -13.04,31.49 -13.04,49.93l0 292.23 -144.03 0 -0.53 -521.85 144.03 0 0.53 38.62c17.39,-16.7 37.92,-29.75 61.4,-39.14 23.48,-9.39 48.18,-14.09 74.28,-14.09 37.92,0 72.36,9.22 103.15,27.66 30.79,18.44 55.31,42.97 73.75,73.75 18.44,30.79 27.66,65.23 27.66,103.15zm477.49 -450.87l144.03 0 0 782.77 -144.03 0 0 -55.32c-16.01,20.18 -35.84,36.71 -59.49,49.58 -23.66,12.87 -50.62,19.31 -80.89,19.31 -37.92,0 -73.41,-7.13 -106.46,-21.4 -33.05,-14.26 -62.1,-34.09 -87.32,-59.32 -25.22,-25.22 -45.05,-54.27 -59.31,-87.32 -14.27,-33.05 -21.4,-68.53 -21.4,-106.45 0,-37.92 7.13,-73.41 21.4,-106.46 14.26,-33.05 34.09,-62.27 59.31,-87.5 25.22,-25.22 54.27,-44.87 87.32,-59.14 33.05,-14.26 68.54,-21.39 106.46,-21.39 30.27,0 57.23,6.26 80.89,18.96 23.65,12.69 43.48,29.39 59.49,49.92l0 -316.24zm-138.29 658.05c23.65,0 45.05,-6.09 64.18,-18.27 19.14,-12.17 34.27,-28.7 45.41,-49.4 11.13,-20.7 16.69,-43.49 16.69,-68.53 0,-25.4 -5.56,-48.36 -16.69,-68.89 -11.14,-20.52 -26.27,-36.87 -45.41,-49.05 -19.13,-12.18 -40.53,-18.27 -64.18,-18.27 -24.01,0 -45.75,6.09 -65.23,18.27 -19.48,12.18 -34.97,28.53 -46.45,49.23 -11.48,20.7 -17.22,43.66 -17.22,68.71 0,25.04 5.92,47.83 17.57,68.53 11.66,20.7 27.14,37.23 46.62,49.4 19.48,12.18 41.05,18.27 64.71,18.27zm3413.39 124.72l141.94 -730.58 121.59 0 169.6 447.22 170.13 -447.22 121.59 0 141.94 730.58 -147.16 0 -80.89 -419.04 -156.03 411.73 -99.15 0 -155.51 -411.73 -81.41 419.04 -146.64 0zm1162.15 13.57c-48.01,0 -91.67,-12.35 -131.15,-37.05 -39.49,-24.7 -70.98,-57.93 -94.46,-99.5 -23.48,-41.58 -35.31,-87.5 -35.31,-137.94 0,-38.27 6.78,-74.11 20.35,-107.33 13.57,-33.22 32.36,-62.45 56.19,-87.67 23.83,-25.22 51.49,-44.88 83.15,-59.14 31.65,-14.27 65.4,-21.4 101.23,-21.4 48.01,0 91.85,12.35 131.33,37.05 39.49,24.7 70.98,57.93 94.46,99.68 23.48,41.74 35.13,88.01 35.13,138.81 0,37.92 -6.78,73.4 -20.35,106.45 -13.56,33.05 -32.18,62.1 -56.01,87.32 -23.83,25.23 -51.49,45.06 -82.97,59.32 -31.49,14.27 -65.41,21.4 -101.59,21.4zm0 -144.03c22.27,0 42.27,-6.09 60.01,-18.09 17.75,-12.01 31.66,-27.84 41.75,-47.66 10.09,-19.84 15.14,-41.4 15.14,-64.71 0,-24.01 -5.22,-46.1 -15.83,-66.1 -10.61,-20.01 -24.88,-35.84 -42.62,-47.67 -17.74,-11.83 -37.23,-17.74 -58.45,-17.74 -21.92,0 -41.74,6.09 -59.49,18.27 -17.74,12.17 -31.66,28.18 -41.92,48.01 -10.26,19.83 -15.48,41.57 -15.48,65.23 0,24.7 5.39,46.79 16,66.44 10.61,19.66 24.7,35.32 42.45,46.8 17.74,11.48 37.22,17.22 58.44,17.22zm653.35 -34.44l129.42 69.92c-24,32.71 -54.1,58.97 -90.28,78.8 -36.18,19.83 -75.67,29.75 -118.46,29.75 -48.01,0 -91.67,-12.35 -131.16,-37.05 -39.48,-24.7 -70.97,-57.93 -94.45,-99.5 -23.48,-41.58 -35.31,-87.5 -35.31,-137.94 0,-38.27 6.78,-74.11 20.35,-107.33 13.57,-33.22 32.36,-62.45 56.19,-87.67 23.83,-25.22 51.49,-44.88 83.14,-59.14 31.66,-14.27 65.41,-21.4 101.24,-21.4 42.79,0 82.28,9.92 118.46,29.75 36.18,19.83 66.28,46.44 90.28,79.84l-129.42 69.93c-10.78,-11.48 -22.96,-20.36 -36.7,-26.44 -13.74,-6.09 -28.01,-9.05 -42.62,-9.05 -22.26,0 -42.09,6.09 -59.66,18.27 -17.57,12.17 -31.49,28.18 -41.75,48.18 -10.26,20 -15.48,41.75 -15.48,65.06 0,22.96 5.22,44.35 15.65,64.18 10.44,19.83 24.53,35.84 42.1,48.01 17.57,12.18 37.22,18.27 59.14,18.27 14.96,0 29.23,-3.13 42.79,-9.4 13.57,-6.26 25.75,-14.61 36.53,-25.04zm688.84 164.9l-165.95 0 -110.63 -190.48 -63.67 75.67 0 114.81 -144.03 0 0 -782.77 144.03 0 0 444.09 153.43 -183.17 187.86 0 -178.99 214.48 177.95 307.37zm892.35 -730.58l0 144.03 -215 0 0 586.55 -144.03 0 0 -586.55 -215 0 0 -144.03 574.03 0zm255.19 744.15c-48.01,0 -91.67,-12.35 -131.16,-37.05 -39.49,-24.7 -70.97,-57.93 -94.46,-99.68 -23.48,-41.74 -35.31,-87.84 -35.31,-138.29 0,-37.92 6.79,-73.58 20.36,-106.8 13.56,-33.22 32.35,-62.45 56.18,-87.67 23.83,-25.22 51.49,-44.88 83.15,-59.14 31.66,-14.27 65.4,-21.4 101.24,-21.4 41.4,0 79.32,8.87 113.58,26.62 34.27,17.74 63.32,41.92 87.15,72.53 23.83,30.62 40.88,65.23 51.14,103.85 10.27,38.62 11.83,78.8 4.87,120.55l-362.16 0c4.53,15.3 11.66,29.04 21.22,41.4 9.57,12.35 21.4,22.26 35.49,29.57 14.09,7.3 30.27,11.13 48.71,11.48 18.09,0.35 34.79,-3.83 50.09,-12.53 15.31,-8.69 28.36,-20.35 39.14,-34.96l147.16 33.92c-21.22,46.27 -52.88,84.02 -94.97,113.41 -42.1,29.4 -89.24,44.19 -141.42,44.19zm-110.63 -332.94l221.78 0c-4.52,-17.4 -12.18,-33.05 -22.96,-46.97 -10.79,-13.91 -23.66,-24.87 -38.79,-32.87 -15.14,-8.01 -31.66,-12.01 -49.4,-12.01 -17.4,0 -33.58,4 -48.71,12.01 -15.13,8 -28,18.78 -38.62,32.53 -10.61,13.74 -18.43,29.57 -23.3,47.31zm607.94 328.76c-26.78,-2.09 -52.53,-7.83 -77.23,-17.05 -24.7,-9.21 -46.62,-21.74 -65.93,-37.57 -19.3,-15.83 -34.44,-34.79 -45.22,-57.05l121.07 -52.19c3.82,5.57 9.56,11.48 17.22,17.92 7.65,6.44 17.04,12.18 28,17.05 10.96,4.87 23.66,7.3 38.27,7.3 10.79,0 21.22,-1.39 31.31,-4 10.09,-2.61 18.27,-6.96 24.53,-13.05 6.26,-6.08 9.39,-14.08 9.39,-24.17 0,-11.14 -4,-19.66 -12,-25.57 -8,-5.92 -17.57,-10.44 -28.88,-13.4 -11.3,-2.96 -22.26,-5.39 -32.7,-7.48 -32,-5.56 -62.1,-15.65 -90.45,-30.09 -28.35,-14.44 -51.49,-33.05 -69.23,-56.01 -17.74,-22.96 -26.62,-50.45 -26.62,-82.45 0,-35.14 9.22,-65.58 27.66,-91.15 18.44,-25.57 42.45,-45.23 72.02,-59.15 29.57,-13.91 61.57,-20.87 96.02,-20.87 40.7,0 78.45,8.52 113.24,25.57 34.79,17.05 62.79,41.05 84.01,72.02l-113.76 67.31c-4.52,-6.61 -10.26,-13.04 -17.39,-19.13 -7.14,-6.09 -15.31,-11.31 -24.53,-15.66 -9.22,-4.35 -19.13,-6.78 -29.57,-7.48 -13.57,-1.04 -25.92,-0.34 -37.05,2.27 -11.14,2.6 -19.83,7.47 -26.27,14.43 -6.44,6.96 -9.74,16.35 -9.74,28.18 0,11.48 5.04,19.83 15.13,25.23 10.09,5.39 21.75,9.39 34.97,12 13.22,2.61 24.87,5.74 34.96,9.22 30.27,9.74 58.79,22.09 85.41,37.22 26.61,15.14 48.01,33.75 64.36,55.67 16.35,21.91 24,47.66 22.96,77.23 0,34.44 -10.26,64.53 -30.79,90.45 -20.52,25.92 -46.96,45.58 -79.49,58.97 -32.53,13.39 -67.15,18.61 -103.68,15.48zm587.08 -387.21l-93.93 0 0 377.82 -144.03 0 0 -377.82 -72.02 0 0 -144.03 72.02 0 0 -163.86 144.03 0 0 163.86 93.93 0 0 144.03z"/>
  </g>
 </g>
</svg>
