<?xml version="1.0" encoding="UTF-8"?>
<!DOCTYPE svg PUBLIC "-//W3C//DTD SVG 1.1//EN" "http://www.w3.org/Graphics/SVG/1.1/DTD/svg11.dtd">
<!-- Creator: CorelDRAW 2019 (64-Bit) -->
<svg xmlns="http://www.w3.org/2000/svg" xml:space="preserve" width="812px" height="812px" version="1.1" style="shape-rendering:geometricPrecision; text-rendering:geometricPrecision; image-rendering:optimizeQuality; fill-rule:evenodd; clip-rule:evenodd"
viewBox="0 0 132.83 132.83"
 xmlns:xlink="http://www.w3.org/1999/xlink">
 <defs>
  <style type="text/css">
   <![CDATA[
    .fil2 {fill:#7400B8;fill-rule:nonzero}
    .fil3 {fill:#7400B8;fill-rule:nonzero;fill-opacity:0.101961}
    .fil0 {fill:url(#id0)}
    .fil1 {fill:url(#id1);fill-opacity:0.501961}
   ]]>
  </style>
  <linearGradient id="id0" gradientUnits="userSpaceOnUse" x1="66.42" y1="132.83" x2="66.42" y2="0">
   <stop offset="0" style="stop-opacity:1; stop-color:#EBE9F9"/>
   <stop offset="1" style="stop-opacity:1; stop-color:#FEE8FE"/>
  </linearGradient>
  <linearGradient id="id1" gradientUnits="userSpaceOnUse" xlink:href="#id0" x1="66.42" y1="132.83" x2="66.42" y2="0">
  </linearGradient>
 </defs>
 <g id="Layer_x0020_1">
  <metadata id="CorelCorpID_0Corel-Layer"/>
  <g id="_1758009598976">
   <circle class="fil0" cx="66.42" cy="66.42" r="66.42"/>
   <path class="fil1" d="M66.42 0c36.68,0 66.41,29.74 66.41,66.42 0,36.68 -29.73,66.41 -66.41,66.41 -36.68,0 -66.42,-29.73 -66.42,-66.41 0,-36.68 29.74,-66.42 66.42,-66.42z"/>
   <path class="fil2" d="M43 116.57c-0.16,-0.07 -0.27,-0.19 -0.33,-0.35 -0.06,-0.16 -0.06,-0.31 0.02,-0.47 0.07,-0.17 0.21,-0.34 0.41,-0.52l1.12 -1 0.54 0.25 -0.95 1.21c0.05,0.08 0.07,0.18 0.07,0.28 0.01,0.1 -0.01,0.2 -0.06,0.29 -0.07,0.16 -0.19,0.27 -0.34,0.33 -0.16,0.06 -0.32,0.05 -0.48,-0.02z"/>
   <path id="1" class="fil2" d="M35.78 116.89c-0.25,-0.14 -0.45,-0.3 -0.62,-0.48 -0.16,-0.19 -0.29,-0.41 -0.39,-0.67l0.6 -0.26c0.08,0.18 0.18,0.34 0.29,0.47 0.11,0.12 0.25,0.24 0.42,0.33 0.33,0.19 0.67,0.2 1,0.04 0.34,-0.16 0.65,-0.51 0.94,-1.03 0.3,-0.52 0.42,-0.95 0.38,-1.3 -0.04,-0.36 -0.23,-0.63 -0.57,-0.82 -0.16,-0.09 -0.33,-0.15 -0.49,-0.17 -0.16,-0.03 -0.36,-0.04 -0.59,-0.02l-0.06 -0.65c0.54,-0.1 1.05,-0.01 1.51,0.25 0.56,0.32 0.89,0.75 1,1.31 0.11,0.55 -0.02,1.16 -0.39,1.82 -0.25,0.44 -0.54,0.78 -0.87,1.03 -0.33,0.25 -0.68,0.39 -1.05,0.42 -0.37,0.03 -0.74,-0.06 -1.11,-0.27z"/>
   <path id="2" class="fil2" d="M31.95 114.36c-0.55,-0.37 -0.85,-0.85 -0.91,-1.42 -0.05,-0.58 0.14,-1.18 0.56,-1.8 0.28,-0.41 0.6,-0.72 0.95,-0.93 0.34,-0.22 0.71,-0.32 1.09,-0.31 0.38,0.01 0.74,0.13 1.11,0.38 0.54,0.38 0.85,0.85 0.9,1.43 0.06,0.57 -0.13,1.17 -0.56,1.8 -0.27,0.41 -0.59,0.72 -0.93,0.93 -0.36,0.21 -0.72,0.32 -1.1,0.31 -0.37,-0.01 -0.75,-0.14 -1.11,-0.39zm0.37 -0.55c0.68,0.46 1.36,0.2 2.04,-0.8 0.68,-1 0.68,-1.72 0.01,-2.18 -0.67,-0.46 -1.35,-0.19 -2.03,0.81 -0.68,0.99 -0.69,1.72 -0.02,2.17z"/>
   <path id="3" class="fil2" d="M27.11 110.46c-0.33,-0.28 -0.5,-0.6 -0.52,-0.95 -0.01,-0.35 0.12,-0.7 0.41,-1.04l2.21 -2.58 0.63 0.53 -2.13 2.5c-0.22,0.25 -0.33,0.47 -0.32,0.66 0.01,0.18 0.1,0.36 0.29,0.52 0.19,0.16 0.41,0.25 0.64,0.26 0.24,0.02 0.51,-0.02 0.82,-0.12l2.18 -2.55 0.63 0.54 -3.08 3.59 -0.54 -0.46 0.4 -0.58c-0.29,0.09 -0.57,0.1 -0.86,0.05 -0.28,-0.05 -0.53,-0.18 -0.76,-0.37z"/>
   <path id="4" class="fil2" d="M23.65 107.11c-0.22,-0.23 -0.39,-0.48 -0.5,-0.72 -0.12,-0.25 -0.19,-0.52 -0.22,-0.82l0.62 -0.1c0.05,0.25 0.12,0.47 0.2,0.65 0.09,0.19 0.21,0.36 0.36,0.52 0.18,0.19 0.37,0.31 0.56,0.34 0.18,0.04 0.35,-0.01 0.48,-0.14 0.14,-0.13 0.2,-0.29 0.18,-0.47 -0.02,-0.18 -0.13,-0.44 -0.32,-0.79 -0.27,-0.47 -0.41,-0.88 -0.43,-1.23 -0.01,-0.34 0.12,-0.65 0.41,-0.92 0.34,-0.32 0.72,-0.44 1.15,-0.35 0.43,0.1 0.82,0.33 1.18,0.71 0.49,0.52 0.76,1.09 0.78,1.72l-0.66 0.03c-0.06,-0.5 -0.26,-0.93 -0.59,-1.28 -0.21,-0.23 -0.43,-0.36 -0.65,-0.41 -0.22,-0.04 -0.41,0.02 -0.57,0.17 -0.12,0.11 -0.19,0.23 -0.22,0.34 -0.02,0.12 -0.01,0.26 0.05,0.43 0.06,0.17 0.16,0.39 0.32,0.68 0.25,0.45 0.37,0.83 0.37,1.15 -0.01,0.32 -0.13,0.59 -0.38,0.83 -0.18,0.17 -0.39,0.27 -0.64,0.3 -0.24,0.03 -0.5,-0.01 -0.76,-0.12 -0.26,-0.11 -0.5,-0.29 -0.72,-0.52z"/>
   <path id="5" class="fil2" d="M20.98 100.36c0.11,-0.09 0.23,-0.17 0.35,-0.25l1.84 2.39c0.39,-0.35 0.61,-0.69 0.67,-1.02 0.06,-0.33 -0.03,-0.63 -0.25,-0.92 -0.14,-0.18 -0.29,-0.32 -0.46,-0.43 -0.17,-0.12 -0.37,-0.21 -0.62,-0.29l0.18 -0.58c0.62,0.15 1.11,0.47 1.47,0.94 0.41,0.52 0.55,1.06 0.43,1.61 -0.11,0.56 -0.47,1.07 -1.06,1.53 -0.39,0.3 -0.79,0.5 -1.18,0.61 -0.4,0.11 -0.78,0.11 -1.13,0.01 -0.35,-0.11 -0.65,-0.32 -0.89,-0.63 -0.39,-0.5 -0.52,-1.01 -0.4,-1.53 0.12,-0.51 0.47,-1 1.05,-1.44zm0.31 0.79c-0.37,0.29 -0.59,0.58 -0.68,0.88 -0.08,0.29 0,0.59 0.22,0.88 0.42,0.54 1.04,0.52 1.86,-0.04l-1.36 -1.75 -0.04 0.03z"/>
   <path id="6" class="fil2" d="M17.14 98.9c-0.15,-0.24 -0.25,-0.48 -0.31,-0.72 -0.06,-0.24 -0.07,-0.5 -0.03,-0.78l0.65 0.06c-0.01,0.2 0,0.39 0.04,0.56 0.04,0.16 0.11,0.32 0.21,0.48 0.2,0.33 0.49,0.5 0.86,0.52 0.37,0.01 0.81,-0.14 1.32,-0.46 0.51,-0.32 0.82,-0.64 0.95,-0.97 0.13,-0.33 0.09,-0.66 -0.12,-0.99 -0.1,-0.15 -0.21,-0.28 -0.34,-0.38 -0.13,-0.11 -0.3,-0.2 -0.51,-0.3l0.25 -0.61c0.53,0.18 0.93,0.5 1.21,0.95 0.35,0.54 0.43,1.08 0.27,1.62 -0.17,0.54 -0.58,1.02 -1.22,1.42 -0.43,0.27 -0.84,0.44 -1.25,0.5 -0.41,0.06 -0.79,0.01 -1.13,-0.14 -0.34,-0.15 -0.62,-0.4 -0.85,-0.76z"/>
   <path id="7" class="fil2" d="M18.49 92.18c0.34,0.16 0.61,0.41 0.81,0.75 0.21,0.35 0.26,0.67 0.18,0.98 -0.09,0.31 -0.32,0.58 -0.7,0.8l-2.46 1.44 0.41 0.71 -0.55 0.32 -0.41 -0.71 -0.92 0.54 -0.51 -0.66 1.01 -0.59 -0.57 -0.97 0.6 -0.25 0.52 0.9 2.44 -1.43c0.21,-0.12 0.34,-0.25 0.39,-0.38 0.05,-0.13 0.03,-0.28 -0.08,-0.46 -0.09,-0.16 -0.25,-0.31 -0.47,-0.45l0.31 -0.54z"/>
   <path id="8" class="fil2" d="M14.44 89.47c0.12,-0.07 0.25,-0.13 0.38,-0.19l1.43 2.66c0.45,-0.28 0.72,-0.57 0.83,-0.89 0.11,-0.32 0.08,-0.63 -0.09,-0.95 -0.11,-0.2 -0.24,-0.37 -0.39,-0.51 -0.15,-0.14 -0.34,-0.26 -0.56,-0.38l0.26 -0.55c0.59,0.26 1.03,0.65 1.31,1.17 0.31,0.58 0.37,1.14 0.16,1.67 -0.21,0.53 -0.64,0.97 -1.31,1.33 -0.43,0.23 -0.85,0.37 -1.26,0.41 -0.41,0.04 -0.78,-0.02 -1.11,-0.18 -0.33,-0.16 -0.59,-0.41 -0.78,-0.77 -0.3,-0.55 -0.34,-1.07 -0.14,-1.57 0.2,-0.49 0.63,-0.91 1.27,-1.25zm0.18 0.83c-0.42,0.22 -0.69,0.47 -0.81,0.75 -0.13,0.28 -0.11,0.59 0.07,0.91 0.32,0.6 0.93,0.69 1.84,0.27l-1.06 -1.95 -0.04 0.02z"/>
   <path id="9" class="fil2" d="M15.26 84.82c0.31,0.22 0.53,0.52 0.66,0.89 0.14,0.38 0.13,0.71 -0.01,1 -0.14,0.29 -0.41,0.51 -0.82,0.66l-2.69 0.97 0.28 0.77 -0.6 0.22 -0.28 -0.78 -1.01 0.36 -0.37 -0.74 1.1 -0.39 -0.38 -1.06 0.63 -0.13 0.35 0.97 2.65 -0.96c0.23,-0.08 0.39,-0.18 0.46,-0.3 0.08,-0.12 0.08,-0.28 0.01,-0.47 -0.06,-0.17 -0.19,-0.35 -0.39,-0.52l0.41 -0.49z"/>
   <path id="10" class="fil2" d="M14.08 80.6l0.2 0.68 -0.69 0.27c0.34,0.09 0.6,0.23 0.79,0.41 0.2,0.19 0.35,0.44 0.44,0.76 0.12,0.4 0.09,0.75 -0.09,1.04 -0.17,0.3 -0.48,0.51 -0.92,0.64l-3.26 0.96 -0.23 -0.79 3.17 -0.94c0.31,-0.09 0.51,-0.21 0.61,-0.36 0.1,-0.14 0.11,-0.34 0.03,-0.59 -0.13,-0.44 -0.5,-0.74 -1.12,-0.9l-3.23 0.95 -0.24 -0.79 4.54 -1.34z"/>
   <path id="11" class="fil2" d="M8.5 78.02c-0.04,-0.17 -0.06,-0.32 -0.05,-0.47l0.82 -0.03c0,0.15 0.01,0.29 0.04,0.41 0.06,0.29 0.22,0.49 0.47,0.62 0.25,0.13 0.61,0.19 1.08,0.19l2.63 -0.6 0.19 0.8 -4.62 1.06 -0.15 -0.69 0.91 -0.3c-0.37,-0.04 -0.67,-0.15 -0.89,-0.32 -0.22,-0.17 -0.37,-0.39 -0.43,-0.67z"/>
   <path id="12" class="fil2" d="M11.22 70.11c0.19,-0.02 0.33,-0.06 0.42,-0.14 0.09,-0.07 0.15,-0.18 0.19,-0.31l0.58 0.14c-0.01,0.25 -0.06,0.45 -0.16,0.61 -0.09,0.16 -0.25,0.28 -0.47,0.37 0.5,0.28 0.77,0.73 0.82,1.35 0.04,0.46 -0.06,0.84 -0.3,1.13 -0.24,0.29 -0.58,0.45 -1,0.49 -0.5,0.04 -0.9,-0.11 -1.2,-0.45 -0.3,-0.34 -0.47,-0.84 -0.52,-1.5l-0.06 -0.73 -0.35 0.03c-0.34,0.03 -0.57,0.13 -0.7,0.3 -0.13,0.17 -0.18,0.43 -0.15,0.76 0.02,0.35 0.14,0.76 0.35,1.25l-0.58 0.26c-0.27,-0.57 -0.42,-1.1 -0.46,-1.61 -0.04,-0.55 0.06,-0.98 0.31,-1.27 0.25,-0.3 0.62,-0.47 1.12,-0.51l2.16 -0.17zm0.75 1.88c-0.04,-0.47 -0.31,-0.82 -0.82,-1.05l-1.09 0.09 0.05 0.62c0.07,0.87 0.43,1.28 1.08,1.22 0.28,-0.02 0.48,-0.1 0.61,-0.25 0.14,-0.15 0.19,-0.36 0.17,-0.63z"/>
   <path id="13" class="fil2" d="M5.61 64.71l6.64 -0.06 0 0.73 -0.65 0.09c0.24,0.15 0.43,0.34 0.57,0.58 0.13,0.23 0.2,0.49 0.2,0.78 0.01,0.56 -0.21,1 -0.65,1.32 -0.44,0.31 -1.04,0.48 -1.78,0.48 -0.49,0.01 -0.92,-0.06 -1.3,-0.21 -0.38,-0.15 -0.67,-0.36 -0.89,-0.64 -0.21,-0.28 -0.32,-0.61 -0.33,-0.99 0,-0.48 0.19,-0.91 0.58,-1.28l-2.48 0.02 0.09 -0.82zm6.11 1.94c-0.01,-0.25 -0.07,-0.47 -0.19,-0.64 -0.11,-0.18 -0.29,-0.35 -0.52,-0.52l-2.32 0.02c-0.2,0.16 -0.36,0.32 -0.46,0.5 -0.1,0.18 -0.15,0.38 -0.15,0.6 0,0.36 0.16,0.65 0.46,0.84 0.31,0.2 0.77,0.3 1.37,0.29 0.61,0 1.07,-0.1 1.36,-0.29 0.3,-0.18 0.45,-0.45 0.45,-0.8z"/>
   <path id="14" class="fil2" d="M7.7 61.73l4.71 0.39 -0.07 0.83 -4.71 -0.39 0.07 -0.83zm-2.3 0.24c0.01,-0.18 0.08,-0.31 0.19,-0.41 0.12,-0.1 0.26,-0.14 0.42,-0.13 0.16,0.01 0.29,0.08 0.38,0.2 0.1,0.11 0.14,0.26 0.12,0.43 -0.01,0.17 -0.07,0.3 -0.19,0.4 -0.11,0.1 -0.25,0.14 -0.41,0.13 -0.16,-0.02 -0.29,-0.08 -0.39,-0.2 -0.1,-0.12 -0.14,-0.26 -0.12,-0.42z"/>
   <path id="15" class="fil2" d="M8.05 57.61c0.09,-0.6 0.36,-1.01 0.82,-1.23 0.47,-0.22 1.09,-0.27 1.87,-0.17 0.73,0.1 1.3,0.35 1.71,0.73 0.41,0.38 0.57,0.86 0.49,1.45 -0.07,0.52 -0.3,0.91 -0.7,1.16l2.22 0.3 -0.01 0.83 -6.59 -0.9 0.1 -0.7 0.64 0.02c-0.21,-0.2 -0.37,-0.44 -0.46,-0.7 -0.09,-0.26 -0.12,-0.52 -0.09,-0.79zm4.2 0.89c0.1,-0.78 -0.44,-1.24 -1.63,-1.41 -1.2,-0.16 -1.85,0.11 -1.95,0.82 -0.03,0.23 0.01,0.45 0.12,0.66 0.11,0.21 0.27,0.4 0.46,0.57l2.29 0.31c0.2,-0.09 0.36,-0.22 0.48,-0.39 0.12,-0.16 0.2,-0.35 0.23,-0.56z"/>
   <path id="16" class="fil2" d="M8.95 53.32l4.62 1.03 -0.18 0.8 -4.62 -1.03 0.18 -0.8zm-2.31 -0.09c0.04,-0.16 0.12,-0.29 0.25,-0.37 0.13,-0.08 0.27,-0.11 0.43,-0.07 0.16,0.03 0.28,0.12 0.36,0.24 0.07,0.13 0.1,0.28 0.06,0.45 -0.04,0.16 -0.12,0.29 -0.25,0.37 -0.12,0.08 -0.26,0.1 -0.42,0.07 -0.16,-0.04 -0.28,-0.12 -0.36,-0.25 -0.08,-0.13 -0.11,-0.27 -0.07,-0.44z"/>
   <path id="17" class="fil2" d="M9.74 50.01c0.1,-0.31 0.23,-0.58 0.39,-0.79 0.17,-0.22 0.37,-0.42 0.61,-0.58l0.39 0.49c-0.19,0.16 -0.35,0.32 -0.48,0.49 -0.12,0.17 -0.21,0.35 -0.27,0.56 -0.09,0.25 -0.1,0.47 -0.04,0.66 0.06,0.18 0.18,0.3 0.36,0.35 0.19,0.06 0.35,0.04 0.5,-0.07 0.15,-0.11 0.33,-0.33 0.54,-0.66 0.28,-0.47 0.57,-0.79 0.87,-0.97 0.29,-0.18 0.63,-0.21 1.01,-0.09 0.44,0.14 0.73,0.42 0.85,0.84 0.13,0.42 0.11,0.88 -0.05,1.38 -0.21,0.68 -0.59,1.19 -1.13,1.51l-0.34 -0.57c0.41,-0.29 0.69,-0.67 0.83,-1.13 0.1,-0.3 0.11,-0.55 0.04,-0.76 -0.06,-0.22 -0.2,-0.35 -0.42,-0.42 -0.15,-0.05 -0.28,-0.06 -0.4,-0.02 -0.11,0.03 -0.23,0.11 -0.35,0.24 -0.12,0.13 -0.27,0.34 -0.44,0.61 -0.28,0.44 -0.56,0.73 -0.83,0.88 -0.28,0.14 -0.58,0.17 -0.91,0.06 -0.23,-0.07 -0.42,-0.21 -0.57,-0.41 -0.15,-0.2 -0.24,-0.44 -0.26,-0.72 -0.03,-0.28 0.01,-0.58 0.1,-0.88z"/>
   <path id="18" class="fil2" d="M11.28 45.34c0.1,-0.26 0.23,-0.49 0.39,-0.68 0.15,-0.19 0.36,-0.35 0.6,-0.49l0.35 0.56c-0.17,0.11 -0.32,0.23 -0.42,0.36 -0.11,0.13 -0.2,0.28 -0.27,0.46 -0.14,0.36 -0.1,0.69 0.11,1 0.21,0.31 0.6,0.57 1.16,0.78 0.55,0.21 1,0.27 1.35,0.17 0.34,-0.09 0.57,-0.32 0.71,-0.68 0.07,-0.18 0.1,-0.35 0.1,-0.51 0.01,-0.17 -0.02,-0.36 -0.07,-0.59l0.64 -0.16c0.17,0.53 0.16,1.04 -0.03,1.54 -0.22,0.6 -0.6,0.99 -1.14,1.18 -0.53,0.2 -1.15,0.16 -1.86,-0.11 -0.47,-0.18 -0.85,-0.42 -1.15,-0.71 -0.29,-0.29 -0.48,-0.61 -0.57,-0.98 -0.08,-0.36 -0.05,-0.74 0.1,-1.14z"/>
   <path id="19" class="fil2" d="M12.8 41.96l4.31 1.97 -0.34 0.75 -4.31 -1.97 0.34 -0.75zm-2.24 -0.56c0.07,-0.16 0.18,-0.26 0.33,-0.31 0.14,-0.06 0.28,-0.05 0.43,0.02 0.15,0.06 0.25,0.17 0.3,0.31 0.05,0.14 0.04,0.29 -0.04,0.45 -0.07,0.15 -0.17,0.25 -0.31,0.31 -0.14,0.05 -0.28,0.05 -0.43,-0.02 -0.15,-0.07 -0.25,-0.17 -0.3,-0.32 -0.05,-0.14 -0.05,-0.29 0.02,-0.44z"/>
   <path id="20" class="fil2" d="M14.59 38.18c0.2,-0.38 0.47,-0.62 0.81,-0.72 0.34,-0.09 0.71,-0.04 1.11,0.17l3.01 1.57 -0.38 0.73 -2.91 -1.51c-0.3,-0.16 -0.53,-0.21 -0.71,-0.16 -0.18,0.04 -0.33,0.18 -0.44,0.39 -0.12,0.23 -0.16,0.46 -0.12,0.69 0.04,0.24 0.14,0.5 0.3,0.77l2.98 1.55 -0.38 0.73 -4.2 -2.18 0.33 -0.63 0.65 0.26c-0.14,-0.27 -0.22,-0.54 -0.24,-0.83 -0.01,-0.29 0.05,-0.56 0.19,-0.83z"/>
   <path id="21" class="fil2" d="M18.66 32.16c-0.05,0.19 -0.12,0.37 -0.22,0.57 -0.1,0.19 -0.23,0.41 -0.4,0.68 0.51,-0.34 1,-0.36 1.46,-0.07 0.4,0.25 0.64,0.6 0.72,1.03 0.08,0.43 -0.03,0.88 -0.33,1.36 -0.12,0.18 -0.25,0.33 -0.4,0.46 0,0.08 0.03,0.16 0.07,0.24 0.05,0.08 0.11,0.14 0.18,0.19 0.22,0.14 0.44,0.03 0.66,-0.32l0.4 -0.64c0.17,-0.26 0.37,-0.47 0.6,-0.62 0.22,-0.14 0.46,-0.22 0.7,-0.23 0.23,-0.01 0.46,0.06 0.67,0.19 0.39,0.25 0.59,0.6 0.6,1.05 0.01,0.45 -0.18,0.98 -0.57,1.59 -0.27,0.43 -0.53,0.74 -0.78,0.94 -0.25,0.19 -0.49,0.29 -0.74,0.28 -0.24,0 -0.5,-0.1 -0.78,-0.27l0.4 -0.63c0.16,0.1 0.31,0.15 0.44,0.15 0.13,0 0.27,-0.07 0.42,-0.19 0.15,-0.13 0.31,-0.33 0.49,-0.62 0.27,-0.42 0.41,-0.76 0.42,-1 0.01,-0.25 -0.09,-0.43 -0.3,-0.57 -0.19,-0.11 -0.37,-0.13 -0.56,-0.05 -0.18,0.08 -0.36,0.25 -0.52,0.5l-0.4 0.63c-0.21,0.34 -0.45,0.55 -0.7,0.63 -0.25,0.08 -0.49,0.06 -0.71,-0.08 -0.13,-0.08 -0.23,-0.2 -0.31,-0.36 -0.07,-0.15 -0.11,-0.33 -0.12,-0.53 -0.26,0.16 -0.52,0.23 -0.77,0.23 -0.25,-0.01 -0.5,-0.09 -0.76,-0.25 -0.27,-0.17 -0.47,-0.39 -0.59,-0.66 -0.13,-0.27 -0.18,-0.56 -0.15,-0.87 0.03,-0.31 0.14,-0.61 0.32,-0.9 0.2,-0.31 0.36,-0.58 0.47,-0.81 0.1,-0.23 0.17,-0.43 0.22,-0.6 0.03,-0.17 0.07,-0.38 0.11,-0.64l0.76 0.19zm-1.06 2.18c-0.17,0.26 -0.21,0.52 -0.14,0.77 0.07,0.24 0.24,0.45 0.51,0.62 0.27,0.18 0.54,0.24 0.8,0.2 0.25,-0.04 0.47,-0.2 0.64,-0.47 0.17,-0.27 0.22,-0.53 0.15,-0.77 -0.06,-0.25 -0.24,-0.46 -0.53,-0.65 -0.59,-0.37 -1.07,-0.27 -1.43,0.3z"/>
   <path id="22" class="fil2" d="M24.95 27.73c0.11,0.09 0.21,0.19 0.31,0.29l-1.96 2.29c0.42,0.31 0.8,0.46 1.13,0.45 0.34,-0.02 0.62,-0.16 0.86,-0.43 0.14,-0.17 0.25,-0.35 0.33,-0.54 0.07,-0.19 0.12,-0.41 0.15,-0.66l0.61 0.04c-0.03,0.64 -0.23,1.19 -0.62,1.64 -0.43,0.5 -0.93,0.75 -1.5,0.75 -0.56,0 -1.13,-0.24 -1.71,-0.73 -0.37,-0.32 -0.65,-0.66 -0.83,-1.03 -0.19,-0.37 -0.27,-0.74 -0.24,-1.1 0.03,-0.37 0.17,-0.7 0.43,-1.01 0.41,-0.47 0.88,-0.71 1.42,-0.69 0.53,0.01 1.07,0.26 1.62,0.73zm-0.71 0.46c-0.36,-0.3 -0.69,-0.46 -0.99,-0.48 -0.31,-0.02 -0.58,0.11 -0.83,0.4 -0.44,0.51 -0.3,1.11 0.42,1.8l1.44 -1.68 -0.04 -0.04z"/>
   <path id="23" class="fil2" d="M28.55 27.84c-0.22,0.21 -0.46,0.32 -0.71,0.31 -0.26,-0.01 -0.5,-0.13 -0.73,-0.37l-3.96 -4.1 0.52 -0.64 4.02 4.15c0.1,0.1 0.18,0.15 0.25,0.16 0.08,0.01 0.15,-0.02 0.23,-0.09 0.08,-0.08 0.14,-0.17 0.18,-0.25l0.56 0.26c-0.07,0.21 -0.19,0.41 -0.36,0.57z"/>
   <path id="24" class="fil2" d="M26.99 22.61l3.29 3.4 -0.59 0.58 -3.3 -3.4 0.6 -0.58zm-1.89 -1.33c0.13,-0.12 0.27,-0.18 0.42,-0.18 0.15,0 0.28,0.06 0.4,0.18 0.11,0.11 0.16,0.25 0.16,0.4 -0.01,0.15 -0.07,0.28 -0.2,0.4 -0.12,0.12 -0.25,0.18 -0.4,0.18 -0.15,0 -0.28,-0.06 -0.4,-0.18 -0.11,-0.11 -0.16,-0.25 -0.16,-0.4 0,-0.15 0.06,-0.29 0.18,-0.4z"/>
   <path id="25" class="fil2" d="M33.33 23.27c-0.11,0.36 -0.33,0.66 -0.64,0.9 -0.32,0.24 -0.63,0.35 -0.95,0.3 -0.32,-0.04 -0.61,-0.24 -0.88,-0.59l-1.75 -2.26 -0.65 0.51 -0.39 -0.5 0.65 -0.51 -0.65 -0.85 0.59 -0.58 0.72 0.92 0.88 -0.68 0.32 0.56 -0.82 0.63 1.73 2.23c0.15,0.19 0.29,0.31 0.43,0.34 0.14,0.04 0.29,-0.01 0.45,-0.13 0.14,-0.11 0.27,-0.29 0.38,-0.53l0.58 0.24z"/>
   <path id="26" class="fil2" d="M33.71 21.86c0.15,-0.1 0.31,-0.14 0.47,-0.11 0.17,0.03 0.3,0.12 0.4,0.26 0.1,0.14 0.14,0.3 0.11,0.47 -0.03,0.17 -0.11,0.3 -0.26,0.41 -0.14,0.1 -0.3,0.13 -0.47,0.1 -0.16,-0.03 -0.3,-0.12 -0.4,-0.26 -0.1,-0.15 -0.13,-0.3 -0.1,-0.47 0.02,-0.16 0.11,-0.3 0.25,-0.4z"/>
   <path id="27" class="fil2" d="M40.67 16.49c0.2,0.36 0.3,0.72 0.31,1.08 0.01,0.36 -0.09,0.69 -0.29,1.01 -0.19,0.31 -0.49,0.58 -0.89,0.8 -0.6,0.34 -1.15,0.44 -1.66,0.29 -0.52,-0.15 -0.93,-0.5 -1.24,-1.05l-2.07 -3.66 0.74 -0.42 2.04 3.61c0.24,0.41 0.51,0.67 0.81,0.78 0.31,0.1 0.65,0.04 1.03,-0.17 0.39,-0.22 0.61,-0.49 0.69,-0.8 0.07,-0.31 -0.02,-0.68 -0.25,-1.1l-2.04 -3.6 0.75 -0.43 2.07 3.66z"/>
   <path id="28" class="fil2" d="M45.22 16.29c-0.19,0.33 -0.47,0.57 -0.83,0.74 -0.36,0.16 -0.7,0.19 -1,0.07 -0.3,-0.11 -0.54,-0.37 -0.72,-0.77l-1.19 -2.59 -0.75 0.34 -0.27 -0.58 0.75 -0.34 -0.44 -0.97 0.71 -0.44 0.49 1.06 1.02 -0.46 0.18 0.61 -0.94 0.43 1.17 2.57c0.11,0.22 0.22,0.36 0.35,0.43 0.12,0.06 0.28,0.05 0.46,-0.03 0.17,-0.08 0.33,-0.22 0.49,-0.44l0.52 0.37z"/>
   <path id="29" class="fil2" d="M50.94 11.87c0.05,0.13 0.09,0.26 0.12,0.4l-2.86 0.96c0.2,0.48 0.44,0.8 0.74,0.96 0.29,0.16 0.61,0.19 0.95,0.07 0.21,-0.07 0.4,-0.16 0.56,-0.29 0.16,-0.12 0.32,-0.28 0.48,-0.49l0.49 0.36c-0.35,0.53 -0.81,0.89 -1.38,1.08 -0.62,0.21 -1.18,0.17 -1.66,-0.12 -0.49,-0.3 -0.85,-0.8 -1.09,-1.51 -0.15,-0.47 -0.22,-0.91 -0.19,-1.32 0.03,-0.41 0.16,-0.76 0.37,-1.06 0.21,-0.3 0.51,-0.51 0.89,-0.64 0.59,-0.2 1.12,-0.16 1.57,0.13 0.44,0.29 0.78,0.77 1.01,1.47zm-0.85 0.03c-0.14,-0.45 -0.35,-0.76 -0.6,-0.93 -0.25,-0.17 -0.56,-0.2 -0.91,-0.08 -0.64,0.21 -0.83,0.8 -0.57,1.76l2.1 -0.7 -0.02 -0.05z"/>
   <path id="30" class="fil2" d="M53.97 13.82c-0.3,0.07 -0.56,0.03 -0.77,-0.11 -0.21,-0.14 -0.36,-0.36 -0.43,-0.69l-1.27 -5.55 0.78 -0.28 1.29 5.63c0.03,0.13 0.07,0.22 0.13,0.27 0.06,0.05 0.14,0.06 0.24,0.03 0.12,-0.02 0.21,-0.06 0.29,-0.12l0.34 0.51c-0.17,0.15 -0.37,0.26 -0.6,0.31z"/>
   <path id="31" class="fil2" d="M55.59 8.53l0.81 4.66 -0.81 0.14 -0.81 -4.66 0.81 -0.14zm-0.8 -2.17c0.17,-0.03 0.32,0 0.44,0.09 0.13,0.09 0.2,0.21 0.23,0.37 0.03,0.16 0,0.3 -0.09,0.42 -0.09,0.12 -0.22,0.2 -0.39,0.23 -0.17,0.03 -0.31,0 -0.43,-0.09 -0.13,-0.08 -0.2,-0.2 -0.23,-0.36 -0.03,-0.16 0,-0.3 0.09,-0.43 0.09,-0.12 0.21,-0.2 0.38,-0.23z"/>
   <path id="32" class="fil2" d="M60.43 12.39c-0.28,0.26 -0.62,0.41 -1.01,0.46 -0.4,0.06 -0.72,-0.02 -0.98,-0.21 -0.25,-0.2 -0.41,-0.52 -0.46,-0.95l-0.39 -2.83 -0.82 0.11 -0.08 -0.63 0.82 -0.11 -0.15 -1.06 0.81 -0.21 0.16 1.16 1.11 -0.15 0 0.64 -1.03 0.14 0.38 2.79c0.03,0.25 0.1,0.42 0.2,0.52 0.1,0.09 0.25,0.13 0.45,0.1 0.19,-0.02 0.39,-0.11 0.6,-0.27l0.39 0.5z"/>
   <path id="33" class="fil2" d="M66.07 12.1c-0.31,0.22 -0.67,0.33 -1.06,0.33 -0.4,0.01 -0.72,-0.11 -0.94,-0.33 -0.23,-0.23 -0.34,-0.57 -0.35,-1l-0.02 -2.86 -0.83 0.01 0 -0.64 0.82 -0.01 -0.01 -1.06 0.83 -0.11 0.01 1.17 1.12 -0.01 -0.08 0.64 -1.04 0 0.03 2.82c0,0.25 0.04,0.43 0.13,0.54 0.09,0.11 0.24,0.16 0.44,0.16 0.19,0 0.39,-0.07 0.63,-0.19l0.32 0.54z"/>
   <path id="34" class="fil2" d="M70.39 9.83c-0.01,0.14 -0.01,0.28 -0.03,0.42l-3.01 -0.03c0.03,0.52 0.15,0.91 0.38,1.15 0.23,0.25 0.52,0.38 0.88,0.38 0.22,0 0.43,-0.03 0.63,-0.09 0.19,-0.07 0.39,-0.17 0.6,-0.31l0.35 0.5c-0.5,0.39 -1.05,0.58 -1.65,0.57 -0.66,0 -1.17,-0.23 -1.54,-0.66 -0.36,-0.43 -0.54,-1.03 -0.53,-1.78 0,-0.49 0.09,-0.93 0.25,-1.31 0.16,-0.38 0.39,-0.67 0.69,-0.88 0.3,-0.22 0.65,-0.32 1.05,-0.32 0.63,0.01 1.11,0.22 1.44,0.64 0.33,0.41 0.49,0.99 0.49,1.72zm-0.82 -0.25c0.01,-0.47 -0.08,-0.83 -0.27,-1.07 -0.18,-0.25 -0.46,-0.38 -0.83,-0.38 -0.67,-0.01 -1.05,0.49 -1.12,1.48l2.22 0.02 0 -0.05z"/>
   <path id="35" class="fil2" d="M72.6 12.74c-0.31,-0.05 -0.53,-0.17 -0.68,-0.37 -0.15,-0.21 -0.21,-0.47 -0.16,-0.8l0.77 -5.65 0.84 0.01 -0.79 5.73c-0.02,0.13 -0.01,0.23 0.03,0.3 0.04,0.06 0.11,0.1 0.21,0.12 0.12,0.01 0.22,0.01 0.31,-0.01l0.14 0.59c-0.21,0.09 -0.43,0.11 -0.67,0.08z"/>
   <path id="36" class="fil2" d="M75.2 13.13c-0.31,-0.05 -0.53,-0.18 -0.67,-0.39 -0.14,-0.21 -0.18,-0.48 -0.13,-0.81l0.99 -5.61 0.83 0.04 -1 5.7c-0.02,0.13 -0.02,0.23 0.02,0.29 0.03,0.07 0.1,0.11 0.21,0.13 0.11,0.02 0.21,0.02 0.31,0l0.11 0.6c-0.21,0.08 -0.44,0.09 -0.67,0.05z"/>
   <path id="37" class="fil2" d="M80.32 14.02l-0.69 -0.15 0.1 -0.73c-0.24,0.25 -0.49,0.41 -0.74,0.49 -0.26,0.08 -0.55,0.08 -0.88,0.01 -0.4,-0.09 -0.69,-0.28 -0.86,-0.58 -0.18,-0.29 -0.21,-0.67 -0.11,-1.12l0.73 -3.31 0.81 0.18 -0.72 3.22c-0.07,0.32 -0.06,0.56 0.02,0.71 0.08,0.16 0.25,0.26 0.5,0.32 0.45,0.1 0.89,-0.08 1.33,-0.54l0.74 -3.29 0.8 0.17 -1.03 4.62z"/>
   <path id="38" class="fil2" d="M84.63 10.34c0.31,0.1 0.57,0.23 0.79,0.39 0.22,0.16 0.41,0.37 0.58,0.61l-0.49 0.39c-0.16,-0.2 -0.33,-0.36 -0.49,-0.48 -0.17,-0.12 -0.35,-0.21 -0.56,-0.28 -0.26,-0.08 -0.47,-0.09 -0.66,-0.03 -0.18,0.06 -0.3,0.18 -0.36,0.36 -0.05,0.18 -0.03,0.35 0.08,0.49 0.1,0.15 0.33,0.33 0.66,0.54 0.46,0.29 0.78,0.58 0.96,0.87 0.18,0.3 0.21,0.64 0.09,1.01 -0.14,0.45 -0.42,0.73 -0.84,0.86 -0.42,0.12 -0.87,0.1 -1.37,-0.05 -0.68,-0.22 -1.19,-0.6 -1.52,-1.13l0.58 -0.35c0.28,0.41 0.66,0.69 1.12,0.84 0.3,0.09 0.56,0.11 0.77,0.04 0.21,-0.07 0.35,-0.21 0.42,-0.42 0.05,-0.15 0.06,-0.29 0.02,-0.4 -0.03,-0.12 -0.11,-0.23 -0.25,-0.35 -0.13,-0.12 -0.33,-0.27 -0.6,-0.45 -0.44,-0.27 -0.73,-0.55 -0.88,-0.83 -0.15,-0.28 -0.17,-0.58 -0.07,-0.91 0.08,-0.23 0.22,-0.42 0.42,-0.57 0.2,-0.14 0.44,-0.23 0.72,-0.26 0.28,-0.02 0.57,0.01 0.88,0.11z"/>
   <path id="39" class="fil2" d="M86.54 14.93c0.17,0.06 0.29,0.17 0.35,0.33 0.07,0.15 0.07,0.31 0.01,0.47 -0.07,0.18 -0.2,0.35 -0.39,0.54l-1.06 1.05 -0.55 -0.22 0.88 -1.25c-0.05,-0.08 -0.08,-0.18 -0.09,-0.28 -0.01,-0.1 0.01,-0.2 0.05,-0.3 0.06,-0.16 0.17,-0.27 0.33,-0.34 0.15,-0.07 0.31,-0.07 0.47,0z"/>
   <path id="40" class="fil2" d="M90.87 18.25c-0.27,-0.14 -0.45,-0.34 -0.52,-0.58 -0.07,-0.24 -0.03,-0.51 0.12,-0.8l2.64 -5.06 0.77 0.29 -2.67 5.13c-0.06,0.12 -0.08,0.22 -0.07,0.29 0.01,0.07 0.07,0.13 0.16,0.19 0.1,0.05 0.2,0.08 0.3,0.09l-0.08 0.61c-0.22,0 -0.44,-0.05 -0.65,-0.16z"/>
   <path id="41" class="fil2" d="M95.48 20.67l-0.62 -0.34 0.3 -0.68c-0.3,0.17 -0.58,0.26 -0.85,0.26 -0.27,0 -0.55,-0.08 -0.84,-0.24 -0.36,-0.21 -0.58,-0.47 -0.66,-0.81 -0.08,-0.33 -0.01,-0.7 0.21,-1.1l1.67 -2.96 0.72 0.41 -1.62 2.88c-0.16,0.28 -0.22,0.51 -0.19,0.68 0.03,0.17 0.16,0.32 0.39,0.45 0.4,0.22 0.88,0.18 1.43,-0.13l1.66 -2.94 0.72 0.4 -2.32 4.12z"/>
   <path id="42" class="fil2" d="M101.09 18.72c0.23,0.17 0.42,0.35 0.56,0.55 0.14,0.2 0.25,0.44 0.32,0.71l-0.62 0.19c-0.07,-0.19 -0.15,-0.36 -0.25,-0.5 -0.09,-0.14 -0.22,-0.26 -0.37,-0.37 -0.31,-0.22 -0.65,-0.27 -1,-0.15 -0.35,0.13 -0.7,0.43 -1.04,0.92 -0.35,0.49 -0.52,0.91 -0.52,1.26 0.01,0.35 0.17,0.64 0.48,0.87 0.15,0.11 0.31,0.18 0.47,0.23 0.16,0.04 0.35,0.07 0.58,0.08l0 0.65c-0.56,0.04 -1.05,-0.1 -1.48,-0.41 -0.52,-0.38 -0.81,-0.84 -0.86,-1.41 -0.05,-0.56 0.15,-1.16 0.59,-1.77 0.29,-0.41 0.62,-0.72 0.97,-0.93 0.36,-0.21 0.72,-0.31 1.1,-0.3 0.37,0.01 0.73,0.14 1.07,0.38z"/>
   <path id="43" class="fil2" d="M102.3 25.58c-0.38,-0.04 -0.71,-0.19 -1.01,-0.45 -0.3,-0.26 -0.46,-0.56 -0.48,-0.88 -0.02,-0.32 0.12,-0.64 0.4,-0.97l1.88 -2.15 -0.62 -0.55 0.42 -0.48 0.62 0.55 0.7 -0.81 0.69 0.47 -0.77 0.88 0.85 0.74 -0.49 0.42 -0.78 -0.68 -1.85 2.12c-0.16,0.19 -0.25,0.35 -0.25,0.49 -0.01,0.14 0.06,0.28 0.21,0.41 0.15,0.13 0.34,0.22 0.6,0.28l-0.12 0.61z"/>
   <path id="44" class="fil2" d="M105.32 28.77l-0.51 -0.49 0.46 -0.58c-0.33,0.09 -0.63,0.1 -0.89,0.04 -0.26,-0.07 -0.51,-0.21 -0.76,-0.45 -0.29,-0.28 -0.44,-0.6 -0.43,-0.94 0,-0.34 0.16,-0.68 0.48,-1.01l2.35 -2.45 0.59 0.57 -2.28 2.38c-0.22,0.24 -0.34,0.44 -0.35,0.62 -0.01,0.17 0.07,0.35 0.26,0.53 0.33,0.32 0.81,0.39 1.42,0.23l2.34 -2.44 0.59 0.57 -3.27 3.42z"/>
   <path id="45" class="fil2" d="M111.03 27.86c0.2,0.24 0.36,0.5 0.46,0.75 0.09,0.25 0.15,0.53 0.16,0.82l-0.62 0.07c-0.04,-0.25 -0.09,-0.47 -0.17,-0.66 -0.07,-0.2 -0.18,-0.37 -0.32,-0.54 -0.17,-0.2 -0.35,-0.33 -0.54,-0.38 -0.18,-0.04 -0.35,-0.01 -0.49,0.12 -0.15,0.12 -0.22,0.27 -0.2,0.46 0.01,0.18 0.1,0.45 0.27,0.81 0.24,0.48 0.36,0.9 0.35,1.24 -0.01,0.35 -0.16,0.65 -0.46,0.91 -0.36,0.3 -0.74,0.39 -1.17,0.27 -0.42,-0.12 -0.8,-0.37 -1.13,-0.77 -0.47,-0.55 -0.69,-1.14 -0.68,-1.77l0.66 0.01c0.03,0.51 0.2,0.94 0.51,1.31 0.2,0.24 0.41,0.39 0.63,0.45 0.21,0.05 0.41,0.01 0.58,-0.13 0.12,-0.11 0.2,-0.22 0.23,-0.33 0.03,-0.12 0.03,-0.26 -0.02,-0.43 -0.05,-0.17 -0.14,-0.4 -0.28,-0.7 -0.22,-0.46 -0.32,-0.86 -0.3,-1.17 0.03,-0.32 0.17,-0.58 0.43,-0.8 0.19,-0.16 0.41,-0.25 0.65,-0.27 0.25,-0.02 0.5,0.04 0.75,0.17 0.26,0.12 0.49,0.31 0.7,0.56z"/>
   <path id="46" class="fil2" d="M115.89 34.36c0.24,0.36 0.31,0.71 0.23,1.06 -0.08,0.34 -0.31,0.63 -0.69,0.88l-2.85 1.85 -0.45 -0.7 2.75 -1.78c0.28,-0.18 0.45,-0.37 0.49,-0.55 0.05,-0.18 0.01,-0.37 -0.13,-0.58 -0.13,-0.21 -0.31,-0.35 -0.54,-0.44 -0.22,-0.08 -0.49,-0.12 -0.81,-0.11l-2.82 1.83 -0.45 -0.69 3.97 -2.58 0.39 0.59 -0.55 0.45c0.3,0 0.58,0.07 0.84,0.2 0.25,0.13 0.46,0.32 0.62,0.57z"/>
   <path id="47" class="fil2" d="M117.34 41.54c-0.12,0.06 -0.25,0.12 -0.38,0.18l-1.43 -2.66c-0.45,0.28 -0.72,0.58 -0.83,0.9 -0.11,0.31 -0.08,0.63 0.09,0.95 0.11,0.2 0.24,0.37 0.39,0.5 0.15,0.14 0.34,0.27 0.56,0.38l-0.26 0.56c-0.59,-0.26 -1.03,-0.65 -1.31,-1.18 -0.31,-0.58 -0.37,-1.13 -0.16,-1.66 0.21,-0.53 0.64,-0.97 1.3,-1.33 0.44,-0.24 0.86,-0.37 1.27,-0.41 0.41,-0.04 0.78,0.02 1.11,0.18 0.33,0.15 0.59,0.41 0.78,0.76 0.3,0.56 0.34,1.08 0.14,1.57 -0.2,0.49 -0.63,0.91 -1.27,1.26zm-0.18 -0.84c0.41,-0.22 0.68,-0.47 0.81,-0.75 0.13,-0.28 0.11,-0.58 -0.07,-0.91 -0.32,-0.6 -0.93,-0.68 -1.84,-0.26l1.06 1.95 0.04 -0.03z"/>
   <path id="48" class="fil2" d="M120.8 43.48c0.12,0.25 0.19,0.5 0.21,0.75 0.03,0.24 0,0.5 -0.07,0.77l-0.64 -0.14c0.04,-0.2 0.05,-0.39 0.04,-0.55 -0.02,-0.17 -0.06,-0.34 -0.14,-0.52 -0.16,-0.34 -0.42,-0.55 -0.79,-0.62 -0.37,-0.07 -0.82,0.03 -1.37,0.28 -0.54,0.25 -0.9,0.52 -1.07,0.83 -0.17,0.31 -0.18,0.64 -0.01,1 0.07,0.17 0.17,0.31 0.29,0.43 0.11,0.12 0.27,0.23 0.46,0.36l-0.33 0.56c-0.5,-0.24 -0.85,-0.61 -1.08,-1.09 -0.26,-0.59 -0.28,-1.13 -0.04,-1.65 0.24,-0.51 0.71,-0.93 1.4,-1.24 0.45,-0.21 0.89,-0.32 1.3,-0.32 0.41,-0.01 0.78,0.08 1.1,0.28 0.32,0.19 0.57,0.48 0.74,0.87z"/>
   <path id="49" class="fil2" d="M119.07 53.53l-0.2 -0.68 0.69 -0.27c-0.34,-0.09 -0.6,-0.23 -0.8,-0.41 -0.19,-0.19 -0.34,-0.44 -0.43,-0.76 -0.12,-0.4 -0.09,-0.74 0.09,-1.04 0.17,-0.29 0.48,-0.51 0.92,-0.64l3.26 -0.96 0.23 0.79 -3.17 0.94c-0.31,0.09 -0.51,0.21 -0.61,0.36 -0.1,0.14 -0.11,0.34 -0.03,0.59 0.13,0.44 0.5,0.74 1.12,0.9l3.23 -0.95 0.24 0.79 -4.54 1.34z"/>
   <path id="50" class="fil2" d="M119.48 56.15c-0.05,-0.3 0,-0.55 0.15,-0.76 0.15,-0.2 0.39,-0.34 0.71,-0.39l5.62 -0.97 0.24 0.79 -5.7 0.99c-0.13,0.02 -0.22,0.06 -0.27,0.12 -0.05,0.05 -0.07,0.13 -0.05,0.24 0.02,0.11 0.05,0.21 0.1,0.29l-0.52 0.31c-0.15,-0.18 -0.24,-0.38 -0.28,-0.62z"/>
   <path id="51" class="fil2" d="M119.88 58.75c-0.04,-0.3 0.02,-0.56 0.18,-0.75 0.15,-0.2 0.39,-0.33 0.72,-0.37l5.65 -0.76 0.21 0.8 -5.73 0.78c-0.13,0.01 -0.22,0.05 -0.28,0.1 -0.05,0.05 -0.07,0.13 -0.05,0.24 0.01,0.11 0.04,0.21 0.09,0.3l-0.54 0.29c-0.13,-0.18 -0.22,-0.39 -0.25,-0.63z"/>
   <path id="52" class="fil2" d="M121.61 63.45c-0.19,0.01 -0.33,0.06 -0.41,0.13 -0.09,0.07 -0.15,0.18 -0.19,0.31l-0.59 -0.14c0.01,-0.25 0.07,-0.45 0.16,-0.61 0.1,-0.15 0.25,-0.28 0.48,-0.37 -0.5,-0.28 -0.78,-0.73 -0.83,-1.35 -0.03,-0.46 0.07,-0.84 0.31,-1.13 0.24,-0.29 0.57,-0.45 0.99,-0.49 0.51,-0.04 0.91,0.11 1.2,0.45 0.3,0.34 0.48,0.84 0.53,1.5l0.06 0.73 0.35 -0.03c0.33,-0.03 0.56,-0.13 0.7,-0.3 0.13,-0.17 0.18,-0.42 0.15,-0.76 -0.03,-0.34 -0.15,-0.76 -0.35,-1.25l0.58 -0.25c0.26,0.56 0.41,1.1 0.45,1.6 0.05,0.55 -0.05,0.98 -0.3,1.28 -0.25,0.29 -0.63,0.46 -1.13,0.5l-2.16 0.18zm-0.74 -1.89c0.04,0.47 0.31,0.82 0.82,1.05l1.08 -0.09 -0.05 -0.61c-0.07,-0.88 -0.42,-1.28 -1.07,-1.23 -0.28,0.02 -0.49,0.11 -0.62,0.26 -0.13,0.14 -0.18,0.35 -0.16,0.62z"/>
   <path id="53" class="fil2" d="M125.35 70.04c-0.01,0.39 -0.14,0.7 -0.4,0.93 -0.27,0.23 -0.62,0.34 -1.06,0.34l-3.39 -0.04 0 -0.82 3.28 0.03c0.61,0.01 0.92,-0.21 0.92,-0.66 0.01,-0.23 -0.06,-0.43 -0.19,-0.59 -0.14,-0.16 -0.34,-0.34 -0.63,-0.53l-3.36 -0.03 0.01 -0.83 3.28 0.04c0.61,0 0.92,-0.22 0.92,-0.66 0,-0.24 -0.06,-0.44 -0.2,-0.6 -0.13,-0.17 -0.34,-0.34 -0.62,-0.52l-3.36 -0.04 0.01 -0.82 4.73 0.05 -0.01 0.71 -0.69 0.06c0.53,0.36 0.79,0.82 0.78,1.37 0,0.3 -0.08,0.55 -0.23,0.75 -0.15,0.21 -0.36,0.35 -0.63,0.44 0.27,0.19 0.48,0.39 0.63,0.62 0.14,0.23 0.21,0.49 0.21,0.8z"/>
   <path id="54" class="fil2" d="M124.73 75.28c-0.04,0.28 -0.12,0.53 -0.23,0.75 -0.11,0.22 -0.27,0.43 -0.48,0.62l-0.46 -0.46c0.14,-0.15 0.25,-0.3 0.33,-0.45 0.08,-0.15 0.13,-0.32 0.16,-0.51 0.05,-0.38 -0.06,-0.7 -0.34,-0.95 -0.27,-0.25 -0.7,-0.42 -1.3,-0.5 -0.59,-0.08 -1.04,-0.04 -1.35,0.13 -0.31,0.17 -0.49,0.45 -0.55,0.83 -0.02,0.19 -0.02,0.36 0.02,0.52 0.03,0.17 0.1,0.35 0.2,0.56l-0.58 0.3c-0.29,-0.48 -0.4,-0.98 -0.32,-1.51 0.08,-0.63 0.36,-1.1 0.84,-1.41 0.48,-0.3 1.09,-0.41 1.85,-0.3 0.49,0.07 0.92,0.21 1.27,0.43 0.35,0.21 0.61,0.49 0.78,0.82 0.16,0.34 0.22,0.71 0.16,1.13z"/>
   <path id="55" class="fil2" d="M123.9 79.78c-0.15,0.65 -0.47,1.1 -0.99,1.37 -0.51,0.26 -1.14,0.31 -1.88,0.14 -0.48,-0.1 -0.88,-0.28 -1.21,-0.52 -0.33,-0.25 -0.56,-0.55 -0.69,-0.9 -0.13,-0.36 -0.15,-0.75 -0.06,-1.18 0.15,-0.64 0.48,-1.1 0.99,-1.37 0.51,-0.26 1.14,-0.31 1.88,-0.15 0.48,0.11 0.88,0.29 1.21,0.53 0.33,0.25 0.56,0.55 0.69,0.9 0.14,0.35 0.16,0.75 0.06,1.18zm-0.65 -0.14c0.18,-0.8 -0.32,-1.34 -1.5,-1.6 -1.18,-0.26 -1.85,0.01 -2.03,0.8 -0.18,0.79 0.33,1.32 1.5,1.59 1.18,0.26 1.85,-0.01 2.03,-0.79z"/>
   <path id="56" class="fil2" d="M122.22 85.57c-0.06,0.16 -0.12,0.3 -0.2,0.42l-0.72 -0.4c0.08,-0.12 0.14,-0.25 0.18,-0.37 0.1,-0.28 0.07,-0.54 -0.08,-0.78 -0.15,-0.24 -0.42,-0.48 -0.82,-0.72l-2.56 -0.86 0.26 -0.78 4.49 1.5 -0.23 0.68 -0.93 -0.23c0.29,0.23 0.49,0.47 0.59,0.74 0.1,0.26 0.11,0.52 0.02,0.8z"/>
   <path id="57" class="fil2" d="M120.91 89.11c-0.22,0.56 -0.57,0.9 -1.08,1.01 -0.5,0.11 -1.12,0.03 -1.85,-0.25 -0.7,-0.27 -1.2,-0.63 -1.51,-1.09 -0.31,-0.47 -0.36,-0.98 -0.15,-1.53 0.19,-0.49 0.5,-0.82 0.94,-0.97l-2.1 -0.79 0.21 -0.81 6.21 2.36 -0.25 0.66 -0.62 -0.17c0.16,0.25 0.26,0.51 0.29,0.79 0.03,0.27 0,0.53 -0.09,0.79zm-3.89 -1.81c-0.28,0.73 0.15,1.31 1.27,1.74 1.13,0.42 1.83,0.31 2.08,-0.36 0.08,-0.22 0.09,-0.44 0.03,-0.67 -0.06,-0.23 -0.17,-0.45 -0.32,-0.66l-2.15 -0.82c-0.22,0.05 -0.4,0.14 -0.56,0.27 -0.16,0.14 -0.27,0.3 -0.35,0.5z"/>
   <path id="58" class="fil2" d="M115.69 94.58c-0.12,-0.06 -0.24,-0.13 -0.36,-0.21l1.35 -2.7c-0.49,-0.2 -0.89,-0.25 -1.21,-0.16 -0.32,0.1 -0.56,0.3 -0.72,0.63 -0.1,0.2 -0.17,0.4 -0.19,0.6 -0.03,0.2 -0.03,0.43 0.01,0.68l-0.61 0.1c-0.12,-0.63 -0.05,-1.21 0.21,-1.74 0.3,-0.59 0.72,-0.95 1.27,-1.09 0.55,-0.14 1.16,-0.04 1.84,0.3 0.44,0.22 0.79,0.49 1.06,0.8 0.27,0.31 0.43,0.65 0.49,1.01 0.06,0.36 0,0.72 -0.17,1.08 -0.29,0.56 -0.69,0.9 -1.21,1.01 -0.51,0.12 -1.1,0.01 -1.76,-0.31zm0.59 -0.63c0.41,0.21 0.78,0.29 1.08,0.23 0.3,-0.05 0.54,-0.25 0.7,-0.58 0.3,-0.6 0.02,-1.15 -0.84,-1.65l-0.99 1.98 0.05 0.02z"/>
   <path id="59" class="fil2" d="M115.68 98.87c-0.09,0.14 -0.19,0.26 -0.3,0.37l-0.6 -0.57c0.11,-0.1 0.2,-0.21 0.27,-0.32 0.15,-0.24 0.19,-0.5 0.1,-0.77 -0.08,-0.26 -0.29,-0.56 -0.62,-0.89l-2.28 -1.45 0.44 -0.7 4 2.54 -0.38 0.59 -0.86 -0.44c0.23,0.29 0.37,0.58 0.4,0.86 0.04,0.28 -0.02,0.54 -0.17,0.78z"/>
   <path id="60" class="fil2" d="M110.02 106.22c-0.26,0.29 -0.56,0.44 -0.91,0.45 -0.35,0 -0.69,-0.14 -1.03,-0.43l-2.55 -2.24 0.54 -0.62 2.47 2.16c0.46,0.4 0.84,0.43 1.13,0.1 0.15,-0.18 0.23,-0.37 0.23,-0.58 0.01,-0.21 -0.04,-0.48 -0.13,-0.81l-2.53 -2.21 0.54 -0.62 2.47 2.15c0.46,0.41 0.84,0.44 1.13,0.11 0.16,-0.18 0.24,-0.38 0.24,-0.59 0,-0.22 -0.04,-0.48 -0.14,-0.8l-2.53 -2.21 0.55 -0.62 3.56 3.11 -0.46 0.53 -0.57 -0.4c0.17,0.62 0.07,1.14 -0.3,1.56 -0.19,0.22 -0.41,0.36 -0.66,0.41 -0.25,0.06 -0.5,0.04 -0.77,-0.07 0.09,0.32 0.11,0.61 0.08,0.88 -0.04,0.26 -0.16,0.51 -0.36,0.74z"/>
   <path id="61" class="fil2" d="M102.75 108.13c-0.13,-0.14 -0.26,-0.22 -0.37,-0.24 -0.11,-0.02 -0.23,-0.01 -0.36,0.05l-0.26 -0.55c0.2,-0.14 0.39,-0.23 0.57,-0.25 0.19,-0.03 0.38,0.01 0.59,0.13 -0.1,-0.56 0.08,-1.06 0.53,-1.49 0.34,-0.32 0.7,-0.48 1.08,-0.47 0.37,0 0.71,0.16 1,0.47 0.35,0.36 0.48,0.77 0.41,1.21 -0.08,0.44 -0.36,0.9 -0.84,1.35l-0.53 0.51 0.24 0.25c0.24,0.24 0.46,0.36 0.68,0.35 0.21,0 0.44,-0.12 0.68,-0.35 0.26,-0.24 0.51,-0.6 0.75,-1.07l0.57 0.3c-0.28,0.56 -0.6,1.01 -0.96,1.36 -0.4,0.38 -0.8,0.57 -1.19,0.56 -0.38,0 -0.75,-0.19 -1.1,-0.55l-1.49 -1.57zm0.99 -1.77c-0.34,0.33 -0.44,0.76 -0.29,1.3l0.75 0.79 0.44 -0.43c0.64,-0.6 0.73,-1.13 0.28,-1.6 -0.19,-0.21 -0.39,-0.31 -0.58,-0.32 -0.2,-0.01 -0.4,0.08 -0.6,0.26z"/>
   <path id="62" class="fil2" d="M98.92 110.04c0.11,-0.36 0.32,-0.66 0.63,-0.91 0.32,-0.24 0.63,-0.34 0.95,-0.3 0.32,0.04 0.62,0.23 0.88,0.58l1.76 2.25 0.65 -0.51 0.4 0.5 -0.65 0.51 0.66 0.84 -0.6 0.59 -0.71 -0.92 -0.89 0.69 -0.32 -0.56 0.81 -0.63 -1.73 -2.22c-0.16,-0.2 -0.3,-0.31 -0.44,-0.34 -0.13,-0.04 -0.28,0.01 -0.44,0.13 -0.15,0.12 -0.27,0.3 -0.38,0.54l-0.58 -0.24z"/>
   <path id="63" class="fil2" d="M96.24 111.9c0.13,-0.36 0.36,-0.65 0.69,-0.87 0.32,-0.23 0.65,-0.32 0.96,-0.25 0.32,0.06 0.6,0.27 0.85,0.62l1.63 2.35 0.68 -0.47 0.36 0.52 -0.68 0.47 0.62 0.88 -0.63 0.55 -0.66 -0.96 -0.93 0.65 -0.28 -0.58 0.84 -0.59 -1.61 -2.31c-0.14,-0.21 -0.27,-0.33 -0.41,-0.37 -0.13,-0.04 -0.28,0 -0.45,0.11 -0.15,0.11 -0.29,0.28 -0.41,0.52l-0.57 -0.27z"/>
   <path id="64" class="fil2" d="M97.28 116.59l-2.58 -3.97 0.69 -0.45 2.58 3.97 -0.69 0.45zm1.59 1.68c-0.15,0.09 -0.29,0.12 -0.44,0.09 -0.15,-0.03 -0.27,-0.12 -0.36,-0.25 -0.09,-0.14 -0.11,-0.28 -0.08,-0.42 0.03,-0.15 0.12,-0.27 0.27,-0.36 0.14,-0.1 0.28,-0.13 0.43,-0.1 0.15,0.03 0.27,0.11 0.35,0.25 0.09,0.13 0.12,0.28 0.09,0.43 -0.03,0.14 -0.12,0.26 -0.26,0.36z"/>
   <path id="65" class="fil2" d="M94.4 118.37c-0.29,0.15 -0.57,0.25 -0.84,0.29 -0.27,0.05 -0.55,0.04 -0.84,0l0.06 -0.63c0.26,0.02 0.49,0.01 0.69,-0.02 0.2,-0.04 0.4,-0.1 0.59,-0.21 0.24,-0.12 0.4,-0.27 0.48,-0.44 0.09,-0.17 0.08,-0.35 -0.01,-0.51 -0.09,-0.17 -0.22,-0.27 -0.4,-0.3 -0.18,-0.02 -0.47,0.01 -0.85,0.11 -0.53,0.13 -0.96,0.16 -1.3,0.08 -0.34,-0.08 -0.6,-0.29 -0.79,-0.64 -0.22,-0.41 -0.23,-0.81 -0.02,-1.2 0.2,-0.38 0.53,-0.7 0.99,-0.95 0.63,-0.34 1.25,-0.44 1.87,-0.3l-0.15 0.65c-0.5,-0.08 -0.96,0 -1.39,0.23 -0.27,0.14 -0.46,0.32 -0.56,0.52 -0.1,0.2 -0.1,0.4 0.01,0.59 0.07,0.14 0.16,0.24 0.27,0.3 0.1,0.05 0.25,0.08 0.42,0.07 0.18,-0.01 0.43,-0.06 0.74,-0.13 0.51,-0.12 0.91,-0.14 1.21,-0.05 0.31,0.09 0.54,0.28 0.7,0.58 0.12,0.22 0.16,0.45 0.12,0.7 -0.03,0.24 -0.14,0.48 -0.31,0.7 -0.18,0.22 -0.41,0.41 -0.69,0.56z"/>
   <path id="66" class="fil2" d="M89.8 116.58c-0.16,0.08 -0.32,0.09 -0.48,0.03 -0.16,-0.06 -0.28,-0.17 -0.35,-0.33 -0.07,-0.16 -0.08,-0.32 -0.02,-0.48 0.06,-0.16 0.17,-0.28 0.33,-0.35 0.16,-0.08 0.32,-0.08 0.48,-0.02 0.16,0.06 0.27,0.17 0.35,0.33 0.07,0.16 0.07,0.32 0.01,0.48 -0.05,0.15 -0.16,0.27 -0.32,0.34z"/>
   <g>
    <path class="fil2" d="M68.9 61.9l-3.08 0 -1.16 8.71 2.66 0 0 3.77 -3.18 0 -0.85 6.52 -4.59 0 0.86 -6.52 -5.36 0 -0.86 6.52 -4.55 0 0.86 -6.52 -2.57 0 0 -3.77 3.04 0 1.16 -8.71 -2.61 0 0 -3.81 3.13 0 0.77 -6.05 4.58 0 -0.81 6.05 5.36 0 0.81 -6.05 4.59 0 -0.81 6.05 2.61 0 0 3.81zm-8.83 8.71l1.16 -8.71 -5.36 0 -1.16 8.71 5.36 0z"/>
    <polygon id="1" class="fil2" points="84.77,52.04 84.77,80.9 79.36,80.9 79.36,57.57 72.93,61.48 70.53,57.79 79.92,52.04 "/>
    <path class="fil3" d="M69.89 62.84l-3.09 0 -1.16 8.7 2.66 0 0 3.78 -3.17 0 -0.86 6.51 -4.59 0 0.86 -6.51 -5.36 0 -0.86 6.51 -4.54 0 0.86 -6.51 -2.58 0 0 -3.78 3.05 0 1.16 -8.7 -2.62 0 0 -3.82 3.13 0 0.77 -6.04 4.59 0 -0.82 6.04 5.36 0 0.82 -6.04 4.59 0 -0.82 6.04 2.62 0 0 3.82zm-8.84 8.7l1.16 -8.7 -5.36 0 -1.15 8.7 5.35 0zm24.7 -18.56l0 28.85 -5.4 0 0 -23.32 -6.43 3.9 -2.4 -3.69 9.39 -5.74 4.84 0z"/>
   </g>
  </g>
 </g>
</svg>
