<?xml version="1.0" encoding="UTF-8"?>
<!DOCTYPE svg PUBLIC "-//W3C//DTD SVG 1.1//EN" "http://www.w3.org/Graphics/SVG/1.1/DTD/svg11.dtd">
<!-- Creator: CorelDRAW 2019 (64-Bit) -->
<svg xmlns="http://www.w3.org/2000/svg" xml:space="preserve" width="266px" height="266px" version="1.1" style="shape-rendering:geometricPrecision; text-rendering:geometricPrecision; image-rendering:optimizeQuality; fill-rule:evenodd; clip-rule:evenodd"
viewBox="0 0 4.34 4.34"
 xmlns:xlink="http://www.w3.org/1999/xlink">
 <defs>
  <style type="text/css">
   <![CDATA[
    .str0 {stroke:#7400B8;stroke-width:0.29;stroke-miterlimit:2.61313}
    .fil1 {fill:none}
    .fil0 {fill:#662F85}
    .fil2 {fill:#7400B8}
   ]]>
  </style>
    <clipPath id="id0">
     <path d="M0.14 2.15c0.01,0.35 0.06,0.59 0.19,0.87 0.31,0.67 1.01,1.16 1.77,1.17l0.05 0c0.35,0 0.59,-0.05 0.87,-0.18 0.67,-0.31 1.16,-1.01 1.17,-1.77l0 -0.05c0,-0.35 -0.05,-0.59 -0.18,-0.87 -0.1,-0.23 -0.25,-0.42 -0.41,-0.58 -0.16,-0.17 -0.35,-0.3 -0.57,-0.41 -0.24,-0.11 -0.49,-0.17 -0.75,-0.19l-0.2 0c-0.5,0.03 -0.98,0.23 -1.34,0.6 -0.17,0.16 -0.3,0.35 -0.41,0.57 -0.09,0.2 -0.18,0.5 -0.19,0.78l0 0.06z"/>
    </clipPath>
     <clipPath id="id1">
      <path d="M1.54 1.61l0 0.04c0,0.14 0.21,0.22 0.3,0.06 0.02,-0.05 0.01,-0.11 0.04,-0.19 0.09,-0.22 0.4,-0.27 0.55,-0.05 0.06,0.08 0.07,0.2 0.02,0.3 -0.09,0.21 -0.29,0.16 -0.37,0.21 -0.03,0.02 -0.07,0.06 -0.07,0.12l0 0.42c0,0.18 0.29,0.2 0.31,0.02 0.01,-0.06 0.01,-0.22 0.01,-0.29 0.04,0 0.15,-0.06 0.18,-0.08 0.27,-0.16 0.37,-0.52 0.23,-0.81 -0.14,-0.29 -0.5,-0.45 -0.83,-0.3 -0.07,0.03 -0.12,0.06 -0.18,0.12 -0.11,0.11 -0.19,0.25 -0.19,0.43z"/>
     </clipPath>
     <clipPath id="id2">
      <path d="M1.97 3.11c0,0.07 0.01,0.12 0.06,0.17 0.16,0.13 0.34,-0.01 0.34,-0.13 0,-0.06 -0.01,-0.11 -0.07,-0.16 -0.15,-0.14 -0.33,0.01 -0.33,0.12z"/>
     </clipPath>
 </defs>
 <g id="Layer_x0020_1">
  <metadata id="CorelCorpID_0Corel-Layer"/>
  <g id="_2081734272544">
   <g>
   </g>
   <g style="clip-path:url(#id0)">
    <g id="_2081734252544">
     <path class="fil0" d="M1.44 -17.08c0,-0.01 0.01,-0.15 0.02,-0.18 0.03,-0.16 0.11,-0.27 0.2,-0.39 0.04,-0.04 0.17,-0.14 0.23,-0.16 0.15,-0.07 0.17,-0.06 0.32,-0.08 0.1,-0.01 0.25,0.03 0.33,0.06 0.11,0.05 0.16,0.09 0.24,0.16 0.03,0.02 0.03,0.03 0.05,0.05 0.09,0.11 0.13,0.19 0.17,0.33 0.02,0.05 0.02,0.12 0.03,0.17 0.01,0.09 -0.03,0.24 -0.07,0.33 -0.05,0.12 -0.12,0.21 -0.21,0.29 -0.11,0.09 -0.18,0.13 -0.32,0.17 -0.11,0.03 -0.25,0.03 -0.36,0.01 -0.15,-0.03 -0.27,-0.11 -0.39,-0.21l-0.09 -0.1c-0.08,-0.11 -0.14,-0.26 -0.14,-0.4 0,-0.03 -0.01,-0.03 -0.01,-0.05zm0.75 -1.11l0.09 0c0.44,0.02 0.84,0.31 0.98,0.74 0.09,0.26 0.08,0.52 -0.01,0.75 -0.04,0.1 -0.11,0.21 -0.17,0.28 -0.03,0.05 -0.06,0.08 -0.1,0.12l-0.12 0.1c0.02,0.01 0.04,0.02 0.07,0.03 0.03,0.01 0.04,0.01 0.06,0.02 0.05,0.02 0.09,0.04 0.13,0.07 0.02,0.01 0.04,0.02 0.06,0.03 0.03,0.01 0.04,0.02 0.06,0.04 0.52,0.34 0.87,0.89 0.87,1.59l0 0 -0.29 0c0,-0.31 -0.11,-0.67 -0.29,-0.91 -0.03,-0.04 -0.09,-0.12 -0.13,-0.16l-0.15 -0.15c-0.08,-0.08 -0.26,-0.18 -0.37,-0.23 -0.09,-0.04 -0.19,-0.07 -0.29,-0.1 -0.08,-0.02 -0.27,-0.04 -0.36,-0.04l-0.18 0.01c-0.06,0.01 -0.12,0.02 -0.17,0.03 -0.22,0.06 -0.5,0.18 -0.66,0.33 -0.16,0.16 -0.14,0.12 -0.29,0.31 -0.17,0.24 -0.28,0.6 -0.28,0.91l-0.3 0 0 0c0,-0.69 0.36,-1.26 0.88,-1.6l0.12 -0.07c0.12,-0.06 0.18,-0.08 0.26,-0.11 -0.01,-0.02 -0.05,-0.04 -0.07,-0.05 -0.07,-0.07 -0.09,-0.09 -0.16,-0.17 -0.06,-0.07 -0.12,-0.19 -0.16,-0.28 -0.1,-0.25 -0.1,-0.51 -0.02,-0.75 0.07,-0.21 0.21,-0.4 0.37,-0.51 0.2,-0.15 0.41,-0.22 0.62,-0.23z"/>
    </g>
   </g>
   <path class="fil1 str0" d="M0.14 2.15c0.01,0.35 0.06,0.59 0.19,0.87 0.31,0.67 1.01,1.16 1.77,1.17l0.05 0c0.35,0 0.59,-0.05 0.87,-0.18 0.67,-0.31 1.16,-1.01 1.17,-1.77l0 -0.05c0,-0.35 -0.05,-0.59 -0.18,-0.87 -0.1,-0.23 -0.25,-0.42 -0.41,-0.58 -0.16,-0.17 -0.35,-0.3 -0.57,-0.41 -0.24,-0.11 -0.49,-0.17 -0.75,-0.19l-0.2 0c-0.5,0.03 -0.98,0.23 -1.34,0.6 -0.17,0.16 -0.3,0.35 -0.41,0.57 -0.09,0.2 -0.18,0.5 -0.19,0.78l0 0.06z"/>
   <g id="_2081734272736">
    <path class="fil2" d="M1.54 1.61l0 0.04c0,0.14 0.21,0.22 0.3,0.06 0.02,-0.05 0.01,-0.11 0.04,-0.19 0.09,-0.22 0.4,-0.27 0.55,-0.05 0.06,0.08 0.07,0.2 0.02,0.3 -0.09,0.21 -0.29,0.16 -0.37,0.21 -0.03,0.02 -0.07,0.06 -0.07,0.12l0 0.42c0,0.18 0.29,0.2 0.31,0.02 0.01,-0.06 0.01,-0.22 0.01,-0.29 0.04,0 0.15,-0.06 0.18,-0.08 0.27,-0.16 0.37,-0.52 0.23,-0.81 -0.14,-0.29 -0.5,-0.45 -0.83,-0.3 -0.07,0.03 -0.12,0.06 -0.18,0.12 -0.11,0.11 -0.19,0.25 -0.19,0.43z"/>
    <g style="clip-path:url(#id1)">
     <g>
      <path id="1" class="fil0" d="M1.44 -17.08c0,-0.01 0.01,-0.15 0.02,-0.18 0.03,-0.16 0.11,-0.27 0.2,-0.39 0.04,-0.04 0.17,-0.14 0.23,-0.16 0.15,-0.07 0.17,-0.06 0.32,-0.08 0.1,-0.01 0.25,0.03 0.33,0.06 0.11,0.05 0.16,0.09 0.24,0.16 0.03,0.02 0.03,0.03 0.05,0.05 0.09,0.11 0.13,0.19 0.17,0.33 0.02,0.05 0.02,0.12 0.03,0.17 0.01,0.09 -0.03,0.24 -0.07,0.33 -0.05,0.12 -0.12,0.21 -0.21,0.29 -0.11,0.09 -0.18,0.13 -0.32,0.17 -0.11,0.03 -0.25,0.03 -0.36,0.01 -0.15,-0.03 -0.27,-0.11 -0.39,-0.21l-0.09 -0.1c-0.08,-0.11 -0.14,-0.26 -0.14,-0.4 0,-0.03 -0.01,-0.03 -0.01,-0.05zm0.75 -1.11l0.09 0c0.44,0.02 0.84,0.31 0.98,0.74 0.09,0.26 0.08,0.52 -0.01,0.75 -0.04,0.1 -0.11,0.21 -0.17,0.28 -0.03,0.05 -0.06,0.08 -0.1,0.12l-0.12 0.1c0.02,0.01 0.04,0.02 0.07,0.03 0.03,0.01 0.04,0.01 0.06,0.02 0.05,0.02 0.09,0.04 0.13,0.07 0.02,0.01 0.04,0.02 0.06,0.03 0.03,0.01 0.04,0.02 0.06,0.04 0.52,0.34 0.87,0.89 0.87,1.59l0 0 -0.29 0c0,-0.31 -0.11,-0.67 -0.29,-0.91 -0.03,-0.04 -0.09,-0.12 -0.13,-0.16l-0.15 -0.15c-0.08,-0.08 -0.26,-0.18 -0.37,-0.23 -0.09,-0.04 -0.19,-0.07 -0.29,-0.1 -0.08,-0.02 -0.27,-0.04 -0.36,-0.04l-0.18 0.01c-0.06,0.01 -0.12,0.02 -0.17,0.03 -0.22,0.06 -0.5,0.18 -0.66,0.33 -0.16,0.16 -0.14,0.12 -0.29,0.31 -0.17,0.24 -0.28,0.6 -0.28,0.91l-0.3 0 0 0c0,-0.69 0.36,-1.26 0.88,-1.6l0.12 -0.07c0.12,-0.06 0.18,-0.08 0.26,-0.11 -0.01,-0.02 -0.05,-0.04 -0.07,-0.05 -0.07,-0.07 -0.09,-0.09 -0.16,-0.17 -0.06,-0.07 -0.12,-0.19 -0.16,-0.28 -0.1,-0.25 -0.1,-0.51 -0.02,-0.75 0.07,-0.21 0.21,-0.4 0.37,-0.51 0.2,-0.15 0.41,-0.22 0.62,-0.23z"/>
     </g>
    </g>
    <path class="fil1" d="M1.54 1.61l0 0.04c0,0.14 0.21,0.22 0.3,0.06 0.02,-0.05 0.01,-0.11 0.04,-0.19 0.09,-0.22 0.4,-0.27 0.55,-0.05 0.06,0.08 0.07,0.2 0.02,0.3 -0.09,0.21 -0.29,0.16 -0.37,0.21 -0.03,0.02 -0.07,0.06 -0.07,0.12l0 0.42c0,0.18 0.29,0.2 0.31,0.02 0.01,-0.06 0.01,-0.22 0.01,-0.29 0.04,0 0.15,-0.06 0.18,-0.08 0.27,-0.16 0.37,-0.52 0.23,-0.81 -0.14,-0.29 -0.5,-0.45 -0.83,-0.3 -0.07,0.03 -0.12,0.06 -0.18,0.12 -0.11,0.11 -0.19,0.25 -0.19,0.43z"/>
    <path class="fil2" d="M1.97 3.11c0,0.07 0.01,0.12 0.06,0.17 0.16,0.13 0.34,-0.01 0.34,-0.13 0,-0.06 -0.01,-0.11 -0.07,-0.16 -0.15,-0.14 -0.33,0.01 -0.33,0.12z"/>
    <g style="clip-path:url(#id2)">
     <g>
      <path id="1" class="fil0" d="M1.44 -17.08c0,-0.01 0.01,-0.15 0.02,-0.18 0.03,-0.16 0.11,-0.27 0.2,-0.39 0.04,-0.04 0.17,-0.14 0.23,-0.16 0.15,-0.07 0.17,-0.06 0.32,-0.08 0.1,-0.01 0.25,0.03 0.33,0.06 0.11,0.05 0.16,0.09 0.24,0.16 0.03,0.02 0.03,0.03 0.05,0.05 0.09,0.11 0.13,0.19 0.17,0.33 0.02,0.05 0.02,0.12 0.03,0.17 0.01,0.09 -0.03,0.24 -0.07,0.33 -0.05,0.12 -0.12,0.21 -0.21,0.29 -0.11,0.09 -0.18,0.13 -0.32,0.17 -0.11,0.03 -0.25,0.03 -0.36,0.01 -0.15,-0.03 -0.27,-0.11 -0.39,-0.21l-0.09 -0.1c-0.08,-0.11 -0.14,-0.26 -0.14,-0.4 0,-0.03 -0.01,-0.03 -0.01,-0.05zm0.75 -1.11l0.09 0c0.44,0.02 0.84,0.31 0.98,0.74 0.09,0.26 0.08,0.52 -0.01,0.75 -0.04,0.1 -0.11,0.21 -0.17,0.28 -0.03,0.05 -0.06,0.08 -0.1,0.12l-0.12 0.1c0.02,0.01 0.04,0.02 0.07,0.03 0.03,0.01 0.04,0.01 0.06,0.02 0.05,0.02 0.09,0.04 0.13,0.07 0.02,0.01 0.04,0.02 0.06,0.03 0.03,0.01 0.04,0.02 0.06,0.04 0.52,0.34 0.87,0.89 0.87,1.59l0 0 -0.29 0c0,-0.31 -0.11,-0.67 -0.29,-0.91 -0.03,-0.04 -0.09,-0.12 -0.13,-0.16l-0.15 -0.15c-0.08,-0.08 -0.26,-0.18 -0.37,-0.23 -0.09,-0.04 -0.19,-0.07 -0.29,-0.1 -0.08,-0.02 -0.27,-0.04 -0.36,-0.04l-0.18 0.01c-0.06,0.01 -0.12,0.02 -0.17,0.03 -0.22,0.06 -0.5,0.18 -0.66,0.33 -0.16,0.16 -0.14,0.12 -0.29,0.31 -0.17,0.24 -0.28,0.6 -0.28,0.91l-0.3 0 0 0c0,-0.69 0.36,-1.26 0.88,-1.6l0.12 -0.07c0.12,-0.06 0.18,-0.08 0.26,-0.11 -0.01,-0.02 -0.05,-0.04 -0.07,-0.05 -0.07,-0.07 -0.09,-0.09 -0.16,-0.17 -0.06,-0.07 -0.12,-0.19 -0.16,-0.28 -0.1,-0.25 -0.1,-0.51 -0.02,-0.75 0.07,-0.21 0.21,-0.4 0.37,-0.51 0.2,-0.15 0.41,-0.22 0.62,-0.23z"/>
     </g>
    </g>
    <path class="fil1" d="M1.97 3.11c0,0.07 0.01,0.12 0.06,0.17 0.16,0.13 0.34,-0.01 0.34,-0.13 0,-0.06 -0.01,-0.11 -0.07,-0.16 -0.15,-0.14 -0.33,0.01 -0.33,0.12z"/>
   </g>
  </g>
 </g>
</svg>
