<?xml version="1.0" encoding="UTF-8"?>
<!DOCTYPE svg PUBLIC "-//W3C//DTD SVG 1.1//EN" "http://www.w3.org/Graphics/SVG/1.1/DTD/svg11.dtd">
<!-- Creator: CorelDRAW 2019 (64-Bit) -->
<svg xmlns="http://www.w3.org/2000/svg" xml:space="preserve" width="182px" height="213px" version="1.1" style="shape-rendering:geometricPrecision; text-rendering:geometricPrecision; image-rendering:optimizeQuality; fill-rule:evenodd; clip-rule:evenodd"
viewBox="0 0 2.04 2.39"
 xmlns:xlink="http://www.w3.org/1999/xlink">
 <defs>
  <style type="text/css">
   <![CDATA[
    .fil0 {fill:#7600B9}
   ]]>
  </style>
 </defs>
 <g id="Layer_x0020_1">
  <metadata id="CorelCorpID_0Corel-Layer"/>
  <g id="_2083033274960">
   <path class="fil0" d="M0.46 2.19c0,-0.02 0.02,-0.04 0.04,-0.04l1.04 0c0.06,0 0.05,0.07 0.05,0.12l-1.13 0 0 -0.08zm0.26 -0.35l0.6 0 0 0.19 -0.6 0 0 -0.19zm0.45 -0.12l-0.3 0c0.04,-0.05 0.09,-0.11 0.09,-0.2 0,-0.03 -0.01,-0.03 0.07,-0.03 0.07,0 0.05,-0.01 0.06,0.03 0,0.08 0.05,0.15 0.08,0.2zm-0.72 -1.28l0 -0.33 1.14 0c0,0.36 0.02,0.61 -0.15,0.93 -0.1,0.22 -0.32,0.43 -0.57,0.3 -0.06,-0.03 -0.07,-0.04 -0.11,-0.08 -0.07,-0.05 -0.16,-0.2 -0.19,-0.28 -0.07,-0.16 -0.12,-0.36 -0.12,-0.54zm1.2 0.39c0,-0.03 0.06,-0.21 0.06,-0.47l0 -0.08 0.14 0c0.12,0 0.07,0.13 0.04,0.21 -0.02,0.05 -0.03,0.09 -0.06,0.13 -0.03,0.04 -0.05,0.08 -0.08,0.11 -0.03,0.03 -0.06,0.08 -0.1,0.1zm-1.54 -0.49c0,-0.04 0.04,-0.06 0.08,-0.06l0.15 0c0,0.12 0,0.2 0.01,0.32 0,0.04 0.01,0.08 0.02,0.12l0.02 0.11 -0.07 -0.07c-0.09,-0.09 -0.21,-0.3 -0.21,-0.42zm0.23 -0.21l0 0.04c-0.11,0 -0.22,-0.02 -0.29,0.05 -0.09,0.08 -0.04,0.22 0,0.33 0.07,0.16 0.18,0.31 0.32,0.41 0.05,0.03 0.08,0.04 0.09,0.06 0.03,0.07 0.03,0.07 0.07,0.14l0.08 0.11c0.05,0.07 0.12,0.13 0.2,0.17 0.04,0.02 0.04,0.01 0.04,0.06 0,0.03 -0.02,0.08 -0.03,0.1 -0.08,0.15 -0.21,0.09 -0.21,0.18l0 0.25c-0.07,0 -0.17,-0.01 -0.22,0.05 -0.06,0.07 -0.05,0.14 -0.05,0.23 0,0.04 0.02,0.08 0.05,0.08l1.26 0c0.07,0 0.06,-0.12 0.06,-0.18 0,-0.1 -0.08,-0.18 -0.18,-0.18l-0.09 0 0 -0.26c0,-0.08 -0.24,-0.02 -0.24,-0.32 0.09,-0.02 0.21,-0.15 0.26,-0.22 0.07,-0.09 0.07,-0.11 0.12,-0.21 0.01,-0.02 0,0 0.01,-0.02 0.06,-0.04 0.08,-0.02 0.21,-0.16 0.08,-0.08 0.15,-0.18 0.19,-0.29 0.04,-0.11 0.09,-0.24 0,-0.33 -0.07,-0.07 -0.17,-0.05 -0.28,-0.05 0,-0.06 0,-0.12 -0.07,-0.16 -0.01,0 -0.02,-0.01 -0.04,-0.01l-1.16 0c-0.03,0 -0.05,0.01 -0.06,0.03 -0.03,0.03 -0.04,0.05 -0.04,0.1z"/>
   <path class="fil0" d="M0.86 0.62c0.03,0 0.09,0 0.11,-0.02 0.01,-0.01 0.04,-0.07 0.05,-0.09l0.01 0c0,0.02 0.03,0.08 0.04,0.09 0.02,0.02 0.08,0.02 0.11,0.02 -0.02,0.03 -0.05,0.05 -0.07,0.07 -0.02,0.03 0.01,0.08 0.01,0.12 -0.03,-0.02 -0.07,-0.04 -0.1,-0.04 -0.03,0 -0.07,0.03 -0.1,0.04 0,-0.04 0.03,-0.08 0.01,-0.11 -0.01,-0.02 -0.05,-0.05 -0.07,-0.08zm-0.18 -0.04c0,0.04 0.04,0.06 0.07,0.09 0.09,0.09 0.07,0.04 0.04,0.21 0,0.02 -0.01,0.06 0.02,0.08 0.04,0.03 0.08,-0.01 0.12,-0.03 0.12,-0.05 0.07,-0.05 0.17,0 0.04,0.02 0.11,0.07 0.14,0.02 0.02,-0.02 0.01,-0.04 0.01,-0.06 -0.01,-0.02 -0.01,-0.04 -0.01,-0.07 -0.01,-0.05 -0.03,-0.07 -0.01,-0.09 0.04,-0.03 0.07,-0.06 0.1,-0.09 0.05,-0.04 0.05,-0.1 -0.05,-0.12 -0.05,0 -0.09,-0.01 -0.14,-0.02 0,-0.02 -0.03,-0.08 -0.04,-0.1 -0.02,-0.03 -0.03,-0.08 -0.08,-0.08 -0.05,0 -0.07,0.07 -0.1,0.13 -0.03,0.06 -0.01,0.05 -0.05,0.06 -0.03,0 -0.14,0.02 -0.16,0.02 -0.01,0.01 -0.03,0.03 -0.03,0.05z"/>
  </g>
 </g>
</svg>
