<?xml version="1.0" encoding="UTF-8"?>
<!DOCTYPE svg PUBLIC "-//W3C//DTD SVG 1.1//EN" "http://www.w3.org/Graphics/SVG/1.1/DTD/svg11.dtd">
<!-- Creator: CorelDRAW 2019 (64-Bit) -->
<svg xmlns="http://www.w3.org/2000/svg" xml:space="preserve" width="248px" height="248px" version="1.1" style="shape-rendering:geometricPrecision; text-rendering:geometricPrecision; image-rendering:optimizeQuality; fill-rule:evenodd; clip-rule:evenodd"
viewBox="0 0 3.78 3.78"
 xmlns:xlink="http://www.w3.org/1999/xlink">
 <defs>
  <style type="text/css">
   <![CDATA[
    .fil2 {fill:none}
    .fil3 {fill:#FEFEFE}
    .fil1 {fill:#662F85}
    .fil0 {fill:url(#id3)}
   ]]>
  </style>
    <clipPath id="id0">
     <path d="M1.89 0c1.04,0 1.89,0.85 1.89,1.89 0,1.04 -0.85,1.89 -1.89,1.89 -1.04,0 -1.89,-0.85 -1.89,-1.89 0,-1.04 0.85,-1.89 1.89,-1.89z"/>
    </clipPath>
     <clipPath id="id1">
      <path d="M0.77 1.91c0,0.48 0.25,0.84 0.63,1.03 0.29,0.15 0.68,0.15 0.97,0.01 0.13,-0.07 0.22,-0.13 0.32,-0.23 0.07,-0.07 0.06,-0.07 0.12,-0.15 0.07,-0.1 0.13,-0.24 0.17,-0.37 0.07,-0.28 0.02,-0.58 -0.12,-0.82 -0.09,-0.15 -0.31,-0.47 -0.51,-0.29 -0.04,0.04 -0.06,0.09 -0.06,0.16 0,0.14 0.13,0.14 0.24,0.37 0.14,0.27 0.09,0.55 -0.11,0.79 -0.01,0.02 -0.02,0.03 -0.04,0.05 -0.12,0.1 -0.27,0.19 -0.49,0.19 -0.22,0 -0.36,-0.09 -0.49,-0.19l-0.1 -0.12c-0.17,-0.26 -0.16,-0.57 0,-0.81 0.09,-0.13 0.19,-0.17 0.19,-0.28 0,-0.16 -0.2,-0.34 -0.42,-0.08 -0.17,0.19 -0.3,0.45 -0.3,0.74z"/>
     </clipPath>
     <clipPath id="id2">
      <path d="M1.66 0.82l0 0.77c0,0.11 0.12,0.2 0.23,0.2 0.11,0 0.22,-0.09 0.22,-0.2l0 -0.77c0,-0.17 -0.24,-0.27 -0.38,-0.14 -0.03,0.03 -0.07,0.09 -0.07,0.14z"/>
     </clipPath>
  <linearGradient id="id3" gradientUnits="userSpaceOnUse" x1="0" y1="1.89" x2="3.78" y2="1.89">
   <stop offset="0" style="stop-opacity:1; stop-color:#7400B8"/>
   <stop offset="0.701961" style="stop-opacity:1; stop-color:#B900DB"/>
   <stop offset="1" style="stop-opacity:1; stop-color:fuchsia"/>
  </linearGradient>
 </defs>
 <g id="Layer_x0020_1">
  <metadata id="CorelCorpID_0Corel-Layer"/>
  <g id="_2083815688688">
   <path class="fil0" d="M1.89 0c1.04,0 1.89,0.85 1.89,1.89 0,1.04 -0.85,1.89 -1.89,1.89 -1.04,0 -1.89,-0.85 -1.89,-1.89 0,-1.04 0.85,-1.89 1.89,-1.89z"/>
   <g style="clip-path:url(#id0)">
    <g>
     <path id="1" class="fil1" d="M1.31 -28.9c0,-0.01 0.01,-0.13 0.01,-0.14 0.03,-0.13 0.09,-0.22 0.17,-0.31 0.02,-0.04 0.13,-0.12 0.18,-0.14 0.12,-0.05 0.13,-0.04 0.25,-0.06 0.08,-0.01 0.2,0.03 0.27,0.05 0.08,0.04 0.12,0.08 0.19,0.13 0.02,0.01 0.02,0.02 0.03,0.04 0.08,0.09 0.11,0.15 0.14,0.26 0.01,0.04 0.02,0.09 0.02,0.14 0.01,0.07 -0.02,0.19 -0.05,0.26 -0.04,0.09 -0.09,0.16 -0.17,0.23 -0.08,0.07 -0.14,0.1 -0.26,0.13 -0.08,0.03 -0.19,0.03 -0.28,0.01 -0.12,-0.02 -0.22,-0.09 -0.31,-0.16l-0.07 -0.09c-0.06,-0.08 -0.11,-0.2 -0.12,-0.31 0,-0.03 0,-0.03 0,-0.04zm0.59 -0.88l0.08 0c0.35,0.01 0.67,0.24 0.78,0.59 0.07,0.2 0.06,0.41 -0.01,0.59 -0.03,0.08 -0.08,0.17 -0.13,0.23 -0.03,0.03 -0.05,0.05 -0.09,0.09l-0.09 0.08c0.01,0.01 0.03,0.01 0.05,0.02 0.03,0.01 0.03,0.01 0.06,0.02 0.03,0.02 0.07,0.03 0.1,0.05 0.02,0.01 0.03,0.02 0.05,0.03 0.01,0.01 0.03,0.02 0.05,0.03 0.41,0.27 0.69,0.71 0.69,1.26l0 0.01 -0.23 0c0,-0.25 -0.09,-0.54 -0.23,-0.73 -0.03,-0.03 -0.08,-0.1 -0.11,-0.13l-0.12 -0.11c-0.07,-0.07 -0.2,-0.15 -0.29,-0.19 -0.07,-0.03 -0.15,-0.06 -0.24,-0.08 -0.06,-0.01 -0.21,-0.03 -0.28,-0.03l-0.15 0.01c-0.05,0.01 -0.09,0.01 -0.13,0.02 -0.18,0.05 -0.4,0.15 -0.53,0.27 -0.13,0.12 -0.11,0.09 -0.23,0.24 -0.14,0.19 -0.22,0.48 -0.22,0.73l-0.24 0 0 -0.01c0,-0.55 0.29,-1 0.7,-1.26l0.1 -0.06c0.09,-0.05 0.14,-0.06 0.2,-0.09 -0.01,-0.02 -0.03,-0.03 -0.05,-0.04 -0.05,-0.06 -0.08,-0.07 -0.13,-0.14 -0.05,-0.06 -0.1,-0.14 -0.13,-0.22 -0.07,-0.2 -0.07,-0.41 -0.01,-0.6 0.05,-0.16 0.17,-0.31 0.3,-0.41 0.15,-0.11 0.32,-0.17 0.48,-0.17z"/>
    </g>
   </g>
   <path class="fil2" d="M1.89 0c1.04,0 1.89,0.85 1.89,1.89 0,1.04 -0.85,1.89 -1.89,1.89 -1.04,0 -1.89,-0.85 -1.89,-1.89 0,-1.04 0.85,-1.89 1.89,-1.89z"/>
   <g>
    <path class="fil3" d="M0.77 1.91c0,0.48 0.25,0.84 0.63,1.03 0.29,0.15 0.68,0.15 0.97,0.01 0.13,-0.07 0.22,-0.13 0.32,-0.23 0.07,-0.07 0.06,-0.07 0.12,-0.15 0.07,-0.1 0.13,-0.24 0.17,-0.37 0.07,-0.28 0.02,-0.58 -0.12,-0.82 -0.09,-0.15 -0.31,-0.47 -0.51,-0.29 -0.04,0.04 -0.06,0.09 -0.06,0.16 0,0.14 0.13,0.14 0.24,0.37 0.14,0.27 0.09,0.55 -0.11,0.79 -0.01,0.02 -0.02,0.03 -0.04,0.05 -0.12,0.1 -0.27,0.19 -0.49,0.19 -0.22,0 -0.36,-0.09 -0.49,-0.19l-0.1 -0.12c-0.17,-0.26 -0.16,-0.57 0,-0.81 0.09,-0.13 0.19,-0.17 0.19,-0.28 0,-0.16 -0.2,-0.34 -0.42,-0.08 -0.17,0.19 -0.3,0.45 -0.3,0.74z"/>
    <g style="clip-path:url(#id1)">
     <g>
      <path id="1" class="fil1" d="M1.31 -28.9c0,-0.01 0.01,-0.13 0.01,-0.14 0.03,-0.13 0.09,-0.22 0.17,-0.31 0.02,-0.04 0.13,-0.12 0.18,-0.14 0.12,-0.05 0.13,-0.04 0.25,-0.06 0.08,-0.01 0.2,0.03 0.27,0.05 0.08,0.04 0.12,0.08 0.19,0.13 0.02,0.01 0.02,0.02 0.03,0.04 0.08,0.09 0.11,0.15 0.14,0.26 0.01,0.04 0.02,0.09 0.02,0.14 0.01,0.07 -0.02,0.19 -0.05,0.26 -0.04,0.09 -0.09,0.16 -0.17,0.23 -0.08,0.07 -0.14,0.1 -0.26,0.13 -0.08,0.03 -0.19,0.03 -0.28,0.01 -0.12,-0.02 -0.22,-0.09 -0.31,-0.16l-0.07 -0.09c-0.06,-0.08 -0.11,-0.2 -0.12,-0.31 0,-0.03 0,-0.03 0,-0.04zm0.59 -0.88l0.08 0c0.35,0.01 0.67,0.24 0.78,0.59 0.07,0.2 0.06,0.41 -0.01,0.59 -0.03,0.08 -0.08,0.17 -0.13,0.23 -0.03,0.03 -0.05,0.05 -0.09,0.09l-0.09 0.08c0.01,0.01 0.03,0.01 0.05,0.02 0.03,0.01 0.03,0.01 0.06,0.02 0.03,0.02 0.07,0.03 0.1,0.05 0.02,0.01 0.03,0.02 0.05,0.03 0.01,0.01 0.03,0.02 0.05,0.03 0.41,0.27 0.69,0.71 0.69,1.26l0 0.01 -0.23 0c0,-0.25 -0.09,-0.54 -0.23,-0.73 -0.03,-0.03 -0.08,-0.1 -0.11,-0.13l-0.12 -0.11c-0.07,-0.07 -0.2,-0.15 -0.29,-0.19 -0.07,-0.03 -0.15,-0.06 -0.24,-0.08 -0.06,-0.01 -0.21,-0.03 -0.28,-0.03l-0.15 0.01c-0.05,0.01 -0.09,0.01 -0.13,0.02 -0.18,0.05 -0.4,0.15 -0.53,0.27 -0.13,0.12 -0.11,0.09 -0.23,0.24 -0.14,0.19 -0.22,0.48 -0.22,0.73l-0.24 0 0 -0.01c0,-0.55 0.29,-1 0.7,-1.26l0.1 -0.06c0.09,-0.05 0.14,-0.06 0.2,-0.09 -0.01,-0.02 -0.03,-0.03 -0.05,-0.04 -0.05,-0.06 -0.08,-0.07 -0.13,-0.14 -0.05,-0.06 -0.1,-0.14 -0.13,-0.22 -0.07,-0.2 -0.07,-0.41 -0.01,-0.6 0.05,-0.16 0.17,-0.31 0.3,-0.41 0.15,-0.11 0.32,-0.17 0.48,-0.17z"/>
     </g>
    </g>
    <path class="fil2" d="M0.77 1.91c0,0.48 0.25,0.84 0.63,1.03 0.29,0.15 0.68,0.15 0.97,0.01 0.13,-0.07 0.22,-0.13 0.32,-0.23 0.07,-0.07 0.06,-0.07 0.12,-0.15 0.07,-0.1 0.13,-0.24 0.17,-0.37 0.07,-0.28 0.02,-0.58 -0.12,-0.82 -0.09,-0.15 -0.31,-0.47 -0.51,-0.29 -0.04,0.04 -0.06,0.09 -0.06,0.16 0,0.14 0.13,0.14 0.24,0.37 0.14,0.27 0.09,0.55 -0.11,0.79 -0.01,0.02 -0.02,0.03 -0.04,0.05 -0.12,0.1 -0.27,0.19 -0.49,0.19 -0.22,0 -0.36,-0.09 -0.49,-0.19l-0.1 -0.12c-0.17,-0.26 -0.16,-0.57 0,-0.81 0.09,-0.13 0.19,-0.17 0.19,-0.28 0,-0.16 -0.2,-0.34 -0.42,-0.08 -0.17,0.19 -0.3,0.45 -0.3,0.74z"/>
    <path class="fil3" d="M1.66 0.82l0 0.77c0,0.11 0.12,0.2 0.23,0.2 0.11,0 0.22,-0.09 0.22,-0.2l0 -0.77c0,-0.17 -0.24,-0.27 -0.38,-0.14 -0.03,0.03 -0.07,0.09 -0.07,0.14z"/>
    <g style="clip-path:url(#id2)">
     <g>
      <path id="1" class="fil1" d="M1.31 -28.9c0,-0.01 0.01,-0.13 0.01,-0.14 0.03,-0.13 0.09,-0.22 0.17,-0.31 0.02,-0.04 0.13,-0.12 0.18,-0.14 0.12,-0.05 0.13,-0.04 0.25,-0.06 0.08,-0.01 0.2,0.03 0.27,0.05 0.08,0.04 0.12,0.08 0.19,0.13 0.02,0.01 0.02,0.02 0.03,0.04 0.08,0.09 0.11,0.15 0.14,0.26 0.01,0.04 0.02,0.09 0.02,0.14 0.01,0.07 -0.02,0.19 -0.05,0.26 -0.04,0.09 -0.09,0.16 -0.17,0.23 -0.08,0.07 -0.14,0.1 -0.26,0.13 -0.08,0.03 -0.19,0.03 -0.28,0.01 -0.12,-0.02 -0.22,-0.09 -0.31,-0.16l-0.07 -0.09c-0.06,-0.08 -0.11,-0.2 -0.12,-0.31 0,-0.03 0,-0.03 0,-0.04zm0.59 -0.88l0.08 0c0.35,0.01 0.67,0.24 0.78,0.59 0.07,0.2 0.06,0.41 -0.01,0.59 -0.03,0.08 -0.08,0.17 -0.13,0.23 -0.03,0.03 -0.05,0.05 -0.09,0.09l-0.09 0.08c0.01,0.01 0.03,0.01 0.05,0.02 0.03,0.01 0.03,0.01 0.06,0.02 0.03,0.02 0.07,0.03 0.1,0.05 0.02,0.01 0.03,0.02 0.05,0.03 0.01,0.01 0.03,0.02 0.05,0.03 0.41,0.27 0.69,0.71 0.69,1.26l0 0.01 -0.23 0c0,-0.25 -0.09,-0.54 -0.23,-0.73 -0.03,-0.03 -0.08,-0.1 -0.11,-0.13l-0.12 -0.11c-0.07,-0.07 -0.2,-0.15 -0.29,-0.19 -0.07,-0.03 -0.15,-0.06 -0.24,-0.08 -0.06,-0.01 -0.21,-0.03 -0.28,-0.03l-0.15 0.01c-0.05,0.01 -0.09,0.01 -0.13,0.02 -0.18,0.05 -0.4,0.15 -0.53,0.27 -0.13,0.12 -0.11,0.09 -0.23,0.24 -0.14,0.19 -0.22,0.48 -0.22,0.73l-0.24 0 0 -0.01c0,-0.55 0.29,-1 0.7,-1.26l0.1 -0.06c0.09,-0.05 0.14,-0.06 0.2,-0.09 -0.01,-0.02 -0.03,-0.03 -0.05,-0.04 -0.05,-0.06 -0.08,-0.07 -0.13,-0.14 -0.05,-0.06 -0.1,-0.14 -0.13,-0.22 -0.07,-0.2 -0.07,-0.41 -0.01,-0.6 0.05,-0.16 0.17,-0.31 0.3,-0.41 0.15,-0.11 0.32,-0.17 0.48,-0.17z"/>
     </g>
    </g>
    <path class="fil2" d="M1.66 0.82l0 0.77c0,0.11 0.12,0.2 0.23,0.2 0.11,0 0.22,-0.09 0.22,-0.2l0 -0.77c0,-0.17 -0.24,-0.27 -0.38,-0.14 -0.03,0.03 -0.07,0.09 -0.07,0.14z"/>
   </g>
  </g>
 </g>
</svg>
