<?xml version="1.0" encoding="UTF-8"?>
<!DOCTYPE svg PUBLIC "-//W3C//DTD SVG 1.1//EN" "http://www.w3.org/Graphics/SVG/1.1/DTD/svg11.dtd">
<!-- Creator: CorelDRAW 2019 (64-Bit) -->
<svg xmlns="http://www.w3.org/2000/svg" xml:space="preserve" width="83px" height="83px" version="1.1" style="shape-rendering:geometricPrecision; text-rendering:geometricPrecision; image-rendering:optimizeQuality; fill-rule:evenodd; clip-rule:evenodd"
viewBox="0 0 1.36 1.36"
 xmlns:xlink="http://www.w3.org/1999/xlink">
 <defs>
  <style type="text/css">
   <![CDATA[
    .fil1 {fill:#FEFEFE}
    .fil0 {fill:#5B5B5B}
   ]]>
  </style>
 </defs>
 <g id="PowerClip_x0020_Contents">
  <metadata id="CorelCorpID_0Corel-Layer"/>
  <g id="_2212059295280">
   <path class="fil0" d="M0.68 1.16c-0.03,-0.01 -0.31,0 -0.37,0 -0.21,0 -0.2,0.03 -0.2,-0.18 0,-0.13 0,-0.26 0,-0.39 0,-0.12 -0.01,-0.25 0,-0.38l1.04 0 0 0.44c0.09,-0.02 0.06,-0.01 0.11,-0.01l0 -0.49c0,-0.07 -0.05,-0.12 -0.11,-0.14 -0.05,-0.02 -0.17,-0.01 -0.23,-0.01l-0.74 0c-0.21,0 -0.18,0.2 -0.18,0.32l0 0.74c0,0.07 0,0.13 0.07,0.18 0.06,0.03 0.15,0.02 0.23,0.02 0.06,0 0.28,0 0.34,0 0.03,0 0.02,-0.03 0.04,-0.1z"/>
   <path class="fil0" d="M0.93 1.25l0.01 0.01 -0.01 0c-0.03,0.01 -0.08,0.03 -0.1,0.03 -0.03,-0.03 -0.02,-0.03 -0.01,-0.06 0.01,-0.02 0.02,-0.04 0.02,-0.07 0.07,0.02 0.09,0.01 0.09,0.09zm0.3 -0.21l-0.13 -0.13c-0.01,-0.01 -0.03,-0.03 -0.04,-0.03 -0.04,0.04 -0.2,0.19 -0.25,0.25 -0.02,0.01 -0.08,0.21 -0.06,0.23 0.02,0.01 0.2,-0.04 0.23,-0.07 0.05,-0.04 0.09,-0.1 0.15,-0.15 0.02,-0.02 0.09,-0.08 0.1,-0.1z"/>
   <polygon class="fil0" points="0.26,0.53 1,0.53 1,0.42 0.26,0.42 "/>
   <polygon class="fil0" points="0.27,0.73 1,0.73 1,0.63 0.27,0.63 "/>
   <path class="fil0" d="M0.95 0.84l-0.69 0c0,0.13 -0.01,0.11 0.12,0.11l0.33 0c0.11,0 0.08,0 0.17,-0.06 0.02,-0.01 0.06,-0.03 0.07,-0.05z"/>
   <path class="fil0" d="M1.12 0.82l0.16 0.16c0.02,-0.01 0.02,-0.02 0.04,-0.04 0.01,-0.01 0.03,-0.02 0.04,-0.04 0.01,-0.05 -0.04,-0.08 -0.1,-0.14 -0.01,-0.01 -0.03,-0.03 -0.06,-0.02 -0.01,0.01 -0.07,0.07 -0.08,0.08z"/>
   <path class="fil1" d="M0.93 1.26c0,-0.01 0,0.01 0,-0.01 0,-0.08 -0.02,-0.07 -0.09,-0.09 0,0.03 -0.01,0.05 -0.02,0.07 -0.01,0.03 -0.02,0.03 0.01,0.06 0.02,0 0.07,-0.02 0.1,-0.03z"/>
   <path class="fil0" d="M0.27 0.63l0.73 0 0 0.1 -0.73 0 0 -0.1zm-0.01 0.11l0.74 0 0 -0.11 -0.02 0 -0.69 0 -0.03 0 0 0.11z"/>
   <path class="fil0" d="M0.93 1.26l0.01 0 -0.01 -0.01c0,0.02 0,0 0,0.01z"/>
  </g>
 </g>
</svg>
