<svg xmlns="http://www.w3.org/2000/svg" width="837" height="965" viewBox="0 0 837 965" fill="none">
  <path fill-rule="evenodd" clip-rule="evenodd" d="M585.274 122.783H749.228L725.876 155.463H562.386L585.274 122.783Z" fill="#7400B8" fill-opacity="0.05"/>
  <path fill-rule="evenodd" clip-rule="evenodd" d="M541.656 185.045H704.709L681.357 217.751H518.768L541.656 185.045Z" fill="#7400B8" fill-opacity="0.05"/>
  <path fill-rule="evenodd" clip-rule="evenodd" d="M498.049 247.333H660.226L636.848 280.014H475.16L498.049 247.333Z" fill="#7400B8" fill-opacity="0.05"/>
  <path fill-rule="evenodd" clip-rule="evenodd" d="M454.425 309.595H615.702L592.35 342.301H431.537L454.425 309.595Z" fill="#7400B8" fill-opacity="0.05"/>
  <path fill-rule="evenodd" clip-rule="evenodd" d="M410.812 371.883H571.188L547.836 404.563H387.924L410.812 371.883Z" fill="#7400B8" fill-opacity="0.05"/>
  <path fill-rule="evenodd" clip-rule="evenodd" d="M-18.3275 434.145H156.208L178.119 466.825H5.02456L-18.3018 434.145H-18.3275ZM526.701 434.145L503.323 466.825H344.287L367.175 434.145H526.701Z" fill="#7400B8" fill-opacity="0.05"/>
  <path fill-rule="evenodd" clip-rule="evenodd" d="M26.1119 496.407H197.919L219.829 529.088H49.4382L26.1119 496.407ZM323.587 496.407H482.186L458.834 529.088H300.699L323.587 496.407Z" fill="#7400B8" fill-opacity="0.05"/>
  <path fill-rule="evenodd" clip-rule="evenodd" d="M70.5723 558.695H239.65L259.372 588.097L279.969 558.695H437.667L414.314 591.375H93.8987L70.5723 558.695Z" fill="#7400B8" fill-opacity="0.05"/>
  <path fill-rule="evenodd" clip-rule="evenodd" d="M115.038 620.957H393.178L369.8 653.638H138.364L115.038 620.957Z" fill="#7400B8" fill-opacity="0.05"/>
  <path fill-rule="evenodd" clip-rule="evenodd" d="M159.479 683.219H348.665L343.464 690.519L361.306 715.925H148.279L165.658 691.876L159.479 683.219Z" fill="#7400B8" fill-opacity="0.05"/>
  <path fill-rule="evenodd" clip-rule="evenodd" d="M126.853 745.507H382.105L405.096 778.188H103.192L126.853 745.507Z" fill="#7400B8" fill-opacity="0.05"/>
  <path fill-rule="evenodd" clip-rule="evenodd" d="M81.7982 807.769H240.5L218.512 840.45H58.1371L81.7982 807.769ZM259.604 807.769H425.901L448.892 840.45H281.076L259.604 807.769Z" fill="#7400B8" fill-opacity="0.05"/>
  <path fill-rule="evenodd" clip-rule="evenodd" d="M36.7165 870.057H198.611L176.623 902.738H13.0554L36.7165 870.057ZM300.49 870.057H469.67L492.662 902.738H321.988L300.516 870.057H300.49Z" fill="#7400B8" fill-opacity="0.05"/>
  <path fill-rule="evenodd" clip-rule="evenodd" d="M-8.33893 932.319H156.748L134.76 965H-32L-8.33893 932.319ZM341.428 932.319H513.466L536.458 965H362.9L341.428 932.319Z" fill="#7400B8" fill-opacity="0.05"/>
  <path fill-rule="evenodd" clip-rule="evenodd" d="M628.887 60.5205H793.742L770.365 93.2011H605.999L628.887 60.5205Z" fill="#7400B8" fill-opacity="0.05"/>
  <path fill-rule="evenodd" clip-rule="evenodd" d="M814.884 30.939H649.617L671.27 0H837L814.884 30.939Z" fill="#7400B8" fill-opacity="0.05"/>
</svg>