<?xml version="1.0" encoding="UTF-8"?>
<!DOCTYPE svg PUBLIC "-//W3C//DTD SVG 1.1//EN" "http://www.w3.org/Graphics/SVG/1.1/DTD/svg11.dtd">
<!-- Creator: CorelDRAW 2019 (64-Bit) -->
<svg xmlns="http://www.w3.org/2000/svg" xml:space="preserve" width="266px" height="266px" version="1.1" style="shape-rendering:geometricPrecision; text-rendering:geometricPrecision; image-rendering:optimizeQuality; fill-rule:evenodd; clip-rule:evenodd"
viewBox="0 0 4.34 4.34"
 xmlns:xlink="http://www.w3.org/1999/xlink">
 <defs>
  <style type="text/css">
   <![CDATA[
    .str0 {stroke:#7400B8;stroke-width:0.29;stroke-miterlimit:2.61313}
    .fil1 {fill:none}
    .fil0 {fill:#662F85}
   ]]>
  </style>
   <clipPath id="id0">
    <path d="M2.17 0.14c1.12,0 2.02,0.91 2.02,2.03 0,1.12 -0.9,2.02 -2.02,2.02 -1.12,0 -2.03,-0.9 -2.03,-2.02 0,-1.12 0.91,-2.03 2.03,-2.03z"/>
   </clipPath>
 </defs>
 <g id="Layer_x0020_1">
  <metadata id="CorelCorpID_0Corel-Layer"/>
  <g>
  </g>
  <g style="clip-path:url(#id0)">
   <g>
    <path class="fil0" d="M1.45 1.77c0,-0.01 0.01,-0.14 0.02,-0.16 0.02,-0.15 0.1,-0.26 0.19,-0.36 0.03,-0.04 0.15,-0.13 0.21,-0.15 0.14,-0.06 0.15,-0.05 0.29,-0.07 0.08,-0.01 0.22,0.02 0.3,0.06 0.09,0.03 0.15,0.08 0.22,0.14 0.02,0.02 0.02,0.03 0.04,0.05 0.09,0.09 0.12,0.16 0.16,0.29 0.01,0.05 0.02,0.11 0.02,0.16 0.01,0.09 -0.03,0.22 -0.06,0.3 -0.04,0.11 -0.11,0.19 -0.19,0.26 -0.1,0.09 -0.17,0.12 -0.3,0.16 -0.09,0.03 -0.22,0.03 -0.32,0.01 -0.14,-0.03 -0.25,-0.1 -0.35,-0.19l-0.09 -0.09c-0.07,-0.1 -0.13,-0.24 -0.13,-0.37 0,-0.03 -0.01,-0.02 -0.01,-0.04zm0.68 -1.01l0.09 0c0.4,0.01 0.77,0.27 0.9,0.67 0.08,0.24 0.07,0.47 -0.02,0.69 -0.03,0.08 -0.09,0.19 -0.14,0.25 -0.04,0.04 -0.06,0.07 -0.1,0.11l-0.11 0.09c0.02,0.01 0.04,0.02 0.06,0.03 0.03,0 0.04,0.01 0.06,0.02 0.05,0.02 0.08,0.04 0.12,0.06 0.02,0.01 0.04,0.02 0.06,0.03 0.02,0.01 0.03,0.02 0.05,0.03 0.47,0.31 0.8,0.82 0.8,1.46l0 0 -0.27 0c0,-0.28 -0.1,-0.62 -0.26,-0.83 -0.03,-0.04 -0.09,-0.11 -0.13,-0.15l-0.13 -0.13c-0.08,-0.08 -0.24,-0.17 -0.34,-0.21 -0.08,-0.04 -0.17,-0.07 -0.27,-0.1 -0.07,-0.01 -0.25,-0.03 -0.32,-0.03l-0.17 0.01c-0.06,0.01 -0.11,0.01 -0.16,0.02 -0.2,0.05 -0.46,0.17 -0.6,0.31 -0.15,0.14 -0.13,0.1 -0.26,0.28 -0.16,0.21 -0.26,0.55 -0.26,0.83l-0.27 0 0 0c0,-0.64 0.32,-1.15 0.8,-1.46l0.11 -0.06c0.11,-0.06 0.17,-0.08 0.24,-0.11 -0.02,-0.02 -0.04,-0.03 -0.06,-0.05 -0.07,-0.06 -0.09,-0.08 -0.15,-0.15 -0.06,-0.07 -0.12,-0.17 -0.15,-0.26 -0.09,-0.22 -0.09,-0.46 -0.01,-0.68 0.06,-0.19 0.19,-0.36 0.33,-0.47 0.18,-0.13 0.37,-0.2 0.56,-0.2z"/>
   </g>
  </g>
  <path class="fil1 str0" d="M2.17 0.14c1.12,0 2.02,0.91 2.02,2.03 0,1.12 -0.9,2.02 -2.02,2.02 -1.12,0 -2.03,-0.9 -2.03,-2.02 0,-1.12 0.91,-2.03 2.03,-2.03z"/>
 </g>
</svg>
