<?xml version="1.0" encoding="UTF-8"?>
<!DOCTYPE svg PUBLIC "-//W3C//DTD SVG 1.1//EN" "http://www.w3.org/Graphics/SVG/1.1/DTD/svg11.dtd">
<!-- Creator: CorelDRAW 2019 (64-Bit) -->
<svg xmlns="http://www.w3.org/2000/svg" xml:space="preserve" width="543px" height="607px" version="1.1" style="shape-rendering:geometricPrecision; text-rendering:geometricPrecision; image-rendering:optimizeQuality; fill-rule:evenodd; clip-rule:evenodd"
viewBox="0 0 29.3 32.76"
 xmlns:xlink="http://www.w3.org/1999/xlink">
 <defs>
  <style type="text/css">
   <![CDATA[
    .fil0 {fill:#394E63;fill-rule:nonzero}
   ]]>
  </style>
 </defs>
 <g id="Layer_x0020_1">
  <metadata id="CorelCorpID_0Corel-Layer"/>
  <g id="_2083819149264">
   <g>
    <path class="fil0" d="M28.81 0.99l-25.22 0 0 -0.99 25.22 0 0.49 0.5 -0.49 0.49zm0 -0.99l0.49 0 0 0.5 -0.49 -0.5zm-0.5 29.26l0 -28.76 0.99 0 0 28.76 -0.49 0.5 -0.5 -0.5zm0.99 0l0 0.5 -0.49 0 0.49 -0.5zm-3.58 -0.49l3.09 0 0 0.99 -3.09 0 -0.5 -0.5 0.5 -0.49zm0 0.99l-0.5 0 0 -0.5 0.5 0.5zm0.49 -26.26l0 25.76 -0.99 0 0 -25.76 0.5 -0.5 0.49 0.5zm-0.49 -0.5l0.49 0 0 0.5 -0.49 -0.5zm-22.13 0l22.13 0 0 1 -22.13 0 -0.5 -0.5 0.5 -0.5zm0 1l-0.5 0 0 -0.5 0.5 0.5zm0.49 -3.5l0 3 -0.99 0 0 -3 0.5 -0.5 0.49 0.5zm-0.99 0l0 -0.5 0.5 0 -0.5 0.5z"/>
   </g>
   <g>
    <path class="fil0" d="M25.72 3.99l-25.22 0 0 -0.99 25.22 0 0.49 0.5 -0.49 0.49zm0 -0.99l0.49 0 0 0.5 -0.49 -0.5zm-0.5 29.27l0 -28.77 0.99 0 0 28.77 -0.49 0.49 -0.5 -0.49zm0.99 0l0 0.49 -0.49 0 0.49 -0.49zm-25.71 -0.5l25.22 0 0 0.99 -25.22 0 -0.5 -0.49 0.5 -0.5zm0 0.99l-0.5 0 0 -0.49 0.5 0.49zm0.49 -29.26l0 28.77 -0.99 0 0 -28.77 0.5 -0.5 0.49 0.5zm-0.99 0l0 -0.5 0.5 0 -0.5 0.5z"/>
   </g>
   <g>
    <polygon class="fil0" points="22.43,8.57 3.78,8.57 3.78,7.58 22.43,7.58 "/>
   </g>
   <g>
    <polygon class="fil0" points="22.43,12.5 3.78,12.5 3.78,11.5 22.43,11.5 "/>
   </g>
   <g>
    <polygon class="fil0" points="22.43,16.42 3.78,16.42 3.78,15.42 22.43,15.42 "/>
   </g>
   <g>
    <polygon class="fil0" points="22.43,20.34 3.78,20.34 3.78,19.35 22.43,19.35 "/>
   </g>
   <g>
    <polygon class="fil0" points="22.43,24.26 3.78,24.26 3.78,23.27 22.43,23.27 "/>
   </g>
   <g>
    <polygon class="fil0" points="22.43,28.18 3.78,28.18 3.78,27.19 22.43,27.19 "/>
   </g>
  </g>
 </g>
</svg>
