<?xml version="1.0" encoding="UTF-8"?>
<!DOCTYPE svg PUBLIC "-//W3C//DTD SVG 1.1//EN" "http://www.w3.org/Graphics/SVG/1.1/DTD/svg11.dtd">
<!-- Creator: CorelDRAW 2019 (64-Bit) -->
<svg xmlns="http://www.w3.org/2000/svg" xml:space="preserve" width="1063px" height="1134px" version="1.1" style="shape-rendering:geometricPrecision; text-rendering:geometricPrecision; image-rendering:optimizeQuality; fill-rule:evenodd; clip-rule:evenodd"
viewBox="0 0 165.5 176.49"
 xmlns:xlink="http://www.w3.org/1999/xlink">
 <defs>
  <style type="text/css">
   <![CDATA[
    .fil0 {fill:#7400B8;fill-opacity:0.050980}
   ]]>
  </style>
 </defs>
 <g id="Layer_x0020_1">
  <metadata id="CorelCorpID_0Corel-Layer"/>
  <g id="_2229066616848">
   <polygon class="fil0" points="118.07,22.74 149.19,22.74 144.91,28.7 113.88,28.7 "/>
   <polygon class="fil0" points="110.09,34.1 141.04,34.1 136.76,40.07 105.91,40.07 "/>
   <polygon class="fil0" points="102.12,45.47 132.89,45.47 128.61,51.44 97.93,51.44 "/>
   <polygon class="fil0" points="94.14,56.84 124.74,56.84 120.46,62.81 89.96,62.81 "/>
   <path class="fil0" d="M0 68.21l33.19 0 4.52 5.97 -33.13 0 -4.58 -5.97zm86.17 0l30.42 0 -4.28 5.97 -30.33 0 4.19 -5.97z"/>
   <path class="fil0" d="M8.72 79.58l33.08 0 4.51 5.96 -33.01 0 -4.58 -5.96zm69.48 0l30.24 0 -4.28 5.96 -30.15 0 4.19 -5.96z"/>
   <path class="fil0" d="M17.45 90.95l32.95 0 4.52 5.96 -32.89 0 -4.58 -5.96zm52.77 0l30.07 0 -4.28 5.96 -29.97 0 4.18 -5.96z"/>
   <polygon class="fil0" points="26.17,102.31 59.01,102.31 60.69,104.54 62.25,102.31 92.14,102.31 87.86,108.28 30.75,108.28 "/>
   <polygon class="fil0" points="34.9,113.68 83.99,113.68 79.71,119.65 39.48,119.65 "/>
   <polygon class="fil0" points="42.24,125.05 77.51,125.05 81.86,131.02 37.9,131.02 "/>
   <polygon class="fil0" points="33.96,136.42 85.79,136.42 90.14,142.39 29.61,142.39 "/>
   <path class="fil0" d="M25.68 147.79l30.19 0 -4.03 5.96 -30.51 0 4.35 -5.96zm36.42 0l31.97 0 4.35 5.96 -32.18 0 -4.14 -5.96z"/>
   <path class="fil0" d="M17.4 159.15l30.79 0 -4.04 5.97 -31.1 0 4.35 -5.97zm52.58 0l32.37 0 4.35 5.97 -32.58 0 -4.14 -5.97z"/>
   <path class="fil0" d="M9.11 170.52l31.39 0 -4.04 5.97 -31.7 0 4.35 -5.97zm68.75 0l32.77 0 4.35 5.97 -32.99 0 -4.13 -5.97z"/>
   <polygon class="fil0" points="126.04,11.37 157.34,11.37 153.07,17.34 121.86,17.34 "/>
   <polygon class="fil0" points="134.02,0 165.5,0 161.22,5.97 129.83,5.97 "/>
  </g>
 </g>
</svg>
